<mxfile host="app.diagrams.net" modified="2024-03-03T21:19:21.804Z" agent="Mozilla/5.0 (X11; Linux x86_64) AppleWebKit/537.36 (KHTML, like Gecko) Chrome/122.0.0.0 Safari/537.36" etag="gws9CZeVAXOcKqTWdVHw" version="24.0.1" type="google" pages="3">
  <diagram id="MqTzfQ6ZBjLNwtowCZSs" name="Deployment Diagram">
    <mxGraphModel dx="4522" dy="1768" grid="1" gridSize="10" guides="1" tooltips="1" connect="1" arrows="1" fold="1" page="1" pageScale="1" pageWidth="827" pageHeight="1169" math="0" shadow="0">
      <root>
        <mxCell id="0" />
        <mxCell id="1" parent="0" />
        <mxCell id="9ud7PtHcqyMA9MNOEAAO-7" style="edgeStyle=orthogonalEdgeStyle;rounded=0;orthogonalLoop=1;jettySize=auto;html=1;exitX=0.5;exitY=1;exitDx=0;exitDy=0;endArrow=none;endFill=0;" parent="1" edge="1">
          <mxGeometry relative="1" as="geometry">
            <mxPoint x="480" y="690" as="targetPoint" />
          </mxGeometry>
        </mxCell>
        <mxCell id="9ud7PtHcqyMA9MNOEAAO-8" style="edgeStyle=orthogonalEdgeStyle;rounded=0;orthogonalLoop=1;jettySize=auto;html=1;exitX=0.5;exitY=1;exitDx=0;exitDy=0;endArrow=none;endFill=0;" parent="1" edge="1">
          <mxGeometry relative="1" as="geometry">
            <mxPoint x="705" y="690" as="targetPoint" />
          </mxGeometry>
        </mxCell>
        <mxCell id="9ud7PtHcqyMA9MNOEAAO-13" value="" style="fontStyle=1;align=center;verticalAlign=top;childLayout=stackLayout;horizontal=1;horizontalStack=0;resizeParent=1;resizeParentMax=0;resizeLast=0;marginBottom=0;" parent="1" vertex="1">
          <mxGeometry x="660" y="299" width="145" height="156" as="geometry" />
        </mxCell>
        <mxCell id="9ud7PtHcqyMA9MNOEAAO-14" value="&lt;b&gt;KISS-ICP&lt;/b&gt;" style="html=1;align=left;spacingLeft=4;verticalAlign=top;strokeColor=none;fillColor=none;whiteSpace=wrap;" parent="9ud7PtHcqyMA9MNOEAAO-13" vertex="1">
          <mxGeometry width="145" height="40" as="geometry" />
        </mxCell>
        <mxCell id="9ud7PtHcqyMA9MNOEAAO-15" value="" style="shape=module;jettyWidth=10;jettyHeight=4;" parent="9ud7PtHcqyMA9MNOEAAO-14" vertex="1">
          <mxGeometry x="1" width="16" height="20" relative="1" as="geometry">
            <mxPoint x="-25" y="9" as="offset" />
          </mxGeometry>
        </mxCell>
        <mxCell id="9ud7PtHcqyMA9MNOEAAO-16" value="" style="line;strokeWidth=1;fillColor=none;align=left;verticalAlign=middle;spacingTop=-1;spacingLeft=3;spacingRight=3;rotatable=0;labelPosition=right;points=[];portConstraint=eastwest;" parent="9ud7PtHcqyMA9MNOEAAO-13" vertex="1">
          <mxGeometry y="40" width="145" height="8" as="geometry" />
        </mxCell>
        <mxCell id="9ud7PtHcqyMA9MNOEAAO-17" value="&lt;b style=&quot;&quot;&gt;provided interfaces&lt;/b&gt;" style="html=1;align=center;spacingLeft=4;verticalAlign=top;strokeColor=none;fillColor=none;whiteSpace=wrap;" parent="9ud7PtHcqyMA9MNOEAAO-13" vertex="1">
          <mxGeometry y="48" width="145" height="25" as="geometry" />
        </mxCell>
        <mxCell id="9ud7PtHcqyMA9MNOEAAO-18" value="LiDAR Odometry Pose" style="html=1;align=left;spacingLeft=4;verticalAlign=top;strokeColor=none;fillColor=none;whiteSpace=wrap;" parent="9ud7PtHcqyMA9MNOEAAO-13" vertex="1">
          <mxGeometry y="73" width="145" height="25" as="geometry" />
        </mxCell>
        <mxCell id="9ud7PtHcqyMA9MNOEAAO-19" value="" style="line;strokeWidth=1;fillColor=none;align=left;verticalAlign=middle;spacingTop=-1;spacingLeft=3;spacingRight=3;rotatable=0;labelPosition=right;points=[];portConstraint=eastwest;" parent="9ud7PtHcqyMA9MNOEAAO-13" vertex="1">
          <mxGeometry y="98" width="145" height="8" as="geometry" />
        </mxCell>
        <mxCell id="9ud7PtHcqyMA9MNOEAAO-20" value="&lt;b style=&quot;&quot;&gt;required interfaces&lt;/b&gt;" style="html=1;align=center;spacingLeft=4;verticalAlign=top;strokeColor=none;fillColor=none;whiteSpace=wrap;" parent="9ud7PtHcqyMA9MNOEAAO-13" vertex="1">
          <mxGeometry y="106" width="145" height="25" as="geometry" />
        </mxCell>
        <mxCell id="9ud7PtHcqyMA9MNOEAAO-21" value="3D Point Cloud" style="html=1;align=center;spacingLeft=4;verticalAlign=top;strokeColor=none;fillColor=none;whiteSpace=wrap;" parent="9ud7PtHcqyMA9MNOEAAO-13" vertex="1">
          <mxGeometry y="131" width="145" height="25" as="geometry" />
        </mxCell>
        <mxCell id="9ud7PtHcqyMA9MNOEAAO-32" value="" style="fontStyle=1;align=center;verticalAlign=top;childLayout=stackLayout;horizontal=1;horizontalStack=0;resizeParent=1;resizeParentMax=0;resizeLast=0;marginBottom=0;" parent="1" vertex="1">
          <mxGeometry x="150" y="277.5" width="130" height="344" as="geometry" />
        </mxCell>
        <mxCell id="9ud7PtHcqyMA9MNOEAAO-33" value="&lt;b&gt;EKF SLAM&lt;/b&gt;" style="html=1;align=left;spacingLeft=4;verticalAlign=top;strokeColor=none;fillColor=none;whiteSpace=wrap;" parent="9ud7PtHcqyMA9MNOEAAO-32" vertex="1">
          <mxGeometry width="130" height="40" as="geometry" />
        </mxCell>
        <mxCell id="9ud7PtHcqyMA9MNOEAAO-34" value="" style="shape=module;jettyWidth=10;jettyHeight=4;" parent="9ud7PtHcqyMA9MNOEAAO-33" vertex="1">
          <mxGeometry x="1" width="16" height="20" relative="1" as="geometry">
            <mxPoint x="-25" y="9" as="offset" />
          </mxGeometry>
        </mxCell>
        <mxCell id="9ud7PtHcqyMA9MNOEAAO-35" value="" style="line;strokeWidth=1;fillColor=none;align=left;verticalAlign=middle;spacingTop=-1;spacingLeft=3;spacingRight=3;rotatable=0;labelPosition=right;points=[];portConstraint=eastwest;" parent="9ud7PtHcqyMA9MNOEAAO-32" vertex="1">
          <mxGeometry y="40" width="130" height="8" as="geometry" />
        </mxCell>
        <mxCell id="9ud7PtHcqyMA9MNOEAAO-36" value="&lt;b style=&quot;&quot;&gt;provided interfaces&lt;/b&gt;" style="html=1;align=center;spacingLeft=4;verticalAlign=top;strokeColor=none;fillColor=none;whiteSpace=wrap;" parent="9ud7PtHcqyMA9MNOEAAO-32" vertex="1">
          <mxGeometry y="48" width="130" height="25" as="geometry" />
        </mxCell>
        <mxCell id="9ud7PtHcqyMA9MNOEAAO-37" value="Cone Map" style="html=1;align=left;spacingLeft=4;verticalAlign=top;strokeColor=none;fillColor=none;whiteSpace=wrap;" parent="9ud7PtHcqyMA9MNOEAAO-32" vertex="1">
          <mxGeometry y="73" width="130" height="25" as="geometry" />
        </mxCell>
        <mxCell id="9ud7PtHcqyMA9MNOEAAO-193" value="Emergency" style="html=1;align=left;spacingLeft=4;verticalAlign=top;strokeColor=none;fillColor=none;whiteSpace=wrap;spacingRight=4;fontFamily=Helvetica;fontSize=12;fontColor=default;" parent="9ud7PtHcqyMA9MNOEAAO-32" vertex="1">
          <mxGeometry y="98" width="130" height="25" as="geometry" />
        </mxCell>
        <mxCell id="v09aj6478rrVFZpmlRXY-1" value="Mission Finished" style="html=1;align=left;spacingLeft=4;verticalAlign=top;strokeColor=none;fillColor=none;whiteSpace=wrap;" parent="9ud7PtHcqyMA9MNOEAAO-32" vertex="1">
          <mxGeometry y="123" width="130" height="27" as="geometry" />
        </mxCell>
        <mxCell id="9ud7PtHcqyMA9MNOEAAO-114" value="Velocity &amp;amp; Pose" style="html=1;align=left;spacingLeft=4;verticalAlign=top;strokeColor=none;fillColor=none;whiteSpace=wrap;" parent="9ud7PtHcqyMA9MNOEAAO-32" vertex="1">
          <mxGeometry y="150" width="130" height="27" as="geometry" />
        </mxCell>
        <mxCell id="9ud7PtHcqyMA9MNOEAAO-39" value="" style="line;strokeWidth=1;fillColor=none;align=left;verticalAlign=middle;spacingTop=-1;spacingLeft=3;spacingRight=3;rotatable=0;labelPosition=right;points=[];portConstraint=eastwest;" parent="9ud7PtHcqyMA9MNOEAAO-32" vertex="1">
          <mxGeometry y="177" width="130" height="8" as="geometry" />
        </mxCell>
        <mxCell id="9ud7PtHcqyMA9MNOEAAO-40" value="&lt;b style=&quot;&quot;&gt;required interfaces&lt;/b&gt;" style="html=1;align=left;spacingLeft=4;verticalAlign=top;strokeColor=none;fillColor=none;whiteSpace=wrap;" parent="9ud7PtHcqyMA9MNOEAAO-32" vertex="1">
          <mxGeometry y="185" width="130" height="30" as="geometry" />
        </mxCell>
        <mxCell id="9ud7PtHcqyMA9MNOEAAO-41" value="LiDAR Odometry Pose" style="html=1;align=left;spacingLeft=4;verticalAlign=top;strokeColor=none;fillColor=none;whiteSpace=wrap;" parent="9ud7PtHcqyMA9MNOEAAO-32" vertex="1">
          <mxGeometry y="215" width="130" height="30" as="geometry" />
        </mxCell>
        <mxCell id="9ud7PtHcqyMA9MNOEAAO-42" value="3-Axis IMU" style="html=1;align=left;spacingLeft=4;verticalAlign=top;strokeColor=none;fillColor=none;whiteSpace=wrap;" parent="9ud7PtHcqyMA9MNOEAAO-32" vertex="1">
          <mxGeometry y="245" width="130" height="30" as="geometry" />
        </mxCell>
        <mxCell id="9ud7PtHcqyMA9MNOEAAO-43" value="Cone relative coordinates" style="html=1;align=left;spacingLeft=4;verticalAlign=top;strokeColor=none;fillColor=none;whiteSpace=wrap;" parent="9ud7PtHcqyMA9MNOEAAO-32" vertex="1">
          <mxGeometry y="275" width="130" height="39" as="geometry" />
        </mxCell>
        <mxCell id="9ud7PtHcqyMA9MNOEAAO-158" value="Wheel States" style="html=1;align=left;spacingLeft=4;verticalAlign=top;strokeColor=none;fillColor=none;whiteSpace=wrap;" parent="9ud7PtHcqyMA9MNOEAAO-32" vertex="1">
          <mxGeometry y="314" width="130" height="30" as="geometry" />
        </mxCell>
        <mxCell id="9ud7PtHcqyMA9MNOEAAO-44" value="" style="rounded=0;orthogonalLoop=1;jettySize=auto;html=1;endArrow=halfCircle;endFill=0;endSize=6;strokeWidth=1;sketch=0;exitX=1;exitY=0.5;exitDx=0;exitDy=0;" parent="1" edge="1">
          <mxGeometry relative="1" as="geometry">
            <mxPoint x="280" y="384.75" as="sourcePoint" />
            <mxPoint x="400" y="384.25" as="targetPoint" />
          </mxGeometry>
        </mxCell>
        <mxCell id="9ud7PtHcqyMA9MNOEAAO-45" value="" style="rounded=0;orthogonalLoop=1;jettySize=auto;html=1;endArrow=oval;endFill=0;sketch=0;sourcePerimeterSpacing=0;targetPerimeterSpacing=0;endSize=10;exitX=0;exitY=0.5;exitDx=0;exitDy=0;" parent="1" source="9ud7PtHcqyMA9MNOEAAO-18" target="9ud7PtHcqyMA9MNOEAAO-46" edge="1">
          <mxGeometry relative="1" as="geometry">
            <mxPoint x="407" y="384" as="sourcePoint" />
          </mxGeometry>
        </mxCell>
        <mxCell id="9ud7PtHcqyMA9MNOEAAO-46" value="" style="ellipse;whiteSpace=wrap;html=1;align=center;aspect=fixed;fillColor=none;strokeColor=none;resizable=0;perimeter=centerPerimeter;rotatable=0;allowArrows=0;points=[];outlineConnect=1;" parent="1" vertex="1">
          <mxGeometry x="395" y="379.5" width="10" height="10" as="geometry" />
        </mxCell>
        <mxCell id="9ud7PtHcqyMA9MNOEAAO-52" value="" style="ellipse;whiteSpace=wrap;html=1;align=center;aspect=fixed;fillColor=none;strokeColor=none;resizable=0;perimeter=centerPerimeter;rotatable=0;allowArrows=0;points=[];outlineConnect=1;" parent="1" vertex="1">
          <mxGeometry x="570" y="213" width="10" height="10" as="geometry" />
        </mxCell>
        <mxCell id="9ud7PtHcqyMA9MNOEAAO-64" value="" style="fontStyle=1;align=center;verticalAlign=top;childLayout=stackLayout;horizontal=1;horizontalStack=0;resizeParent=1;resizeParentMax=0;resizeLast=0;marginBottom=0;spacingLeft=4;spacingRight=4;fontFamily=Helvetica;fontSize=12;fontColor=default;fillColor=none;gradientColor=none;html=1;" parent="1" vertex="1">
          <mxGeometry x="-90" y="277.5" width="140" height="303" as="geometry" />
        </mxCell>
        <mxCell id="9ud7PtHcqyMA9MNOEAAO-65" value="FSDS" style="html=1;align=left;spacingLeft=4;verticalAlign=top;strokeColor=none;fillColor=none;whiteSpace=wrap;spacingRight=4;fontFamily=Helvetica;fontSize=12;fontColor=default;fontStyle=1" parent="9ud7PtHcqyMA9MNOEAAO-64" vertex="1">
          <mxGeometry width="140" height="40" as="geometry" />
        </mxCell>
        <mxCell id="9ud7PtHcqyMA9MNOEAAO-66" value="" style="shape=module;jettyWidth=10;jettyHeight=4;align=left;verticalAlign=top;spacingLeft=4;spacingRight=4;fontFamily=Helvetica;fontSize=12;fontColor=default;fillColor=none;gradientColor=none;html=1;" parent="9ud7PtHcqyMA9MNOEAAO-65" vertex="1">
          <mxGeometry x="1" width="16" height="20" relative="1" as="geometry">
            <mxPoint x="-25" y="9" as="offset" />
          </mxGeometry>
        </mxCell>
        <mxCell id="9ud7PtHcqyMA9MNOEAAO-67" value="" style="line;strokeWidth=1;fillColor=none;align=left;verticalAlign=middle;spacingTop=-1;spacingLeft=3;spacingRight=3;rotatable=0;labelPosition=right;points=[];portConstraint=eastwest;fontFamily=Helvetica;fontSize=12;fontColor=default;html=1;" parent="9ud7PtHcqyMA9MNOEAAO-64" vertex="1">
          <mxGeometry y="40" width="140" height="8" as="geometry" />
        </mxCell>
        <mxCell id="9ud7PtHcqyMA9MNOEAAO-68" value="provided interfaces" style="html=1;align=center;spacingLeft=4;verticalAlign=top;strokeColor=none;fillColor=none;whiteSpace=wrap;spacingRight=4;fontFamily=Helvetica;fontSize=12;fontColor=default;fontStyle=1" parent="9ud7PtHcqyMA9MNOEAAO-64" vertex="1">
          <mxGeometry y="48" width="140" height="25" as="geometry" />
        </mxCell>
        <mxCell id="9ud7PtHcqyMA9MNOEAAO-74" value="Go" style="html=1;align=left;spacingLeft=4;verticalAlign=top;strokeColor=none;fillColor=none;whiteSpace=wrap;spacingRight=4;fontFamily=Helvetica;fontSize=12;fontColor=default;" parent="9ud7PtHcqyMA9MNOEAAO-64" vertex="1">
          <mxGeometry y="73" width="140" height="30" as="geometry" />
        </mxCell>
        <mxCell id="9ud7PtHcqyMA9MNOEAAO-75" value="Wheel States" style="html=1;align=left;spacingLeft=4;verticalAlign=top;strokeColor=none;fillColor=none;whiteSpace=wrap;spacingRight=4;fontFamily=Helvetica;fontSize=12;fontColor=default;" parent="9ud7PtHcqyMA9MNOEAAO-64" vertex="1">
          <mxGeometry y="103" width="140" height="30" as="geometry" />
        </mxCell>
        <mxCell id="v09aj6478rrVFZpmlRXY-83" value="3D Point Cloud" style="html=1;align=left;spacingLeft=4;verticalAlign=top;strokeColor=none;fillColor=none;whiteSpace=wrap;spacingRight=4;fontFamily=Helvetica;fontSize=12;fontColor=default;" parent="9ud7PtHcqyMA9MNOEAAO-64" vertex="1">
          <mxGeometry y="133" width="140" height="30" as="geometry" />
        </mxCell>
        <mxCell id="9ud7PtHcqyMA9MNOEAAO-76" value="3-Axis IMU" style="html=1;align=left;spacingLeft=4;verticalAlign=top;strokeColor=none;fillColor=none;whiteSpace=wrap;spacingRight=4;fontFamily=Helvetica;fontSize=12;fontColor=default;" parent="9ud7PtHcqyMA9MNOEAAO-64" vertex="1">
          <mxGeometry y="163" width="140" height="30" as="geometry" />
        </mxCell>
        <mxCell id="9ud7PtHcqyMA9MNOEAAO-72" value="" style="line;strokeWidth=1;fillColor=none;align=left;verticalAlign=middle;spacingTop=-1;spacingLeft=3;spacingRight=3;rotatable=0;labelPosition=right;points=[];portConstraint=eastwest;fontFamily=Helvetica;fontSize=12;fontColor=default;html=1;" parent="9ud7PtHcqyMA9MNOEAAO-64" vertex="1">
          <mxGeometry y="193" width="140" height="8" as="geometry" />
        </mxCell>
        <mxCell id="9ud7PtHcqyMA9MNOEAAO-73" value="required interfaces" style="html=1;align=center;spacingLeft=4;verticalAlign=top;strokeColor=none;fillColor=none;whiteSpace=wrap;spacingRight=4;fontFamily=Helvetica;fontSize=12;fontColor=default;fontStyle=1" parent="9ud7PtHcqyMA9MNOEAAO-64" vertex="1">
          <mxGeometry y="201" width="140" height="25" as="geometry" />
        </mxCell>
        <mxCell id="9ud7PtHcqyMA9MNOEAAO-70" value="Steering Command" style="html=1;align=left;spacingLeft=4;verticalAlign=top;strokeColor=none;fillColor=none;whiteSpace=wrap;spacingRight=4;fontFamily=Helvetica;fontSize=12;fontColor=default;" parent="9ud7PtHcqyMA9MNOEAAO-64" vertex="1">
          <mxGeometry y="226" width="140" height="25" as="geometry" />
        </mxCell>
        <mxCell id="v09aj6478rrVFZpmlRXY-20" value="Mission Finished" style="html=1;align=left;spacingLeft=4;verticalAlign=top;strokeColor=none;fillColor=none;whiteSpace=wrap;" parent="9ud7PtHcqyMA9MNOEAAO-64" vertex="1">
          <mxGeometry y="251" width="140" height="27" as="geometry" />
        </mxCell>
        <mxCell id="9ud7PtHcqyMA9MNOEAAO-71" value="Throttle Command" style="html=1;align=left;spacingLeft=4;verticalAlign=top;strokeColor=none;fillColor=none;whiteSpace=wrap;spacingRight=4;fontFamily=Helvetica;fontSize=12;fontColor=default;" parent="9ud7PtHcqyMA9MNOEAAO-64" vertex="1">
          <mxGeometry y="278" width="140" height="25" as="geometry" />
        </mxCell>
        <mxCell id="9ud7PtHcqyMA9MNOEAAO-95" value="" style="rounded=0;orthogonalLoop=1;jettySize=auto;html=1;endArrow=halfCircle;endFill=0;endSize=6;strokeWidth=1;sketch=0;exitX=0.489;exitY=0.007;exitDx=0;exitDy=0;exitPerimeter=0;" parent="1" source="9ud7PtHcqyMA9MNOEAAO-14" edge="1">
          <mxGeometry relative="1" as="geometry">
            <mxPoint x="729.9800000000001" y="298.9999999999999" as="sourcePoint" />
            <mxPoint x="410" y="239" as="targetPoint" />
            <Array as="points">
              <mxPoint x="730" y="239" />
            </Array>
          </mxGeometry>
        </mxCell>
        <mxCell id="9ud7PtHcqyMA9MNOEAAO-96" value="" style="rounded=0;orthogonalLoop=1;jettySize=auto;html=1;endArrow=oval;endFill=0;sketch=0;sourcePerimeterSpacing=0;targetPerimeterSpacing=0;endSize=10;" parent="1" edge="1">
          <mxGeometry relative="1" as="geometry">
            <mxPoint x="-20" y="259" as="sourcePoint" />
            <mxPoint x="410" y="239" as="targetPoint" />
            <Array as="points">
              <mxPoint x="-20" y="239" />
            </Array>
          </mxGeometry>
        </mxCell>
        <mxCell id="9ud7PtHcqyMA9MNOEAAO-97" value="" style="fontStyle=1;align=center;verticalAlign=top;childLayout=stackLayout;horizontal=1;horizontalStack=0;resizeParent=1;resizeParentMax=0;resizeLast=0;marginBottom=0;" parent="1" vertex="1">
          <mxGeometry x="680" y="679" width="120" height="163" as="geometry" />
        </mxCell>
        <mxCell id="9ud7PtHcqyMA9MNOEAAO-98" value="&lt;b&gt;Planning&lt;/b&gt;" style="html=1;align=left;spacingLeft=4;verticalAlign=top;strokeColor=none;fillColor=none;whiteSpace=wrap;" parent="9ud7PtHcqyMA9MNOEAAO-97" vertex="1">
          <mxGeometry width="120" height="40" as="geometry" />
        </mxCell>
        <mxCell id="9ud7PtHcqyMA9MNOEAAO-99" value="" style="shape=module;jettyWidth=10;jettyHeight=4;" parent="9ud7PtHcqyMA9MNOEAAO-98" vertex="1">
          <mxGeometry x="1" width="16" height="20" relative="1" as="geometry">
            <mxPoint x="-25" y="9" as="offset" />
          </mxGeometry>
        </mxCell>
        <mxCell id="9ud7PtHcqyMA9MNOEAAO-100" value="" style="line;strokeWidth=1;fillColor=none;align=left;verticalAlign=middle;spacingTop=-1;spacingLeft=3;spacingRight=3;rotatable=0;labelPosition=right;points=[];portConstraint=eastwest;" parent="9ud7PtHcqyMA9MNOEAAO-97" vertex="1">
          <mxGeometry y="40" width="120" height="8" as="geometry" />
        </mxCell>
        <mxCell id="9ud7PtHcqyMA9MNOEAAO-101" value="&lt;b style=&quot;&quot;&gt;provided interfaces&lt;/b&gt;" style="html=1;align=center;spacingLeft=4;verticalAlign=top;strokeColor=none;fillColor=none;whiteSpace=wrap;" parent="9ud7PtHcqyMA9MNOEAAO-97" vertex="1">
          <mxGeometry y="48" width="120" height="25" as="geometry" />
        </mxCell>
        <mxCell id="9ud7PtHcqyMA9MNOEAAO-102" value="Path" style="html=1;align=left;spacingLeft=4;verticalAlign=top;strokeColor=none;fillColor=none;whiteSpace=wrap;" parent="9ud7PtHcqyMA9MNOEAAO-97" vertex="1">
          <mxGeometry y="73" width="120" height="27" as="geometry" />
        </mxCell>
        <mxCell id="9ud7PtHcqyMA9MNOEAAO-103" value="" style="line;strokeWidth=1;fillColor=none;align=left;verticalAlign=middle;spacingTop=-1;spacingLeft=3;spacingRight=3;rotatable=0;labelPosition=right;points=[];portConstraint=eastwest;" parent="9ud7PtHcqyMA9MNOEAAO-97" vertex="1">
          <mxGeometry y="100" width="120" height="8" as="geometry" />
        </mxCell>
        <mxCell id="9ud7PtHcqyMA9MNOEAAO-104" value="&lt;b style=&quot;&quot;&gt;required interfaces&lt;/b&gt;" style="html=1;align=center;spacingLeft=4;verticalAlign=top;strokeColor=none;fillColor=none;whiteSpace=wrap;" parent="9ud7PtHcqyMA9MNOEAAO-97" vertex="1">
          <mxGeometry y="108" width="120" height="25" as="geometry" />
        </mxCell>
        <mxCell id="9ud7PtHcqyMA9MNOEAAO-105" value="Cone map" style="html=1;align=left;spacingLeft=4;verticalAlign=top;strokeColor=none;fillColor=none;whiteSpace=wrap;" parent="9ud7PtHcqyMA9MNOEAAO-97" vertex="1">
          <mxGeometry y="133" width="120" height="30" as="geometry" />
        </mxCell>
        <mxCell id="9ud7PtHcqyMA9MNOEAAO-106" value="" style="fontStyle=1;align=center;verticalAlign=top;childLayout=stackLayout;horizontal=1;horizontalStack=0;resizeParent=1;resizeParentMax=0;resizeLast=0;marginBottom=0;" parent="1" vertex="1">
          <mxGeometry x="150" y="659" width="130" height="242" as="geometry" />
        </mxCell>
        <mxCell id="9ud7PtHcqyMA9MNOEAAO-107" value="&lt;b&gt;Longitudinal Controller&lt;br&gt;&lt;/b&gt;" style="html=1;align=left;spacingLeft=4;verticalAlign=top;strokeColor=none;fillColor=none;whiteSpace=wrap;" parent="9ud7PtHcqyMA9MNOEAAO-106" vertex="1">
          <mxGeometry width="130" height="40" as="geometry" />
        </mxCell>
        <mxCell id="9ud7PtHcqyMA9MNOEAAO-108" value="" style="shape=module;jettyWidth=10;jettyHeight=4;" parent="9ud7PtHcqyMA9MNOEAAO-107" vertex="1">
          <mxGeometry x="1" width="16" height="20" relative="1" as="geometry">
            <mxPoint x="-25" y="9" as="offset" />
          </mxGeometry>
        </mxCell>
        <mxCell id="9ud7PtHcqyMA9MNOEAAO-109" value="" style="line;strokeWidth=1;fillColor=none;align=left;verticalAlign=middle;spacingTop=-1;spacingLeft=3;spacingRight=3;rotatable=0;labelPosition=right;points=[];portConstraint=eastwest;" parent="9ud7PtHcqyMA9MNOEAAO-106" vertex="1">
          <mxGeometry y="40" width="130" height="8" as="geometry" />
        </mxCell>
        <mxCell id="9ud7PtHcqyMA9MNOEAAO-110" value="&lt;b style=&quot;&quot;&gt;provided interfaces&lt;/b&gt;" style="html=1;align=center;spacingLeft=4;verticalAlign=top;strokeColor=none;fillColor=none;whiteSpace=wrap;" parent="9ud7PtHcqyMA9MNOEAAO-106" vertex="1">
          <mxGeometry y="48" width="130" height="25" as="geometry" />
        </mxCell>
        <mxCell id="9ud7PtHcqyMA9MNOEAAO-195" value="Emergency" style="html=1;align=left;spacingLeft=4;verticalAlign=top;strokeColor=none;fillColor=none;whiteSpace=wrap;spacingRight=4;fontFamily=Helvetica;fontSize=12;fontColor=default;" parent="9ud7PtHcqyMA9MNOEAAO-106" vertex="1">
          <mxGeometry y="73" width="130" height="25" as="geometry" />
        </mxCell>
        <mxCell id="9ud7PtHcqyMA9MNOEAAO-111" value="Throttle command" style="html=1;align=left;spacingLeft=4;verticalAlign=top;strokeColor=none;fillColor=none;whiteSpace=wrap;" parent="9ud7PtHcqyMA9MNOEAAO-106" vertex="1">
          <mxGeometry y="98" width="130" height="27" as="geometry" />
        </mxCell>
        <mxCell id="9ud7PtHcqyMA9MNOEAAO-112" value="" style="line;strokeWidth=1;fillColor=none;align=left;verticalAlign=middle;spacingTop=-1;spacingLeft=3;spacingRight=3;rotatable=0;labelPosition=right;points=[];portConstraint=eastwest;" parent="9ud7PtHcqyMA9MNOEAAO-106" vertex="1">
          <mxGeometry y="125" width="130" height="8" as="geometry" />
        </mxCell>
        <mxCell id="9ud7PtHcqyMA9MNOEAAO-113" value="&lt;b style=&quot;&quot;&gt;required interfaces&lt;/b&gt;" style="html=1;align=center;spacingLeft=4;verticalAlign=top;strokeColor=none;fillColor=none;whiteSpace=wrap;" parent="9ud7PtHcqyMA9MNOEAAO-106" vertex="1">
          <mxGeometry y="133" width="130" height="25" as="geometry" />
        </mxCell>
        <mxCell id="rP3ILw7ncX2r4K9jjdeX-32" value="Velocity &amp;amp; Pose" style="html=1;align=left;spacingLeft=4;verticalAlign=top;strokeColor=none;fillColor=none;whiteSpace=wrap;" parent="9ud7PtHcqyMA9MNOEAAO-106" vertex="1">
          <mxGeometry y="158" width="130" height="27" as="geometry" />
        </mxCell>
        <mxCell id="v09aj6478rrVFZpmlRXY-123" value="Go" style="html=1;align=left;spacingLeft=4;verticalAlign=top;strokeColor=none;fillColor=none;whiteSpace=wrap;spacingRight=4;fontFamily=Helvetica;fontSize=12;fontColor=default;" parent="9ud7PtHcqyMA9MNOEAAO-106" vertex="1">
          <mxGeometry y="185" width="130" height="30" as="geometry" />
        </mxCell>
        <mxCell id="9ud7PtHcqyMA9MNOEAAO-144" value="Path" style="html=1;align=left;spacingLeft=4;verticalAlign=top;strokeColor=none;fillColor=none;whiteSpace=wrap;" parent="9ud7PtHcqyMA9MNOEAAO-106" vertex="1">
          <mxGeometry y="215" width="130" height="27" as="geometry" />
        </mxCell>
        <mxCell id="9ud7PtHcqyMA9MNOEAAO-115" value="" style="fontStyle=1;align=center;verticalAlign=top;childLayout=stackLayout;horizontal=1;horizontalStack=0;resizeParent=1;resizeParentMax=0;resizeLast=0;marginBottom=0;" parent="1" vertex="1">
          <mxGeometry x="405" y="659" width="140" height="242" as="geometry" />
        </mxCell>
        <mxCell id="9ud7PtHcqyMA9MNOEAAO-116" value="&lt;b&gt;Lateral Controller&lt;/b&gt;" style="html=1;align=left;spacingLeft=4;verticalAlign=top;strokeColor=none;fillColor=none;whiteSpace=wrap;" parent="9ud7PtHcqyMA9MNOEAAO-115" vertex="1">
          <mxGeometry width="140" height="40" as="geometry" />
        </mxCell>
        <mxCell id="9ud7PtHcqyMA9MNOEAAO-117" value="" style="shape=module;jettyWidth=10;jettyHeight=4;" parent="9ud7PtHcqyMA9MNOEAAO-116" vertex="1">
          <mxGeometry x="1" width="16" height="20" relative="1" as="geometry">
            <mxPoint x="-25" y="9" as="offset" />
          </mxGeometry>
        </mxCell>
        <mxCell id="9ud7PtHcqyMA9MNOEAAO-118" value="" style="line;strokeWidth=1;fillColor=none;align=left;verticalAlign=middle;spacingTop=-1;spacingLeft=3;spacingRight=3;rotatable=0;labelPosition=right;points=[];portConstraint=eastwest;" parent="9ud7PtHcqyMA9MNOEAAO-115" vertex="1">
          <mxGeometry y="40" width="140" height="8" as="geometry" />
        </mxCell>
        <mxCell id="9ud7PtHcqyMA9MNOEAAO-119" value="&lt;b style=&quot;&quot;&gt;provided interfaces&lt;/b&gt;" style="html=1;align=center;spacingLeft=4;verticalAlign=top;strokeColor=none;fillColor=none;whiteSpace=wrap;" parent="9ud7PtHcqyMA9MNOEAAO-115" vertex="1">
          <mxGeometry y="48" width="140" height="25" as="geometry" />
        </mxCell>
        <mxCell id="9ud7PtHcqyMA9MNOEAAO-194" value="Emergency" style="html=1;align=left;spacingLeft=4;verticalAlign=top;strokeColor=none;fillColor=none;whiteSpace=wrap;spacingRight=4;fontFamily=Helvetica;fontSize=12;fontColor=default;" parent="9ud7PtHcqyMA9MNOEAAO-115" vertex="1">
          <mxGeometry y="73" width="140" height="25" as="geometry" />
        </mxCell>
        <mxCell id="9ud7PtHcqyMA9MNOEAAO-120" value="Steering Command" style="html=1;align=left;spacingLeft=4;verticalAlign=top;strokeColor=none;fillColor=none;whiteSpace=wrap;" parent="9ud7PtHcqyMA9MNOEAAO-115" vertex="1">
          <mxGeometry y="98" width="140" height="27" as="geometry" />
        </mxCell>
        <mxCell id="9ud7PtHcqyMA9MNOEAAO-121" value="" style="line;strokeWidth=1;fillColor=none;align=left;verticalAlign=middle;spacingTop=-1;spacingLeft=3;spacingRight=3;rotatable=0;labelPosition=right;points=[];portConstraint=eastwest;" parent="9ud7PtHcqyMA9MNOEAAO-115" vertex="1">
          <mxGeometry y="125" width="140" height="8" as="geometry" />
        </mxCell>
        <mxCell id="9ud7PtHcqyMA9MNOEAAO-122" value="&lt;b style=&quot;&quot;&gt;required interfaces&lt;/b&gt;" style="html=1;align=center;spacingLeft=4;verticalAlign=top;strokeColor=none;fillColor=none;whiteSpace=wrap;" parent="9ud7PtHcqyMA9MNOEAAO-115" vertex="1">
          <mxGeometry y="133" width="140" height="25" as="geometry" />
        </mxCell>
        <mxCell id="rP3ILw7ncX2r4K9jjdeX-19" value="Velocity &amp;amp; Pose" style="html=1;align=left;spacingLeft=4;verticalAlign=top;strokeColor=none;fillColor=none;whiteSpace=wrap;" parent="9ud7PtHcqyMA9MNOEAAO-115" vertex="1">
          <mxGeometry y="158" width="140" height="27" as="geometry" />
        </mxCell>
        <mxCell id="v09aj6478rrVFZpmlRXY-122" value="Go" style="html=1;align=left;spacingLeft=4;verticalAlign=top;strokeColor=none;fillColor=none;whiteSpace=wrap;spacingRight=4;fontFamily=Helvetica;fontSize=12;fontColor=default;" parent="9ud7PtHcqyMA9MNOEAAO-115" vertex="1">
          <mxGeometry y="185" width="140" height="30" as="geometry" />
        </mxCell>
        <mxCell id="9ud7PtHcqyMA9MNOEAAO-145" value="Path" style="html=1;align=left;spacingLeft=4;verticalAlign=top;strokeColor=none;fillColor=none;whiteSpace=wrap;" parent="9ud7PtHcqyMA9MNOEAAO-115" vertex="1">
          <mxGeometry y="215" width="140" height="27" as="geometry" />
        </mxCell>
        <mxCell id="9ud7PtHcqyMA9MNOEAAO-126" value="" style="fontStyle=1;align=center;verticalAlign=top;childLayout=stackLayout;horizontal=1;horizontalStack=0;resizeParent=1;resizeParentMax=0;resizeLast=0;marginBottom=0;" parent="1" vertex="1">
          <mxGeometry x="150" y="30" width="130" height="198" as="geometry" />
        </mxCell>
        <mxCell id="9ud7PtHcqyMA9MNOEAAO-127" value="&lt;b&gt;Perception&lt;/b&gt;" style="html=1;align=left;spacingLeft=4;verticalAlign=top;strokeColor=none;fillColor=none;whiteSpace=wrap;" parent="9ud7PtHcqyMA9MNOEAAO-126" vertex="1">
          <mxGeometry width="130" height="40" as="geometry" />
        </mxCell>
        <mxCell id="9ud7PtHcqyMA9MNOEAAO-128" value="" style="shape=module;jettyWidth=10;jettyHeight=4;" parent="9ud7PtHcqyMA9MNOEAAO-127" vertex="1">
          <mxGeometry x="1" width="16" height="20" relative="1" as="geometry">
            <mxPoint x="-25" y="9" as="offset" />
          </mxGeometry>
        </mxCell>
        <mxCell id="9ud7PtHcqyMA9MNOEAAO-129" value="" style="line;strokeWidth=1;fillColor=none;align=left;verticalAlign=middle;spacingTop=-1;spacingLeft=3;spacingRight=3;rotatable=0;labelPosition=right;points=[];portConstraint=eastwest;" parent="9ud7PtHcqyMA9MNOEAAO-126" vertex="1">
          <mxGeometry y="40" width="130" height="8" as="geometry" />
        </mxCell>
        <mxCell id="9ud7PtHcqyMA9MNOEAAO-130" value="&lt;b style=&quot;&quot;&gt;provided interfaces&lt;/b&gt;" style="html=1;align=center;spacingLeft=4;verticalAlign=top;strokeColor=none;fillColor=none;whiteSpace=wrap;" parent="9ud7PtHcqyMA9MNOEAAO-126" vertex="1">
          <mxGeometry y="48" width="130" height="25" as="geometry" />
        </mxCell>
        <mxCell id="9ud7PtHcqyMA9MNOEAAO-196" value="Emergency" style="html=1;align=left;spacingLeft=4;verticalAlign=top;strokeColor=none;fillColor=none;whiteSpace=wrap;spacingRight=4;fontFamily=Helvetica;fontSize=12;fontColor=default;" parent="9ud7PtHcqyMA9MNOEAAO-126" vertex="1">
          <mxGeometry y="73" width="130" height="25" as="geometry" />
        </mxCell>
        <mxCell id="9ud7PtHcqyMA9MNOEAAO-131" value="Cone relative&amp;nbsp;&lt;span style=&quot;background-color: initial;&quot;&gt;coordinates&lt;/span&gt;" style="html=1;align=left;spacingLeft=4;verticalAlign=top;strokeColor=none;fillColor=none;whiteSpace=wrap;" parent="9ud7PtHcqyMA9MNOEAAO-126" vertex="1">
          <mxGeometry y="98" width="130" height="37" as="geometry" />
        </mxCell>
        <mxCell id="9ud7PtHcqyMA9MNOEAAO-132" value="" style="line;strokeWidth=1;fillColor=none;align=left;verticalAlign=middle;spacingTop=-1;spacingLeft=3;spacingRight=3;rotatable=0;labelPosition=right;points=[];portConstraint=eastwest;" parent="9ud7PtHcqyMA9MNOEAAO-126" vertex="1">
          <mxGeometry y="135" width="130" height="8" as="geometry" />
        </mxCell>
        <mxCell id="9ud7PtHcqyMA9MNOEAAO-133" value="&lt;b style=&quot;&quot;&gt;required interfaces&lt;/b&gt;" style="html=1;align=center;spacingLeft=4;verticalAlign=top;strokeColor=none;fillColor=none;whiteSpace=wrap;" parent="9ud7PtHcqyMA9MNOEAAO-126" vertex="1">
          <mxGeometry y="143" width="130" height="25" as="geometry" />
        </mxCell>
        <mxCell id="9ud7PtHcqyMA9MNOEAAO-134" value="3D Point Cloud" style="html=1;align=left;spacingLeft=4;verticalAlign=top;strokeColor=none;fillColor=none;whiteSpace=wrap;" parent="9ud7PtHcqyMA9MNOEAAO-126" vertex="1">
          <mxGeometry y="168" width="130" height="30" as="geometry" />
        </mxCell>
        <mxCell id="9ud7PtHcqyMA9MNOEAAO-150" value="" style="rounded=0;orthogonalLoop=1;jettySize=auto;html=1;endArrow=halfCircle;endFill=0;endSize=6;strokeWidth=1;sketch=0;exitX=0;exitY=0.25;exitDx=0;exitDy=0;" parent="1" source="9ud7PtHcqyMA9MNOEAAO-196" edge="1">
          <mxGeometry relative="1" as="geometry">
            <mxPoint x="280" y="109" as="sourcePoint" />
            <mxPoint x="50" y="109" as="targetPoint" />
          </mxGeometry>
        </mxCell>
        <mxCell id="9ud7PtHcqyMA9MNOEAAO-151" value="" style="rounded=0;orthogonalLoop=1;jettySize=auto;html=1;endArrow=oval;endFill=0;sketch=0;sourcePerimeterSpacing=0;targetPerimeterSpacing=0;endSize=10;" parent="1" edge="1">
          <mxGeometry relative="1" as="geometry">
            <mxPoint x="-20" y="259" as="sourcePoint" />
            <mxPoint x="50" y="109" as="targetPoint" />
            <Array as="points">
              <mxPoint x="-20" y="109" />
            </Array>
          </mxGeometry>
        </mxCell>
        <mxCell id="9ud7PtHcqyMA9MNOEAAO-152" value="" style="rounded=0;orthogonalLoop=1;jettySize=auto;html=1;endArrow=halfCircle;endFill=0;endSize=6;strokeWidth=1;sketch=0;exitX=0.5;exitY=0;exitDx=0;exitDy=0;" parent="1" source="9ud7PtHcqyMA9MNOEAAO-33" edge="1">
          <mxGeometry relative="1" as="geometry">
            <mxPoint x="100" y="259" as="sourcePoint" />
            <mxPoint x="215" y="259" as="targetPoint" />
          </mxGeometry>
        </mxCell>
        <mxCell id="9ud7PtHcqyMA9MNOEAAO-153" value="" style="rounded=0;orthogonalLoop=1;jettySize=auto;html=1;endArrow=oval;endFill=0;sketch=0;sourcePerimeterSpacing=0;targetPerimeterSpacing=0;endSize=10;exitX=0.5;exitY=1;exitDx=0;exitDy=0;" parent="1" source="9ud7PtHcqyMA9MNOEAAO-134" edge="1">
          <mxGeometry relative="1" as="geometry">
            <mxPoint x="480" y="259" as="sourcePoint" />
            <mxPoint x="215" y="259" as="targetPoint" />
          </mxGeometry>
        </mxCell>
        <mxCell id="9ud7PtHcqyMA9MNOEAAO-154" value="" style="rounded=0;orthogonalLoop=1;jettySize=auto;html=1;endArrow=halfCircle;endFill=0;endSize=6;strokeWidth=1;sketch=0;exitX=0.442;exitY=-0.017;exitDx=0;exitDy=0;exitPerimeter=0;" parent="1" source="9ud7PtHcqyMA9MNOEAAO-98" edge="1">
          <mxGeometry relative="1" as="geometry">
            <mxPoint x="733.04" y="599" as="sourcePoint" />
            <mxPoint x="733" y="509" as="targetPoint" />
          </mxGeometry>
        </mxCell>
        <mxCell id="9ud7PtHcqyMA9MNOEAAO-155" value="" style="rounded=0;orthogonalLoop=1;jettySize=auto;html=1;endArrow=oval;endFill=0;sketch=0;sourcePerimeterSpacing=0;targetPerimeterSpacing=0;endSize=10;exitX=0.5;exitY=1;exitDx=0;exitDy=0;" parent="1" source="9ud7PtHcqyMA9MNOEAAO-21" edge="1">
          <mxGeometry relative="1" as="geometry">
            <mxPoint x="1000" y="509" as="sourcePoint" />
            <mxPoint x="733" y="509" as="targetPoint" />
          </mxGeometry>
        </mxCell>
        <mxCell id="9ud7PtHcqyMA9MNOEAAO-156" value="" style="rounded=0;orthogonalLoop=1;jettySize=auto;html=1;endArrow=halfCircle;endFill=0;endSize=6;strokeWidth=1;sketch=0;exitX=0.5;exitY=0;exitDx=0;exitDy=0;" parent="1" source="9ud7PtHcqyMA9MNOEAAO-107" edge="1">
          <mxGeometry relative="1" as="geometry">
            <mxPoint x="100" y="649" as="sourcePoint" />
            <mxPoint x="215" y="639" as="targetPoint" />
          </mxGeometry>
        </mxCell>
        <mxCell id="9ud7PtHcqyMA9MNOEAAO-157" value="" style="rounded=0;orthogonalLoop=1;jettySize=auto;html=1;endArrow=oval;endFill=0;sketch=0;sourcePerimeterSpacing=0;targetPerimeterSpacing=0;endSize=10;exitX=0.5;exitY=1;exitDx=0;exitDy=0;" parent="1" source="9ud7PtHcqyMA9MNOEAAO-158" edge="1">
          <mxGeometry relative="1" as="geometry">
            <mxPoint x="215" y="651.5" as="sourcePoint" />
            <mxPoint x="215" y="639" as="targetPoint" />
          </mxGeometry>
        </mxCell>
        <mxCell id="9ud7PtHcqyMA9MNOEAAO-161" value="" style="rounded=0;orthogonalLoop=1;jettySize=auto;html=1;endArrow=halfCircle;endFill=0;endSize=6;strokeWidth=1;sketch=0;exitX=0.5;exitY=0;exitDx=0;exitDy=0;" parent="1" source="9ud7PtHcqyMA9MNOEAAO-116" edge="1">
          <mxGeometry relative="1" as="geometry">
            <mxPoint x="475" y="672" as="sourcePoint" />
            <mxPoint x="475" y="629" as="targetPoint" />
          </mxGeometry>
        </mxCell>
        <mxCell id="9ud7PtHcqyMA9MNOEAAO-162" value="" style="rounded=0;orthogonalLoop=1;jettySize=auto;html=1;endArrow=oval;endFill=0;sketch=0;sourcePerimeterSpacing=0;targetPerimeterSpacing=0;endSize=10;exitX=1;exitY=0.25;exitDx=0;exitDy=0;" parent="1" edge="1">
          <mxGeometry relative="1" as="geometry">
            <mxPoint x="280" y="629" as="sourcePoint" />
            <mxPoint x="475" y="629" as="targetPoint" />
          </mxGeometry>
        </mxCell>
        <mxCell id="9ud7PtHcqyMA9MNOEAAO-164" value="" style="rounded=0;orthogonalLoop=1;jettySize=auto;html=1;endArrow=halfCircle;endFill=0;endSize=6;strokeWidth=1;sketch=0;exitX=0.081;exitY=0.017;exitDx=0;exitDy=0;exitPerimeter=0;" parent="1" source="9ud7PtHcqyMA9MNOEAAO-98" edge="1">
          <mxGeometry relative="1" as="geometry">
            <mxPoint x="690" y="641" as="sourcePoint" />
            <mxPoint x="690" y="559" as="targetPoint" />
          </mxGeometry>
        </mxCell>
        <mxCell id="9ud7PtHcqyMA9MNOEAAO-165" value="" style="rounded=0;orthogonalLoop=1;jettySize=auto;html=1;endArrow=oval;endFill=0;sketch=0;sourcePerimeterSpacing=0;targetPerimeterSpacing=0;endSize=10;exitX=1;exitY=0.25;exitDx=0;exitDy=0;" parent="1" edge="1">
          <mxGeometry relative="1" as="geometry">
            <mxPoint x="280" y="559" as="sourcePoint" />
            <mxPoint x="690" y="559" as="targetPoint" />
          </mxGeometry>
        </mxCell>
        <mxCell id="9ud7PtHcqyMA9MNOEAAO-167" value="" style="rounded=0;orthogonalLoop=1;jettySize=auto;html=1;endArrow=halfCircle;endFill=0;endSize=6;strokeWidth=1;sketch=0;exitX=0.5;exitY=1;exitDx=0;exitDy=0;" parent="1" source="9ud7PtHcqyMA9MNOEAAO-145" edge="1">
          <mxGeometry relative="1" as="geometry">
            <mxPoint x="480" y="909" as="sourcePoint" />
            <mxPoint x="739.83" y="909" as="targetPoint" />
            <Array as="points">
              <mxPoint x="475" y="909" />
            </Array>
          </mxGeometry>
        </mxCell>
        <mxCell id="9ud7PtHcqyMA9MNOEAAO-168" value="" style="rounded=0;orthogonalLoop=1;jettySize=auto;html=1;endArrow=oval;endFill=0;sketch=0;sourcePerimeterSpacing=0;targetPerimeterSpacing=0;endSize=10;exitX=0.5;exitY=1;exitDx=0;exitDy=0;" parent="1" source="9ud7PtHcqyMA9MNOEAAO-105" edge="1">
          <mxGeometry relative="1" as="geometry">
            <mxPoint x="545" y="879" as="sourcePoint" />
            <mxPoint x="740" y="909" as="targetPoint" />
          </mxGeometry>
        </mxCell>
        <mxCell id="9ud7PtHcqyMA9MNOEAAO-170" value="" style="rounded=0;orthogonalLoop=1;jettySize=auto;html=1;endArrow=halfCircle;endFill=0;endSize=6;strokeWidth=1;sketch=0;exitX=0.5;exitY=1;exitDx=0;exitDy=0;" parent="1" source="9ud7PtHcqyMA9MNOEAAO-144" edge="1">
          <mxGeometry relative="1" as="geometry">
            <mxPoint x="520" y="888" as="sourcePoint" />
            <mxPoint x="780.83" y="929" as="targetPoint" />
            <Array as="points">
              <mxPoint x="215" y="929" />
            </Array>
          </mxGeometry>
        </mxCell>
        <mxCell id="9ud7PtHcqyMA9MNOEAAO-171" value="" style="rounded=0;orthogonalLoop=1;jettySize=auto;html=1;endArrow=oval;endFill=0;sketch=0;sourcePerimeterSpacing=0;targetPerimeterSpacing=0;endSize=10;exitX=0.5;exitY=1;exitDx=0;exitDy=0;" parent="1" edge="1">
          <mxGeometry relative="1" as="geometry">
            <mxPoint x="781" y="842" as="sourcePoint" />
            <mxPoint x="781" y="929" as="targetPoint" />
          </mxGeometry>
        </mxCell>
        <mxCell id="9ud7PtHcqyMA9MNOEAAO-172" value="" style="rounded=0;orthogonalLoop=1;jettySize=auto;html=1;endArrow=halfCircle;endFill=0;endSize=6;strokeWidth=1;sketch=0;" parent="1" edge="1">
          <mxGeometry relative="1" as="geometry">
            <mxPoint x="-20" y="929" as="sourcePoint" />
            <mxPoint x="440" y="959" as="targetPoint" />
            <Array as="points">
              <mxPoint x="-20" y="959" />
            </Array>
          </mxGeometry>
        </mxCell>
        <mxCell id="9ud7PtHcqyMA9MNOEAAO-173" value="" style="rounded=0;orthogonalLoop=1;jettySize=auto;html=1;endArrow=oval;endFill=0;sketch=0;sourcePerimeterSpacing=0;targetPerimeterSpacing=0;endSize=10;exitX=0.25;exitY=1;exitDx=0;exitDy=0;" parent="1" source="9ud7PtHcqyMA9MNOEAAO-145" edge="1">
          <mxGeometry relative="1" as="geometry">
            <mxPoint x="441" y="889" as="sourcePoint" />
            <mxPoint x="440" y="959" as="targetPoint" />
          </mxGeometry>
        </mxCell>
        <mxCell id="9ud7PtHcqyMA9MNOEAAO-174" value="" style="rounded=0;orthogonalLoop=1;jettySize=auto;html=1;endArrow=halfCircle;endFill=0;endSize=6;strokeWidth=1;sketch=0;" parent="1" edge="1">
          <mxGeometry relative="1" as="geometry">
            <mxPoint x="-20" y="929" as="sourcePoint" />
            <mxPoint x="182" y="929" as="targetPoint" />
            <Array as="points" />
          </mxGeometry>
        </mxCell>
        <mxCell id="9ud7PtHcqyMA9MNOEAAO-175" value="" style="rounded=0;orthogonalLoop=1;jettySize=auto;html=1;endArrow=oval;endFill=0;sketch=0;sourcePerimeterSpacing=0;targetPerimeterSpacing=0;endSize=10;exitX=0.245;exitY=1.029;exitDx=0;exitDy=0;exitPerimeter=0;" parent="1" source="9ud7PtHcqyMA9MNOEAAO-144" edge="1">
          <mxGeometry relative="1" as="geometry">
            <mxPoint x="182" y="899" as="sourcePoint" />
            <mxPoint x="182" y="929" as="targetPoint" />
          </mxGeometry>
        </mxCell>
        <mxCell id="9ud7PtHcqyMA9MNOEAAO-176" value="" style="rounded=0;orthogonalLoop=1;jettySize=auto;html=1;endArrow=halfCircle;endFill=0;endSize=6;strokeWidth=1;sketch=0;exitX=0.25;exitY=0;exitDx=0;exitDy=0;" parent="1" source="9ud7PtHcqyMA9MNOEAAO-33" edge="1">
          <mxGeometry relative="1" as="geometry">
            <mxPoint x="-230" y="172" as="sourcePoint" />
            <mxPoint x="30" y="259" as="targetPoint" />
            <Array as="points">
              <mxPoint x="183" y="259" />
            </Array>
          </mxGeometry>
        </mxCell>
        <mxCell id="9ud7PtHcqyMA9MNOEAAO-177" value="" style="rounded=0;orthogonalLoop=1;jettySize=auto;html=1;endArrow=oval;endFill=0;sketch=0;sourcePerimeterSpacing=0;targetPerimeterSpacing=0;endSize=10;" parent="1" edge="1">
          <mxGeometry relative="1" as="geometry">
            <mxPoint x="-20" y="259" as="sourcePoint" />
            <mxPoint x="30" y="259" as="targetPoint" />
            <Array as="points">
              <mxPoint x="-20" y="259" />
            </Array>
          </mxGeometry>
        </mxCell>
        <mxCell id="v09aj6478rrVFZpmlRXY-84" value="" style="fontStyle=1;align=center;verticalAlign=top;childLayout=stackLayout;horizontal=1;horizontalStack=0;resizeParent=1;resizeParentMax=0;resizeLast=0;marginBottom=0;" parent="1" vertex="1">
          <mxGeometry x="-310" y="109" width="140" height="108" as="geometry" />
        </mxCell>
        <mxCell id="v09aj6478rrVFZpmlRXY-85" value="&lt;b&gt;RSLiDAR SDK&lt;/b&gt;" style="html=1;align=left;spacingLeft=4;verticalAlign=top;strokeColor=none;fillColor=none;whiteSpace=wrap;" parent="v09aj6478rrVFZpmlRXY-84" vertex="1">
          <mxGeometry width="140" height="40" as="geometry" />
        </mxCell>
        <mxCell id="v09aj6478rrVFZpmlRXY-86" value="" style="shape=module;jettyWidth=10;jettyHeight=4;" parent="v09aj6478rrVFZpmlRXY-85" vertex="1">
          <mxGeometry x="1" width="16" height="20" relative="1" as="geometry">
            <mxPoint x="-25" y="9" as="offset" />
          </mxGeometry>
        </mxCell>
        <mxCell id="v09aj6478rrVFZpmlRXY-87" value="" style="line;strokeWidth=1;fillColor=none;align=left;verticalAlign=middle;spacingTop=-1;spacingLeft=3;spacingRight=3;rotatable=0;labelPosition=right;points=[];portConstraint=eastwest;" parent="v09aj6478rrVFZpmlRXY-84" vertex="1">
          <mxGeometry y="40" width="140" height="8" as="geometry" />
        </mxCell>
        <mxCell id="v09aj6478rrVFZpmlRXY-88" value="&lt;b style=&quot;&quot;&gt;provided interfaces&lt;/b&gt;" style="html=1;align=center;spacingLeft=4;verticalAlign=top;strokeColor=none;fillColor=none;whiteSpace=wrap;" parent="v09aj6478rrVFZpmlRXY-84" vertex="1">
          <mxGeometry y="48" width="140" height="25" as="geometry" />
        </mxCell>
        <mxCell id="v09aj6478rrVFZpmlRXY-89" value="3D Point Cloud" style="html=1;align=left;spacingLeft=4;verticalAlign=top;strokeColor=none;fillColor=none;whiteSpace=wrap;" parent="v09aj6478rrVFZpmlRXY-84" vertex="1">
          <mxGeometry y="73" width="140" height="27" as="geometry" />
        </mxCell>
        <mxCell id="v09aj6478rrVFZpmlRXY-90" value="" style="line;strokeWidth=1;fillColor=none;align=left;verticalAlign=middle;spacingTop=-1;spacingLeft=3;spacingRight=3;rotatable=0;labelPosition=right;points=[];portConstraint=eastwest;" parent="v09aj6478rrVFZpmlRXY-84" vertex="1">
          <mxGeometry y="100" width="140" height="8" as="geometry" />
        </mxCell>
        <mxCell id="v09aj6478rrVFZpmlRXY-94" value="" style="fontStyle=1;align=center;verticalAlign=top;childLayout=stackLayout;horizontal=1;horizontalStack=0;resizeParent=1;resizeParentMax=0;resizeLast=0;marginBottom=0;spacingLeft=4;spacingRight=4;fontFamily=Helvetica;fontSize=12;fontColor=default;fillColor=none;gradientColor=none;html=1;" parent="1" vertex="1">
          <mxGeometry x="-310" y="277.5" width="140" height="298" as="geometry" />
        </mxCell>
        <mxCell id="v09aj6478rrVFZpmlRXY-95" value="ROS-CAN" style="html=1;align=left;spacingLeft=4;verticalAlign=top;strokeColor=none;fillColor=none;whiteSpace=wrap;spacingRight=4;fontFamily=Helvetica;fontSize=12;fontColor=default;fontStyle=1" parent="v09aj6478rrVFZpmlRXY-94" vertex="1">
          <mxGeometry width="140" height="40" as="geometry" />
        </mxCell>
        <mxCell id="v09aj6478rrVFZpmlRXY-96" value="" style="shape=module;jettyWidth=10;jettyHeight=4;align=left;verticalAlign=top;spacingLeft=4;spacingRight=4;fontFamily=Helvetica;fontSize=12;fontColor=default;fillColor=none;gradientColor=none;html=1;" parent="v09aj6478rrVFZpmlRXY-95" vertex="1">
          <mxGeometry x="1" width="16" height="20" relative="1" as="geometry">
            <mxPoint x="-25" y="9" as="offset" />
          </mxGeometry>
        </mxCell>
        <mxCell id="v09aj6478rrVFZpmlRXY-97" value="" style="line;strokeWidth=1;fillColor=none;align=left;verticalAlign=middle;spacingTop=-1;spacingLeft=3;spacingRight=3;rotatable=0;labelPosition=right;points=[];portConstraint=eastwest;fontFamily=Helvetica;fontSize=12;fontColor=default;html=1;" parent="v09aj6478rrVFZpmlRXY-94" vertex="1">
          <mxGeometry y="40" width="140" height="8" as="geometry" />
        </mxCell>
        <mxCell id="v09aj6478rrVFZpmlRXY-98" value="provided interfaces" style="html=1;align=center;spacingLeft=4;verticalAlign=top;strokeColor=none;fillColor=none;whiteSpace=wrap;spacingRight=4;fontFamily=Helvetica;fontSize=12;fontColor=default;fontStyle=1" parent="v09aj6478rrVFZpmlRXY-94" vertex="1">
          <mxGeometry y="48" width="140" height="25" as="geometry" />
        </mxCell>
        <mxCell id="v09aj6478rrVFZpmlRXY-99" value="Go" style="html=1;align=left;spacingLeft=4;verticalAlign=top;strokeColor=none;fillColor=none;whiteSpace=wrap;spacingRight=4;fontFamily=Helvetica;fontSize=12;fontColor=default;" parent="v09aj6478rrVFZpmlRXY-94" vertex="1">
          <mxGeometry y="73" width="140" height="30" as="geometry" />
        </mxCell>
        <mxCell id="v09aj6478rrVFZpmlRXY-100" value="Wheel States" style="html=1;align=left;spacingLeft=4;verticalAlign=top;strokeColor=none;fillColor=none;whiteSpace=wrap;spacingRight=4;fontFamily=Helvetica;fontSize=12;fontColor=default;" parent="v09aj6478rrVFZpmlRXY-94" vertex="1">
          <mxGeometry y="103" width="140" height="30" as="geometry" />
        </mxCell>
        <mxCell id="v09aj6478rrVFZpmlRXY-102" value="3-Axis IMU" style="html=1;align=left;spacingLeft=4;verticalAlign=top;strokeColor=none;fillColor=none;whiteSpace=wrap;spacingRight=4;fontFamily=Helvetica;fontSize=12;fontColor=default;" parent="v09aj6478rrVFZpmlRXY-94" vertex="1">
          <mxGeometry y="133" width="140" height="30" as="geometry" />
        </mxCell>
        <mxCell id="v09aj6478rrVFZpmlRXY-105" value="" style="line;strokeWidth=1;fillColor=none;align=left;verticalAlign=middle;spacingTop=-1;spacingLeft=3;spacingRight=3;rotatable=0;labelPosition=right;points=[];portConstraint=eastwest;fontFamily=Helvetica;fontSize=12;fontColor=default;html=1;" parent="v09aj6478rrVFZpmlRXY-94" vertex="1">
          <mxGeometry y="163" width="140" height="8" as="geometry" />
        </mxCell>
        <mxCell id="v09aj6478rrVFZpmlRXY-106" value="required interfaces" style="html=1;align=center;spacingLeft=4;verticalAlign=top;strokeColor=none;fillColor=none;whiteSpace=wrap;spacingRight=4;fontFamily=Helvetica;fontSize=12;fontColor=default;fontStyle=1" parent="v09aj6478rrVFZpmlRXY-94" vertex="1">
          <mxGeometry y="171" width="140" height="25" as="geometry" />
        </mxCell>
        <mxCell id="v09aj6478rrVFZpmlRXY-107" value="Steering Command" style="html=1;align=left;spacingLeft=4;verticalAlign=top;strokeColor=none;fillColor=none;whiteSpace=wrap;spacingRight=4;fontFamily=Helvetica;fontSize=12;fontColor=default;" parent="v09aj6478rrVFZpmlRXY-94" vertex="1">
          <mxGeometry y="196" width="140" height="25" as="geometry" />
        </mxCell>
        <mxCell id="v09aj6478rrVFZpmlRXY-108" value="Emergency" style="html=1;align=left;spacingLeft=4;verticalAlign=top;strokeColor=none;fillColor=none;whiteSpace=wrap;spacingRight=4;fontFamily=Helvetica;fontSize=12;fontColor=default;" parent="v09aj6478rrVFZpmlRXY-94" vertex="1">
          <mxGeometry y="221" width="140" height="25" as="geometry" />
        </mxCell>
        <mxCell id="v09aj6478rrVFZpmlRXY-109" value="Mission Finished" style="html=1;align=left;spacingLeft=4;verticalAlign=top;strokeColor=none;fillColor=none;whiteSpace=wrap;" parent="v09aj6478rrVFZpmlRXY-94" vertex="1">
          <mxGeometry y="246" width="140" height="27" as="geometry" />
        </mxCell>
        <mxCell id="v09aj6478rrVFZpmlRXY-110" value="Throttle Command" style="html=1;align=left;spacingLeft=4;verticalAlign=top;strokeColor=none;fillColor=none;whiteSpace=wrap;spacingRight=4;fontFamily=Helvetica;fontSize=12;fontColor=default;" parent="v09aj6478rrVFZpmlRXY-94" vertex="1">
          <mxGeometry y="273" width="140" height="25" as="geometry" />
        </mxCell>
        <mxCell id="v09aj6478rrVFZpmlRXY-114" value="" style="endArrow=none;dashed=1;html=1;rounded=0;exitX=0.5;exitY=0;exitDx=0;exitDy=0;" parent="1" source="9ud7PtHcqyMA9MNOEAAO-65" edge="1">
          <mxGeometry width="50" height="50" relative="1" as="geometry">
            <mxPoint x="-70" y="309" as="sourcePoint" />
            <mxPoint x="-20" y="259" as="targetPoint" />
          </mxGeometry>
        </mxCell>
        <mxCell id="v09aj6478rrVFZpmlRXY-115" value="" style="endArrow=none;dashed=1;html=1;rounded=0;" parent="1" edge="1">
          <mxGeometry width="50" height="50" relative="1" as="geometry">
            <mxPoint x="-240" y="259" as="sourcePoint" />
            <mxPoint x="-20" y="259" as="targetPoint" />
          </mxGeometry>
        </mxCell>
        <mxCell id="v09aj6478rrVFZpmlRXY-116" value="" style="endArrow=none;dashed=1;html=1;rounded=0;exitX=0.5;exitY=1;exitDx=0;exitDy=0;" parent="1" source="9ud7PtHcqyMA9MNOEAAO-71" edge="1">
          <mxGeometry width="50" height="50" relative="1" as="geometry">
            <mxPoint x="-180" y="769" as="sourcePoint" />
            <mxPoint x="-20" y="929" as="targetPoint" />
          </mxGeometry>
        </mxCell>
        <mxCell id="v09aj6478rrVFZpmlRXY-117" value="" style="endArrow=none;dashed=1;html=1;rounded=0;exitX=0.5;exitY=1;exitDx=0;exitDy=0;" parent="1" source="v09aj6478rrVFZpmlRXY-94" edge="1">
          <mxGeometry width="50" height="50" relative="1" as="geometry">
            <mxPoint x="-240" y="929" as="sourcePoint" />
            <mxPoint x="-20" y="929" as="targetPoint" />
            <Array as="points">
              <mxPoint x="-240" y="929" />
            </Array>
          </mxGeometry>
        </mxCell>
        <mxCell id="v09aj6478rrVFZpmlRXY-118" value="" style="endArrow=none;dashed=1;html=1;rounded=0;entryX=0.5;entryY=0;entryDx=0;entryDy=0;" parent="1" target="v09aj6478rrVFZpmlRXY-95" edge="1">
          <mxGeometry width="50" height="50" relative="1" as="geometry">
            <mxPoint x="-240" y="259" as="sourcePoint" />
            <mxPoint x="-10" y="269" as="targetPoint" />
          </mxGeometry>
        </mxCell>
        <mxCell id="v09aj6478rrVFZpmlRXY-119" value="" style="endArrow=none;dashed=1;html=1;rounded=0;exitX=0.5;exitY=1;exitDx=0;exitDy=0;" parent="1" source="v09aj6478rrVFZpmlRXY-84" edge="1">
          <mxGeometry width="50" height="50" relative="1" as="geometry">
            <mxPoint x="-240" y="242" as="sourcePoint" />
            <mxPoint x="-240" y="259" as="targetPoint" />
          </mxGeometry>
        </mxCell>
        <mxCell id="v09aj6478rrVFZpmlRXY-124" value="&lt;b&gt;FSFEUP 01&lt;/b&gt;" style="shape=umlFrame;whiteSpace=wrap;html=1;pointerEvents=0;recursiveResize=0;container=1;collapsible=0;width=160;" parent="1" vertex="1">
          <mxGeometry x="-330" y="62" width="200" height="617" as="geometry" />
        </mxCell>
        <mxCell id="v09aj6478rrVFZpmlRXY-125" value="&lt;b&gt;FSDS&lt;/b&gt;" style="shape=umlFrame;whiteSpace=wrap;html=1;pointerEvents=0;recursiveResize=0;container=1;collapsible=0;width=160;" parent="1" vertex="1">
          <mxGeometry x="-110" y="62" width="200" height="617" as="geometry" />
        </mxCell>
        <mxCell id="v09aj6478rrVFZpmlRXY-126" value="" style="shape=table;startSize=0;container=1;collapsible=0;childLayout=tableLayout;fontSize=16;" parent="1" vertex="1">
          <mxGeometry x="-1540" y="50" width="1070" height="590" as="geometry" />
        </mxCell>
        <mxCell id="v09aj6478rrVFZpmlRXY-127" value="" style="shape=tableRow;horizontal=0;startSize=0;swimlaneHead=0;swimlaneBody=0;strokeColor=inherit;top=0;left=0;bottom=0;right=0;collapsible=0;dropTarget=0;fillColor=none;points=[[0,0.5],[1,0.5]];portConstraint=eastwest;fontSize=16;" parent="v09aj6478rrVFZpmlRXY-126" vertex="1">
          <mxGeometry width="1070" height="40" as="geometry" />
        </mxCell>
        <mxCell id="v09aj6478rrVFZpmlRXY-128" value="&lt;b&gt;Name&lt;/b&gt;" style="shape=partialRectangle;html=1;whiteSpace=wrap;connectable=0;strokeColor=inherit;overflow=hidden;fillColor=none;top=0;left=0;bottom=0;right=0;pointerEvents=1;fontSize=16;" parent="v09aj6478rrVFZpmlRXY-127" vertex="1">
          <mxGeometry width="140" height="40" as="geometry">
            <mxRectangle width="140" height="40" as="alternateBounds" />
          </mxGeometry>
        </mxCell>
        <mxCell id="v09aj6478rrVFZpmlRXY-129" value="&lt;b&gt;FSDS Channel&lt;/b&gt;" style="shape=partialRectangle;html=1;whiteSpace=wrap;connectable=0;strokeColor=inherit;overflow=hidden;fillColor=none;top=0;left=0;bottom=0;right=0;pointerEvents=1;fontSize=16;" parent="v09aj6478rrVFZpmlRXY-127" vertex="1">
          <mxGeometry x="140" width="330" height="40" as="geometry">
            <mxRectangle width="330" height="40" as="alternateBounds" />
          </mxGeometry>
        </mxCell>
        <mxCell id="v09aj6478rrVFZpmlRXY-130" value="&lt;b&gt;FSFEUP 01 Channel&lt;/b&gt;" style="shape=partialRectangle;html=1;whiteSpace=wrap;connectable=0;strokeColor=inherit;overflow=hidden;fillColor=none;top=0;left=0;bottom=0;right=0;pointerEvents=1;fontSize=16;" parent="v09aj6478rrVFZpmlRXY-127" vertex="1">
          <mxGeometry x="470" width="150" height="40" as="geometry">
            <mxRectangle width="150" height="40" as="alternateBounds" />
          </mxGeometry>
        </mxCell>
        <mxCell id="v09aj6478rrVFZpmlRXY-139" value="&lt;b&gt;Description&lt;/b&gt;" style="shape=partialRectangle;html=1;whiteSpace=wrap;connectable=0;strokeColor=inherit;overflow=hidden;fillColor=none;top=0;left=0;bottom=0;right=0;pointerEvents=1;fontSize=16;" parent="v09aj6478rrVFZpmlRXY-127" vertex="1">
          <mxGeometry x="620" width="250" height="40" as="geometry">
            <mxRectangle width="250" height="40" as="alternateBounds" />
          </mxGeometry>
        </mxCell>
        <mxCell id="v09aj6478rrVFZpmlRXY-209" value="&lt;b&gt;Channel Type&lt;/b&gt;" style="shape=partialRectangle;html=1;whiteSpace=wrap;connectable=0;strokeColor=inherit;overflow=hidden;fillColor=none;top=0;left=0;bottom=0;right=0;pointerEvents=1;fontSize=16;" parent="v09aj6478rrVFZpmlRXY-127" vertex="1">
          <mxGeometry x="870" width="200" height="40" as="geometry">
            <mxRectangle width="200" height="40" as="alternateBounds" />
          </mxGeometry>
        </mxCell>
        <mxCell id="v09aj6478rrVFZpmlRXY-131" value="" style="shape=tableRow;horizontal=0;startSize=0;swimlaneHead=0;swimlaneBody=0;strokeColor=inherit;top=0;left=0;bottom=0;right=0;collapsible=0;dropTarget=0;fillColor=none;points=[[0,0.5],[1,0.5]];portConstraint=eastwest;fontSize=16;" parent="v09aj6478rrVFZpmlRXY-126" vertex="1">
          <mxGeometry y="40" width="1070" height="40" as="geometry" />
        </mxCell>
        <mxCell id="v09aj6478rrVFZpmlRXY-132" value="3D Point Cloud" style="shape=partialRectangle;html=1;whiteSpace=wrap;connectable=0;strokeColor=inherit;overflow=hidden;fillColor=none;top=0;left=0;bottom=0;right=0;pointerEvents=1;fontSize=16;" parent="v09aj6478rrVFZpmlRXY-131" vertex="1">
          <mxGeometry width="140" height="40" as="geometry">
            <mxRectangle width="140" height="40" as="alternateBounds" />
          </mxGeometry>
        </mxCell>
        <mxCell id="v09aj6478rrVFZpmlRXY-133" value="/lidar/Lidar1: sensor_msgs/msg/PointCloud2" style="shape=partialRectangle;html=1;whiteSpace=wrap;connectable=0;strokeColor=inherit;overflow=hidden;fillColor=none;top=0;left=0;bottom=0;right=0;pointerEvents=1;fontSize=16;" parent="v09aj6478rrVFZpmlRXY-131" vertex="1">
          <mxGeometry x="140" width="330" height="40" as="geometry">
            <mxRectangle width="330" height="40" as="alternateBounds" />
          </mxGeometry>
        </mxCell>
        <mxCell id="v09aj6478rrVFZpmlRXY-134" value="" style="shape=partialRectangle;html=1;whiteSpace=wrap;connectable=0;strokeColor=inherit;overflow=hidden;fillColor=none;top=0;left=0;bottom=0;right=0;pointerEvents=1;fontSize=16;" parent="v09aj6478rrVFZpmlRXY-131" vertex="1">
          <mxGeometry x="470" width="150" height="40" as="geometry">
            <mxRectangle width="150" height="40" as="alternateBounds" />
          </mxGeometry>
        </mxCell>
        <mxCell id="v09aj6478rrVFZpmlRXY-140" style="shape=partialRectangle;html=1;whiteSpace=wrap;connectable=0;strokeColor=inherit;overflow=hidden;fillColor=none;top=0;left=0;bottom=0;right=0;pointerEvents=1;fontSize=16;" parent="v09aj6478rrVFZpmlRXY-131" vertex="1">
          <mxGeometry x="620" width="250" height="40" as="geometry">
            <mxRectangle width="250" height="40" as="alternateBounds" />
          </mxGeometry>
        </mxCell>
        <mxCell id="v09aj6478rrVFZpmlRXY-210" value="Topic" style="shape=partialRectangle;html=1;whiteSpace=wrap;connectable=0;strokeColor=inherit;overflow=hidden;fillColor=none;top=0;left=0;bottom=0;right=0;pointerEvents=1;fontSize=16;" parent="v09aj6478rrVFZpmlRXY-131" vertex="1">
          <mxGeometry x="870" width="200" height="40" as="geometry">
            <mxRectangle width="200" height="40" as="alternateBounds" />
          </mxGeometry>
        </mxCell>
        <mxCell id="v09aj6478rrVFZpmlRXY-135" value="" style="shape=tableRow;horizontal=0;startSize=0;swimlaneHead=0;swimlaneBody=0;strokeColor=inherit;top=0;left=0;bottom=0;right=0;collapsible=0;dropTarget=0;fillColor=none;points=[[0,0.5],[1,0.5]];portConstraint=eastwest;fontSize=16;" parent="v09aj6478rrVFZpmlRXY-126" vertex="1">
          <mxGeometry y="80" width="1070" height="40" as="geometry" />
        </mxCell>
        <mxCell id="v09aj6478rrVFZpmlRXY-136" value="3-Axis IMU" style="shape=partialRectangle;html=1;whiteSpace=wrap;connectable=0;strokeColor=inherit;overflow=hidden;fillColor=none;top=0;left=0;bottom=0;right=0;pointerEvents=1;fontSize=16;" parent="v09aj6478rrVFZpmlRXY-135" vertex="1">
          <mxGeometry width="140" height="40" as="geometry">
            <mxRectangle width="140" height="40" as="alternateBounds" />
          </mxGeometry>
        </mxCell>
        <mxCell id="v09aj6478rrVFZpmlRXY-137" value="/imu: sensor_msgs/msg/IMU" style="shape=partialRectangle;html=1;whiteSpace=wrap;connectable=0;strokeColor=inherit;overflow=hidden;fillColor=none;top=0;left=0;bottom=0;right=0;pointerEvents=1;fontSize=16;" parent="v09aj6478rrVFZpmlRXY-135" vertex="1">
          <mxGeometry x="140" width="330" height="40" as="geometry">
            <mxRectangle width="330" height="40" as="alternateBounds" />
          </mxGeometry>
        </mxCell>
        <mxCell id="v09aj6478rrVFZpmlRXY-138" value="" style="shape=partialRectangle;html=1;whiteSpace=wrap;connectable=0;strokeColor=inherit;overflow=hidden;fillColor=none;top=0;left=0;bottom=0;right=0;pointerEvents=1;fontSize=16;" parent="v09aj6478rrVFZpmlRXY-135" vertex="1">
          <mxGeometry x="470" width="150" height="40" as="geometry">
            <mxRectangle width="150" height="40" as="alternateBounds" />
          </mxGeometry>
        </mxCell>
        <mxCell id="v09aj6478rrVFZpmlRXY-141" value="Accelerations and Angular Velocities" style="shape=partialRectangle;html=1;whiteSpace=wrap;connectable=0;strokeColor=inherit;overflow=hidden;fillColor=none;top=0;left=0;bottom=0;right=0;pointerEvents=1;fontSize=16;" parent="v09aj6478rrVFZpmlRXY-135" vertex="1">
          <mxGeometry x="620" width="250" height="40" as="geometry">
            <mxRectangle width="250" height="40" as="alternateBounds" />
          </mxGeometry>
        </mxCell>
        <mxCell id="v09aj6478rrVFZpmlRXY-211" value="Topic" style="shape=partialRectangle;html=1;whiteSpace=wrap;connectable=0;strokeColor=inherit;overflow=hidden;fillColor=none;top=0;left=0;bottom=0;right=0;pointerEvents=1;fontSize=16;" parent="v09aj6478rrVFZpmlRXY-135" vertex="1">
          <mxGeometry x="870" width="200" height="40" as="geometry">
            <mxRectangle width="200" height="40" as="alternateBounds" />
          </mxGeometry>
        </mxCell>
        <mxCell id="v09aj6478rrVFZpmlRXY-167" style="shape=tableRow;horizontal=0;startSize=0;swimlaneHead=0;swimlaneBody=0;strokeColor=inherit;top=0;left=0;bottom=0;right=0;collapsible=0;dropTarget=0;fillColor=none;points=[[0,0.5],[1,0.5]];portConstraint=eastwest;fontSize=16;" parent="v09aj6478rrVFZpmlRXY-126" vertex="1">
          <mxGeometry y="120" width="1070" height="40" as="geometry" />
        </mxCell>
        <mxCell id="v09aj6478rrVFZpmlRXY-168" value="Wheel States" style="shape=partialRectangle;html=1;whiteSpace=wrap;connectable=0;strokeColor=inherit;overflow=hidden;fillColor=none;top=0;left=0;bottom=0;right=0;pointerEvents=1;fontSize=16;" parent="v09aj6478rrVFZpmlRXY-167" vertex="1">
          <mxGeometry width="140" height="40" as="geometry">
            <mxRectangle width="140" height="40" as="alternateBounds" />
          </mxGeometry>
        </mxCell>
        <mxCell id="v09aj6478rrVFZpmlRXY-169" value="/wheel_states: fs_msgs/msg/WheelStates" style="shape=partialRectangle;html=1;whiteSpace=wrap;connectable=0;strokeColor=inherit;overflow=hidden;fillColor=none;top=0;left=0;bottom=0;right=0;pointerEvents=1;fontSize=16;" parent="v09aj6478rrVFZpmlRXY-167" vertex="1">
          <mxGeometry x="140" width="330" height="40" as="geometry">
            <mxRectangle width="330" height="40" as="alternateBounds" />
          </mxGeometry>
        </mxCell>
        <mxCell id="v09aj6478rrVFZpmlRXY-170" style="shape=partialRectangle;html=1;whiteSpace=wrap;connectable=0;strokeColor=inherit;overflow=hidden;fillColor=none;top=0;left=0;bottom=0;right=0;pointerEvents=1;fontSize=16;" parent="v09aj6478rrVFZpmlRXY-167" vertex="1">
          <mxGeometry x="470" width="150" height="40" as="geometry">
            <mxRectangle width="150" height="40" as="alternateBounds" />
          </mxGeometry>
        </mxCell>
        <mxCell id="v09aj6478rrVFZpmlRXY-171" value="Wheel Speeds and Steering Angle" style="shape=partialRectangle;html=1;whiteSpace=wrap;connectable=0;strokeColor=inherit;overflow=hidden;fillColor=none;top=0;left=0;bottom=0;right=0;pointerEvents=1;fontSize=16;" parent="v09aj6478rrVFZpmlRXY-167" vertex="1">
          <mxGeometry x="620" width="250" height="40" as="geometry">
            <mxRectangle width="250" height="40" as="alternateBounds" />
          </mxGeometry>
        </mxCell>
        <mxCell id="v09aj6478rrVFZpmlRXY-212" value="Topic" style="shape=partialRectangle;html=1;whiteSpace=wrap;connectable=0;strokeColor=inherit;overflow=hidden;fillColor=none;top=0;left=0;bottom=0;right=0;pointerEvents=1;fontSize=16;" parent="v09aj6478rrVFZpmlRXY-167" vertex="1">
          <mxGeometry x="870" width="200" height="40" as="geometry">
            <mxRectangle width="200" height="40" as="alternateBounds" />
          </mxGeometry>
        </mxCell>
        <mxCell id="v09aj6478rrVFZpmlRXY-162" style="shape=tableRow;horizontal=0;startSize=0;swimlaneHead=0;swimlaneBody=0;strokeColor=inherit;top=0;left=0;bottom=0;right=0;collapsible=0;dropTarget=0;fillColor=none;points=[[0,0.5],[1,0.5]];portConstraint=eastwest;fontSize=16;" parent="v09aj6478rrVFZpmlRXY-126" vertex="1">
          <mxGeometry y="160" width="1070" height="40" as="geometry" />
        </mxCell>
        <mxCell id="v09aj6478rrVFZpmlRXY-163" value="Mission Finished" style="shape=partialRectangle;html=1;whiteSpace=wrap;connectable=0;strokeColor=inherit;overflow=hidden;fillColor=none;top=0;left=0;bottom=0;right=0;pointerEvents=1;fontSize=16;" parent="v09aj6478rrVFZpmlRXY-162" vertex="1">
          <mxGeometry width="140" height="40" as="geometry">
            <mxRectangle width="140" height="40" as="alternateBounds" />
          </mxGeometry>
        </mxCell>
        <mxCell id="v09aj6478rrVFZpmlRXY-164" value="/signal/finished: fs_msgs/msg/FinishedSignal" style="shape=partialRectangle;html=1;whiteSpace=wrap;connectable=0;strokeColor=inherit;overflow=hidden;fillColor=none;top=0;left=0;bottom=0;right=0;pointerEvents=1;fontSize=16;" parent="v09aj6478rrVFZpmlRXY-162" vertex="1">
          <mxGeometry x="140" width="330" height="40" as="geometry">
            <mxRectangle width="330" height="40" as="alternateBounds" />
          </mxGeometry>
        </mxCell>
        <mxCell id="v09aj6478rrVFZpmlRXY-165" style="shape=partialRectangle;html=1;whiteSpace=wrap;connectable=0;strokeColor=inherit;overflow=hidden;fillColor=none;top=0;left=0;bottom=0;right=0;pointerEvents=1;fontSize=16;" parent="v09aj6478rrVFZpmlRXY-162" vertex="1">
          <mxGeometry x="470" width="150" height="40" as="geometry">
            <mxRectangle width="150" height="40" as="alternateBounds" />
          </mxGeometry>
        </mxCell>
        <mxCell id="v09aj6478rrVFZpmlRXY-166" value="Tells if the mission has been finished or not" style="shape=partialRectangle;html=1;whiteSpace=wrap;connectable=0;strokeColor=inherit;overflow=hidden;fillColor=none;top=0;left=0;bottom=0;right=0;pointerEvents=1;fontSize=16;" parent="v09aj6478rrVFZpmlRXY-162" vertex="1">
          <mxGeometry x="620" width="250" height="40" as="geometry">
            <mxRectangle width="250" height="40" as="alternateBounds" />
          </mxGeometry>
        </mxCell>
        <mxCell id="v09aj6478rrVFZpmlRXY-213" value="Topic" style="shape=partialRectangle;html=1;whiteSpace=wrap;connectable=0;strokeColor=inherit;overflow=hidden;fillColor=none;top=0;left=0;bottom=0;right=0;pointerEvents=1;fontSize=16;" parent="v09aj6478rrVFZpmlRXY-162" vertex="1">
          <mxGeometry x="870" width="200" height="40" as="geometry">
            <mxRectangle width="200" height="40" as="alternateBounds" />
          </mxGeometry>
        </mxCell>
        <mxCell id="v09aj6478rrVFZpmlRXY-157" style="shape=tableRow;horizontal=0;startSize=0;swimlaneHead=0;swimlaneBody=0;strokeColor=inherit;top=0;left=0;bottom=0;right=0;collapsible=0;dropTarget=0;fillColor=none;points=[[0,0.5],[1,0.5]];portConstraint=eastwest;fontSize=16;" parent="v09aj6478rrVFZpmlRXY-126" vertex="1">
          <mxGeometry y="200" width="1070" height="70" as="geometry" />
        </mxCell>
        <mxCell id="v09aj6478rrVFZpmlRXY-158" value="Go" style="shape=partialRectangle;html=1;whiteSpace=wrap;connectable=0;strokeColor=inherit;overflow=hidden;fillColor=none;top=0;left=0;bottom=0;right=0;pointerEvents=1;fontSize=16;" parent="v09aj6478rrVFZpmlRXY-157" vertex="1">
          <mxGeometry width="140" height="70" as="geometry">
            <mxRectangle width="140" height="70" as="alternateBounds" />
          </mxGeometry>
        </mxCell>
        <mxCell id="v09aj6478rrVFZpmlRXY-159" value="/signal/go: fs_msgs/msg/GoSignal" style="shape=partialRectangle;html=1;whiteSpace=wrap;connectable=0;strokeColor=inherit;overflow=hidden;fillColor=none;top=0;left=0;bottom=0;right=0;pointerEvents=1;fontSize=16;" parent="v09aj6478rrVFZpmlRXY-157" vertex="1">
          <mxGeometry x="140" width="330" height="70" as="geometry">
            <mxRectangle width="330" height="70" as="alternateBounds" />
          </mxGeometry>
        </mxCell>
        <mxCell id="v09aj6478rrVFZpmlRXY-160" value="" style="shape=partialRectangle;html=1;whiteSpace=wrap;connectable=0;strokeColor=inherit;overflow=hidden;fillColor=none;top=0;left=0;bottom=0;right=0;pointerEvents=1;fontSize=16;" parent="v09aj6478rrVFZpmlRXY-157" vertex="1">
          <mxGeometry x="470" width="150" height="70" as="geometry">
            <mxRectangle width="150" height="70" as="alternateBounds" />
          </mxGeometry>
        </mxCell>
        <mxCell id="v09aj6478rrVFZpmlRXY-161" value="Tells if the vehicle is on driving mode or not and what mission it is" style="shape=partialRectangle;html=1;whiteSpace=wrap;connectable=0;strokeColor=inherit;overflow=hidden;fillColor=none;top=0;left=0;bottom=0;right=0;pointerEvents=1;fontSize=16;" parent="v09aj6478rrVFZpmlRXY-157" vertex="1">
          <mxGeometry x="620" width="250" height="70" as="geometry">
            <mxRectangle width="250" height="70" as="alternateBounds" />
          </mxGeometry>
        </mxCell>
        <mxCell id="v09aj6478rrVFZpmlRXY-214" value="Topic" style="shape=partialRectangle;html=1;whiteSpace=wrap;connectable=0;strokeColor=inherit;overflow=hidden;fillColor=none;top=0;left=0;bottom=0;right=0;pointerEvents=1;fontSize=16;" parent="v09aj6478rrVFZpmlRXY-157" vertex="1">
          <mxGeometry x="870" width="200" height="70" as="geometry">
            <mxRectangle width="200" height="70" as="alternateBounds" />
          </mxGeometry>
        </mxCell>
        <mxCell id="v09aj6478rrVFZpmlRXY-152" style="shape=tableRow;horizontal=0;startSize=0;swimlaneHead=0;swimlaneBody=0;strokeColor=inherit;top=0;left=0;bottom=0;right=0;collapsible=0;dropTarget=0;fillColor=none;points=[[0,0.5],[1,0.5]];portConstraint=eastwest;fontSize=16;" parent="v09aj6478rrVFZpmlRXY-126" vertex="1">
          <mxGeometry y="270" width="1070" height="40" as="geometry" />
        </mxCell>
        <mxCell id="v09aj6478rrVFZpmlRXY-153" value="Emergency" style="shape=partialRectangle;html=1;whiteSpace=wrap;connectable=0;strokeColor=inherit;overflow=hidden;fillColor=none;top=0;left=0;bottom=0;right=0;pointerEvents=1;fontSize=16;" parent="v09aj6478rrVFZpmlRXY-152" vertex="1">
          <mxGeometry width="140" height="40" as="geometry">
            <mxRectangle width="140" height="40" as="alternateBounds" />
          </mxGeometry>
        </mxCell>
        <mxCell id="v09aj6478rrVFZpmlRXY-154" value="-" style="shape=partialRectangle;html=1;whiteSpace=wrap;connectable=0;strokeColor=inherit;overflow=hidden;fillColor=none;top=0;left=0;bottom=0;right=0;pointerEvents=1;fontSize=16;" parent="v09aj6478rrVFZpmlRXY-152" vertex="1">
          <mxGeometry x="140" width="330" height="40" as="geometry">
            <mxRectangle width="330" height="40" as="alternateBounds" />
          </mxGeometry>
        </mxCell>
        <mxCell id="v09aj6478rrVFZpmlRXY-155" value="" style="shape=partialRectangle;html=1;whiteSpace=wrap;connectable=0;strokeColor=inherit;overflow=hidden;fillColor=none;top=0;left=0;bottom=0;right=0;pointerEvents=1;fontSize=16;" parent="v09aj6478rrVFZpmlRXY-152" vertex="1">
          <mxGeometry x="470" width="150" height="40" as="geometry">
            <mxRectangle width="150" height="40" as="alternateBounds" />
          </mxGeometry>
        </mxCell>
        <mxCell id="v09aj6478rrVFZpmlRXY-156" value="Signals the need for an emergency manuever" style="shape=partialRectangle;html=1;whiteSpace=wrap;connectable=0;strokeColor=inherit;overflow=hidden;fillColor=none;top=0;left=0;bottom=0;right=0;pointerEvents=1;fontSize=16;" parent="v09aj6478rrVFZpmlRXY-152" vertex="1">
          <mxGeometry x="620" width="250" height="40" as="geometry">
            <mxRectangle width="250" height="40" as="alternateBounds" />
          </mxGeometry>
        </mxCell>
        <mxCell id="v09aj6478rrVFZpmlRXY-215" value="" style="shape=partialRectangle;html=1;whiteSpace=wrap;connectable=0;strokeColor=inherit;overflow=hidden;fillColor=none;top=0;left=0;bottom=0;right=0;pointerEvents=1;fontSize=16;" parent="v09aj6478rrVFZpmlRXY-152" vertex="1">
          <mxGeometry x="870" width="200" height="40" as="geometry">
            <mxRectangle width="200" height="40" as="alternateBounds" />
          </mxGeometry>
        </mxCell>
        <mxCell id="v09aj6478rrVFZpmlRXY-147" style="shape=tableRow;horizontal=0;startSize=0;swimlaneHead=0;swimlaneBody=0;strokeColor=inherit;top=0;left=0;bottom=0;right=0;collapsible=0;dropTarget=0;fillColor=none;points=[[0,0.5],[1,0.5]];portConstraint=eastwest;fontSize=16;" parent="v09aj6478rrVFZpmlRXY-126" vertex="1">
          <mxGeometry y="310" width="1070" height="40" as="geometry" />
        </mxCell>
        <mxCell id="v09aj6478rrVFZpmlRXY-148" value="Steering Command" style="shape=partialRectangle;html=1;whiteSpace=wrap;connectable=0;strokeColor=inherit;overflow=hidden;fillColor=none;top=0;left=0;bottom=0;right=0;pointerEvents=1;fontSize=16;" parent="v09aj6478rrVFZpmlRXY-147" vertex="1">
          <mxGeometry width="140" height="40" as="geometry">
            <mxRectangle width="140" height="40" as="alternateBounds" />
          </mxGeometry>
        </mxCell>
        <mxCell id="v09aj6478rrVFZpmlRXY-149" value="/control_command: fs_msgs/msg/ControlCommand" style="shape=partialRectangle;html=1;whiteSpace=wrap;connectable=0;strokeColor=inherit;overflow=hidden;fillColor=none;top=0;left=0;bottom=0;right=0;pointerEvents=1;fontSize=16;" parent="v09aj6478rrVFZpmlRXY-147" vertex="1">
          <mxGeometry x="140" width="330" height="40" as="geometry">
            <mxRectangle width="330" height="40" as="alternateBounds" />
          </mxGeometry>
        </mxCell>
        <mxCell id="v09aj6478rrVFZpmlRXY-150" value="" style="shape=partialRectangle;html=1;whiteSpace=wrap;connectable=0;strokeColor=inherit;overflow=hidden;fillColor=none;top=0;left=0;bottom=0;right=0;pointerEvents=1;fontSize=16;" parent="v09aj6478rrVFZpmlRXY-147" vertex="1">
          <mxGeometry x="470" width="150" height="40" as="geometry">
            <mxRectangle width="150" height="40" as="alternateBounds" />
          </mxGeometry>
        </mxCell>
        <mxCell id="v09aj6478rrVFZpmlRXY-151" style="shape=partialRectangle;html=1;whiteSpace=wrap;connectable=0;strokeColor=inherit;overflow=hidden;fillColor=none;top=0;left=0;bottom=0;right=0;pointerEvents=1;fontSize=16;" parent="v09aj6478rrVFZpmlRXY-147" vertex="1">
          <mxGeometry x="620" width="250" height="40" as="geometry">
            <mxRectangle width="250" height="40" as="alternateBounds" />
          </mxGeometry>
        </mxCell>
        <mxCell id="v09aj6478rrVFZpmlRXY-216" value="Topic" style="shape=partialRectangle;html=1;whiteSpace=wrap;connectable=0;strokeColor=inherit;overflow=hidden;fillColor=none;top=0;left=0;bottom=0;right=0;pointerEvents=1;fontSize=16;" parent="v09aj6478rrVFZpmlRXY-147" vertex="1">
          <mxGeometry x="870" width="200" height="40" as="geometry">
            <mxRectangle width="200" height="40" as="alternateBounds" />
          </mxGeometry>
        </mxCell>
        <mxCell id="v09aj6478rrVFZpmlRXY-182" style="shape=tableRow;horizontal=0;startSize=0;swimlaneHead=0;swimlaneBody=0;strokeColor=inherit;top=0;left=0;bottom=0;right=0;collapsible=0;dropTarget=0;fillColor=none;points=[[0,0.5],[1,0.5]];portConstraint=eastwest;fontSize=16;" parent="v09aj6478rrVFZpmlRXY-126" vertex="1">
          <mxGeometry y="350" width="1070" height="40" as="geometry" />
        </mxCell>
        <mxCell id="v09aj6478rrVFZpmlRXY-183" value="Throttle Command" style="shape=partialRectangle;html=1;whiteSpace=wrap;connectable=0;strokeColor=inherit;overflow=hidden;fillColor=none;top=0;left=0;bottom=0;right=0;pointerEvents=1;fontSize=16;" parent="v09aj6478rrVFZpmlRXY-182" vertex="1">
          <mxGeometry width="140" height="40" as="geometry">
            <mxRectangle width="140" height="40" as="alternateBounds" />
          </mxGeometry>
        </mxCell>
        <mxCell id="v09aj6478rrVFZpmlRXY-184" value="/control_command: fs_msgs/msg/ControlCommand" style="shape=partialRectangle;html=1;whiteSpace=wrap;connectable=0;strokeColor=inherit;overflow=hidden;fillColor=none;top=0;left=0;bottom=0;right=0;pointerEvents=1;fontSize=16;" parent="v09aj6478rrVFZpmlRXY-182" vertex="1">
          <mxGeometry x="140" width="330" height="40" as="geometry">
            <mxRectangle width="330" height="40" as="alternateBounds" />
          </mxGeometry>
        </mxCell>
        <mxCell id="v09aj6478rrVFZpmlRXY-185" value="" style="shape=partialRectangle;html=1;whiteSpace=wrap;connectable=0;strokeColor=inherit;overflow=hidden;fillColor=none;top=0;left=0;bottom=0;right=0;pointerEvents=1;fontSize=16;" parent="v09aj6478rrVFZpmlRXY-182" vertex="1">
          <mxGeometry x="470" width="150" height="40" as="geometry">
            <mxRectangle width="150" height="40" as="alternateBounds" />
          </mxGeometry>
        </mxCell>
        <mxCell id="v09aj6478rrVFZpmlRXY-186" style="shape=partialRectangle;html=1;whiteSpace=wrap;connectable=0;strokeColor=inherit;overflow=hidden;fillColor=none;top=0;left=0;bottom=0;right=0;pointerEvents=1;fontSize=16;" parent="v09aj6478rrVFZpmlRXY-182" vertex="1">
          <mxGeometry x="620" width="250" height="40" as="geometry">
            <mxRectangle width="250" height="40" as="alternateBounds" />
          </mxGeometry>
        </mxCell>
        <mxCell id="v09aj6478rrVFZpmlRXY-217" value="Topic" style="shape=partialRectangle;html=1;whiteSpace=wrap;connectable=0;strokeColor=inherit;overflow=hidden;fillColor=none;top=0;left=0;bottom=0;right=0;pointerEvents=1;fontSize=16;" parent="v09aj6478rrVFZpmlRXY-182" vertex="1">
          <mxGeometry x="870" width="200" height="40" as="geometry">
            <mxRectangle width="200" height="40" as="alternateBounds" />
          </mxGeometry>
        </mxCell>
        <mxCell id="v09aj6478rrVFZpmlRXY-172" style="shape=tableRow;horizontal=0;startSize=0;swimlaneHead=0;swimlaneBody=0;strokeColor=inherit;top=0;left=0;bottom=0;right=0;collapsible=0;dropTarget=0;fillColor=none;points=[[0,0.5],[1,0.5]];portConstraint=eastwest;fontSize=16;" parent="v09aj6478rrVFZpmlRXY-126" vertex="1">
          <mxGeometry y="390" width="1070" height="40" as="geometry" />
        </mxCell>
        <mxCell id="v09aj6478rrVFZpmlRXY-173" value="Cone relative coordinates" style="shape=partialRectangle;html=1;whiteSpace=wrap;connectable=0;strokeColor=inherit;overflow=hidden;fillColor=none;top=0;left=0;bottom=0;right=0;pointerEvents=1;fontSize=16;" parent="v09aj6478rrVFZpmlRXY-172" vertex="1">
          <mxGeometry width="140" height="40" as="geometry">
            <mxRectangle width="140" height="40" as="alternateBounds" />
          </mxGeometry>
        </mxCell>
        <mxCell id="v09aj6478rrVFZpmlRXY-174" value="-" style="shape=partialRectangle;html=1;whiteSpace=wrap;connectable=0;strokeColor=inherit;overflow=hidden;fillColor=none;top=0;left=0;bottom=0;right=0;pointerEvents=1;fontSize=16;" parent="v09aj6478rrVFZpmlRXY-172" vertex="1">
          <mxGeometry x="140" width="330" height="40" as="geometry">
            <mxRectangle width="330" height="40" as="alternateBounds" />
          </mxGeometry>
        </mxCell>
        <mxCell id="v09aj6478rrVFZpmlRXY-175" value="" style="shape=partialRectangle;html=1;whiteSpace=wrap;connectable=0;strokeColor=inherit;overflow=hidden;fillColor=none;top=0;left=0;bottom=0;right=0;pointerEvents=1;fontSize=16;" parent="v09aj6478rrVFZpmlRXY-172" vertex="1">
          <mxGeometry x="470" width="150" height="40" as="geometry">
            <mxRectangle width="150" height="40" as="alternateBounds" />
          </mxGeometry>
        </mxCell>
        <mxCell id="v09aj6478rrVFZpmlRXY-176" style="shape=partialRectangle;html=1;whiteSpace=wrap;connectable=0;strokeColor=inherit;overflow=hidden;fillColor=none;top=0;left=0;bottom=0;right=0;pointerEvents=1;fontSize=16;" parent="v09aj6478rrVFZpmlRXY-172" vertex="1">
          <mxGeometry x="620" width="250" height="40" as="geometry">
            <mxRectangle width="250" height="40" as="alternateBounds" />
          </mxGeometry>
        </mxCell>
        <mxCell id="v09aj6478rrVFZpmlRXY-219" style="shape=partialRectangle;html=1;whiteSpace=wrap;connectable=0;strokeColor=inherit;overflow=hidden;fillColor=none;top=0;left=0;bottom=0;right=0;pointerEvents=1;fontSize=16;" parent="v09aj6478rrVFZpmlRXY-172" vertex="1">
          <mxGeometry x="870" width="200" height="40" as="geometry">
            <mxRectangle width="200" height="40" as="alternateBounds" />
          </mxGeometry>
        </mxCell>
        <mxCell id="v09aj6478rrVFZpmlRXY-197" style="shape=tableRow;horizontal=0;startSize=0;swimlaneHead=0;swimlaneBody=0;strokeColor=inherit;top=0;left=0;bottom=0;right=0;collapsible=0;dropTarget=0;fillColor=none;points=[[0,0.5],[1,0.5]];portConstraint=eastwest;fontSize=16;" parent="v09aj6478rrVFZpmlRXY-126" vertex="1">
          <mxGeometry y="430" width="1070" height="40" as="geometry" />
        </mxCell>
        <mxCell id="v09aj6478rrVFZpmlRXY-198" value="Cone Map" style="shape=partialRectangle;html=1;whiteSpace=wrap;connectable=0;strokeColor=inherit;overflow=hidden;fillColor=none;top=0;left=0;bottom=0;right=0;pointerEvents=1;fontSize=16;" parent="v09aj6478rrVFZpmlRXY-197" vertex="1">
          <mxGeometry width="140" height="40" as="geometry">
            <mxRectangle width="140" height="40" as="alternateBounds" />
          </mxGeometry>
        </mxCell>
        <mxCell id="v09aj6478rrVFZpmlRXY-199" value="-" style="shape=partialRectangle;html=1;whiteSpace=wrap;connectable=0;strokeColor=inherit;overflow=hidden;fillColor=none;top=0;left=0;bottom=0;right=0;pointerEvents=1;fontSize=16;" parent="v09aj6478rrVFZpmlRXY-197" vertex="1">
          <mxGeometry x="140" width="330" height="40" as="geometry">
            <mxRectangle width="330" height="40" as="alternateBounds" />
          </mxGeometry>
        </mxCell>
        <mxCell id="v09aj6478rrVFZpmlRXY-200" value="" style="shape=partialRectangle;html=1;whiteSpace=wrap;connectable=0;strokeColor=inherit;overflow=hidden;fillColor=none;top=0;left=0;bottom=0;right=0;pointerEvents=1;fontSize=16;" parent="v09aj6478rrVFZpmlRXY-197" vertex="1">
          <mxGeometry x="470" width="150" height="40" as="geometry">
            <mxRectangle width="150" height="40" as="alternateBounds" />
          </mxGeometry>
        </mxCell>
        <mxCell id="v09aj6478rrVFZpmlRXY-201" style="shape=partialRectangle;html=1;whiteSpace=wrap;connectable=0;strokeColor=inherit;overflow=hidden;fillColor=none;top=0;left=0;bottom=0;right=0;pointerEvents=1;fontSize=16;" parent="v09aj6478rrVFZpmlRXY-197" vertex="1">
          <mxGeometry x="620" width="250" height="40" as="geometry">
            <mxRectangle width="250" height="40" as="alternateBounds" />
          </mxGeometry>
        </mxCell>
        <mxCell id="v09aj6478rrVFZpmlRXY-220" style="shape=partialRectangle;html=1;whiteSpace=wrap;connectable=0;strokeColor=inherit;overflow=hidden;fillColor=none;top=0;left=0;bottom=0;right=0;pointerEvents=1;fontSize=16;" parent="v09aj6478rrVFZpmlRXY-197" vertex="1">
          <mxGeometry x="870" width="200" height="40" as="geometry">
            <mxRectangle width="200" height="40" as="alternateBounds" />
          </mxGeometry>
        </mxCell>
        <mxCell id="v09aj6478rrVFZpmlRXY-192" style="shape=tableRow;horizontal=0;startSize=0;swimlaneHead=0;swimlaneBody=0;strokeColor=inherit;top=0;left=0;bottom=0;right=0;collapsible=0;dropTarget=0;fillColor=none;points=[[0,0.5],[1,0.5]];portConstraint=eastwest;fontSize=16;" parent="v09aj6478rrVFZpmlRXY-126" vertex="1">
          <mxGeometry y="470" width="1070" height="40" as="geometry" />
        </mxCell>
        <mxCell id="v09aj6478rrVFZpmlRXY-193" value="Velocity &amp;amp; Pose" style="shape=partialRectangle;html=1;whiteSpace=wrap;connectable=0;strokeColor=inherit;overflow=hidden;fillColor=none;top=0;left=0;bottom=0;right=0;pointerEvents=1;fontSize=16;" parent="v09aj6478rrVFZpmlRXY-192" vertex="1">
          <mxGeometry width="140" height="40" as="geometry">
            <mxRectangle width="140" height="40" as="alternateBounds" />
          </mxGeometry>
        </mxCell>
        <mxCell id="v09aj6478rrVFZpmlRXY-194" value="-" style="shape=partialRectangle;html=1;whiteSpace=wrap;connectable=0;strokeColor=inherit;overflow=hidden;fillColor=none;top=0;left=0;bottom=0;right=0;pointerEvents=1;fontSize=16;" parent="v09aj6478rrVFZpmlRXY-192" vertex="1">
          <mxGeometry x="140" width="330" height="40" as="geometry">
            <mxRectangle width="330" height="40" as="alternateBounds" />
          </mxGeometry>
        </mxCell>
        <mxCell id="v09aj6478rrVFZpmlRXY-195" value="" style="shape=partialRectangle;html=1;whiteSpace=wrap;connectable=0;strokeColor=inherit;overflow=hidden;fillColor=none;top=0;left=0;bottom=0;right=0;pointerEvents=1;fontSize=16;" parent="v09aj6478rrVFZpmlRXY-192" vertex="1">
          <mxGeometry x="470" width="150" height="40" as="geometry">
            <mxRectangle width="150" height="40" as="alternateBounds" />
          </mxGeometry>
        </mxCell>
        <mxCell id="v09aj6478rrVFZpmlRXY-196" style="shape=partialRectangle;html=1;whiteSpace=wrap;connectable=0;strokeColor=inherit;overflow=hidden;fillColor=none;top=0;left=0;bottom=0;right=0;pointerEvents=1;fontSize=16;" parent="v09aj6478rrVFZpmlRXY-192" vertex="1">
          <mxGeometry x="620" width="250" height="40" as="geometry">
            <mxRectangle width="250" height="40" as="alternateBounds" />
          </mxGeometry>
        </mxCell>
        <mxCell id="v09aj6478rrVFZpmlRXY-221" style="shape=partialRectangle;html=1;whiteSpace=wrap;connectable=0;strokeColor=inherit;overflow=hidden;fillColor=none;top=0;left=0;bottom=0;right=0;pointerEvents=1;fontSize=16;" parent="v09aj6478rrVFZpmlRXY-192" vertex="1">
          <mxGeometry x="870" width="200" height="40" as="geometry">
            <mxRectangle width="200" height="40" as="alternateBounds" />
          </mxGeometry>
        </mxCell>
        <mxCell id="v09aj6478rrVFZpmlRXY-187" style="shape=tableRow;horizontal=0;startSize=0;swimlaneHead=0;swimlaneBody=0;strokeColor=inherit;top=0;left=0;bottom=0;right=0;collapsible=0;dropTarget=0;fillColor=none;points=[[0,0.5],[1,0.5]];portConstraint=eastwest;fontSize=16;" parent="v09aj6478rrVFZpmlRXY-126" vertex="1">
          <mxGeometry y="510" width="1070" height="40" as="geometry" />
        </mxCell>
        <mxCell id="v09aj6478rrVFZpmlRXY-188" value="Path" style="shape=partialRectangle;html=1;whiteSpace=wrap;connectable=0;strokeColor=inherit;overflow=hidden;fillColor=none;top=0;left=0;bottom=0;right=0;pointerEvents=1;fontSize=16;" parent="v09aj6478rrVFZpmlRXY-187" vertex="1">
          <mxGeometry width="140" height="40" as="geometry">
            <mxRectangle width="140" height="40" as="alternateBounds" />
          </mxGeometry>
        </mxCell>
        <mxCell id="v09aj6478rrVFZpmlRXY-189" value="-" style="shape=partialRectangle;html=1;whiteSpace=wrap;connectable=0;strokeColor=inherit;overflow=hidden;fillColor=none;top=0;left=0;bottom=0;right=0;pointerEvents=1;fontSize=16;" parent="v09aj6478rrVFZpmlRXY-187" vertex="1">
          <mxGeometry x="140" width="330" height="40" as="geometry">
            <mxRectangle width="330" height="40" as="alternateBounds" />
          </mxGeometry>
        </mxCell>
        <mxCell id="v09aj6478rrVFZpmlRXY-190" value="" style="shape=partialRectangle;html=1;whiteSpace=wrap;connectable=0;strokeColor=inherit;overflow=hidden;fillColor=none;top=0;left=0;bottom=0;right=0;pointerEvents=1;fontSize=16;" parent="v09aj6478rrVFZpmlRXY-187" vertex="1">
          <mxGeometry x="470" width="150" height="40" as="geometry">
            <mxRectangle width="150" height="40" as="alternateBounds" />
          </mxGeometry>
        </mxCell>
        <mxCell id="v09aj6478rrVFZpmlRXY-191" style="shape=partialRectangle;html=1;whiteSpace=wrap;connectable=0;strokeColor=inherit;overflow=hidden;fillColor=none;top=0;left=0;bottom=0;right=0;pointerEvents=1;fontSize=16;" parent="v09aj6478rrVFZpmlRXY-187" vertex="1">
          <mxGeometry x="620" width="250" height="40" as="geometry">
            <mxRectangle width="250" height="40" as="alternateBounds" />
          </mxGeometry>
        </mxCell>
        <mxCell id="v09aj6478rrVFZpmlRXY-222" style="shape=partialRectangle;html=1;whiteSpace=wrap;connectable=0;strokeColor=inherit;overflow=hidden;fillColor=none;top=0;left=0;bottom=0;right=0;pointerEvents=1;fontSize=16;" parent="v09aj6478rrVFZpmlRXY-187" vertex="1">
          <mxGeometry x="870" width="200" height="40" as="geometry">
            <mxRectangle width="200" height="40" as="alternateBounds" />
          </mxGeometry>
        </mxCell>
        <mxCell id="v09aj6478rrVFZpmlRXY-204" style="shape=tableRow;horizontal=0;startSize=0;swimlaneHead=0;swimlaneBody=0;strokeColor=inherit;top=0;left=0;bottom=0;right=0;collapsible=0;dropTarget=0;fillColor=none;points=[[0,0.5],[1,0.5]];portConstraint=eastwest;fontSize=16;" parent="v09aj6478rrVFZpmlRXY-126" vertex="1">
          <mxGeometry y="550" width="1070" height="40" as="geometry" />
        </mxCell>
        <mxCell id="v09aj6478rrVFZpmlRXY-205" value="LiDAR Odometry Pose" style="shape=partialRectangle;html=1;whiteSpace=wrap;connectable=0;strokeColor=inherit;overflow=hidden;fillColor=none;top=0;left=0;bottom=0;right=0;pointerEvents=1;fontSize=16;" parent="v09aj6478rrVFZpmlRXY-204" vertex="1">
          <mxGeometry width="140" height="40" as="geometry">
            <mxRectangle width="140" height="40" as="alternateBounds" />
          </mxGeometry>
        </mxCell>
        <mxCell id="v09aj6478rrVFZpmlRXY-206" value="-" style="shape=partialRectangle;html=1;whiteSpace=wrap;connectable=0;strokeColor=inherit;overflow=hidden;fillColor=none;top=0;left=0;bottom=0;right=0;pointerEvents=1;fontSize=16;" parent="v09aj6478rrVFZpmlRXY-204" vertex="1">
          <mxGeometry x="140" width="330" height="40" as="geometry">
            <mxRectangle width="330" height="40" as="alternateBounds" />
          </mxGeometry>
        </mxCell>
        <mxCell id="v09aj6478rrVFZpmlRXY-207" value="" style="shape=partialRectangle;html=1;whiteSpace=wrap;connectable=0;strokeColor=inherit;overflow=hidden;fillColor=none;top=0;left=0;bottom=0;right=0;pointerEvents=1;fontSize=16;" parent="v09aj6478rrVFZpmlRXY-204" vertex="1">
          <mxGeometry x="470" width="150" height="40" as="geometry">
            <mxRectangle width="150" height="40" as="alternateBounds" />
          </mxGeometry>
        </mxCell>
        <mxCell id="v09aj6478rrVFZpmlRXY-208" style="shape=partialRectangle;html=1;whiteSpace=wrap;connectable=0;strokeColor=inherit;overflow=hidden;fillColor=none;top=0;left=0;bottom=0;right=0;pointerEvents=1;fontSize=16;" parent="v09aj6478rrVFZpmlRXY-204" vertex="1">
          <mxGeometry x="620" width="250" height="40" as="geometry">
            <mxRectangle width="250" height="40" as="alternateBounds" />
          </mxGeometry>
        </mxCell>
        <mxCell id="v09aj6478rrVFZpmlRXY-223" style="shape=partialRectangle;html=1;whiteSpace=wrap;connectable=0;strokeColor=inherit;overflow=hidden;fillColor=none;top=0;left=0;bottom=0;right=0;pointerEvents=1;fontSize=16;" parent="v09aj6478rrVFZpmlRXY-204" vertex="1">
          <mxGeometry x="870" width="200" height="40" as="geometry">
            <mxRectangle width="200" height="40" as="alternateBounds" />
          </mxGeometry>
        </mxCell>
        <mxCell id="v09aj6478rrVFZpmlRXY-226" value="" style="shape=table;startSize=0;container=1;collapsible=0;childLayout=tableLayout;fontSize=16;" parent="1" vertex="1">
          <mxGeometry x="-1540" y="691" width="1069" height="956" as="geometry" />
        </mxCell>
        <mxCell id="v09aj6478rrVFZpmlRXY-227" value="" style="shape=tableRow;horizontal=0;startSize=0;swimlaneHead=0;swimlaneBody=0;strokeColor=inherit;top=0;left=0;bottom=0;right=0;collapsible=0;dropTarget=0;fillColor=none;points=[[0,0.5],[1,0.5]];portConstraint=eastwest;fontSize=16;" parent="v09aj6478rrVFZpmlRXY-226" vertex="1">
          <mxGeometry width="1069" height="56" as="geometry" />
        </mxCell>
        <mxCell id="v09aj6478rrVFZpmlRXY-228" value="&lt;b&gt;Name&lt;/b&gt;" style="shape=partialRectangle;html=1;whiteSpace=wrap;connectable=0;strokeColor=inherit;overflow=hidden;fillColor=none;top=0;left=0;bottom=0;right=0;pointerEvents=1;fontSize=16;" parent="v09aj6478rrVFZpmlRXY-227" vertex="1">
          <mxGeometry width="279" height="56" as="geometry">
            <mxRectangle width="279" height="56" as="alternateBounds" />
          </mxGeometry>
        </mxCell>
        <mxCell id="v09aj6478rrVFZpmlRXY-229" value="&lt;b&gt;Interface Description&lt;/b&gt;" style="shape=partialRectangle;html=1;whiteSpace=wrap;connectable=0;strokeColor=inherit;overflow=hidden;fillColor=none;top=0;left=0;bottom=0;right=0;pointerEvents=1;fontSize=16;" parent="v09aj6478rrVFZpmlRXY-227" vertex="1">
          <mxGeometry x="279" width="790" height="56" as="geometry">
            <mxRectangle width="790" height="56" as="alternateBounds" />
          </mxGeometry>
        </mxCell>
        <mxCell id="v09aj6478rrVFZpmlRXY-231" value="" style="shape=tableRow;horizontal=0;startSize=0;swimlaneHead=0;swimlaneBody=0;strokeColor=inherit;top=0;left=0;bottom=0;right=0;collapsible=0;dropTarget=0;fillColor=none;points=[[0,0.5],[1,0.5]];portConstraint=eastwest;fontSize=16;" parent="v09aj6478rrVFZpmlRXY-226" vertex="1">
          <mxGeometry y="56" width="1069" height="320" as="geometry" />
        </mxCell>
        <mxCell id="v09aj6478rrVFZpmlRXY-232" value="fs_msgs/msg/WheelStates" style="shape=partialRectangle;html=1;whiteSpace=wrap;connectable=0;strokeColor=inherit;overflow=hidden;fillColor=none;top=0;left=0;bottom=0;right=0;pointerEvents=1;fontSize=16;" parent="v09aj6478rrVFZpmlRXY-231" vertex="1">
          <mxGeometry width="279" height="320" as="geometry">
            <mxRectangle width="279" height="320" as="alternateBounds" />
          </mxGeometry>
        </mxCell>
        <mxCell id="v09aj6478rrVFZpmlRXY-233" value="std_msgs/Header header&lt;br&gt;&lt;br&gt;float32 fl_rpm&lt;br&gt;float32 fr_rpm&lt;br&gt;float32 rl_rpm&lt;br&gt;float32 rr_rpm&lt;br&gt;&lt;br&gt;float32 fl_rotation_angle&lt;br&gt;float32 fr_rotation_angle&lt;br&gt;float32 rl_rotation_angle&lt;br&gt;float32 rr_rotation_angle&lt;br&gt;&lt;br&gt;float32 fl_steering_angle&lt;br&gt;float32 fr_steering_angle&lt;br&gt;float32 rl_steering_angle&lt;br&gt;float32 rr_steering_angle" style="shape=partialRectangle;html=1;whiteSpace=wrap;connectable=0;strokeColor=inherit;overflow=hidden;fillColor=none;top=0;left=0;bottom=0;right=0;pointerEvents=1;fontSize=16;" parent="v09aj6478rrVFZpmlRXY-231" vertex="1">
          <mxGeometry x="279" width="790" height="320" as="geometry">
            <mxRectangle width="790" height="320" as="alternateBounds" />
          </mxGeometry>
        </mxCell>
        <mxCell id="v09aj6478rrVFZpmlRXY-235" value="" style="shape=tableRow;horizontal=0;startSize=0;swimlaneHead=0;swimlaneBody=0;strokeColor=inherit;top=0;left=0;bottom=0;right=0;collapsible=0;dropTarget=0;fillColor=none;points=[[0,0.5],[1,0.5]];portConstraint=eastwest;fontSize=16;" parent="v09aj6478rrVFZpmlRXY-226" vertex="1">
          <mxGeometry y="376" width="1069" height="70" as="geometry" />
        </mxCell>
        <mxCell id="v09aj6478rrVFZpmlRXY-236" value="fs_msgs/msg/FinishedSignal" style="shape=partialRectangle;html=1;whiteSpace=wrap;connectable=0;strokeColor=inherit;overflow=hidden;fillColor=none;top=0;left=0;bottom=0;right=0;pointerEvents=1;fontSize=16;" parent="v09aj6478rrVFZpmlRXY-235" vertex="1">
          <mxGeometry width="279" height="70" as="geometry">
            <mxRectangle width="279" height="70" as="alternateBounds" />
          </mxGeometry>
        </mxCell>
        <mxCell id="v09aj6478rrVFZpmlRXY-237" value="std_msgs/Header header&lt;br style=&quot;border-color: var(--border-color);&quot;&gt;&lt;br&gt;bool placeholder" style="shape=partialRectangle;html=1;whiteSpace=wrap;connectable=0;strokeColor=inherit;overflow=hidden;fillColor=none;top=0;left=0;bottom=0;right=0;pointerEvents=1;fontSize=16;" parent="v09aj6478rrVFZpmlRXY-235" vertex="1">
          <mxGeometry x="279" width="790" height="70" as="geometry">
            <mxRectangle width="790" height="70" as="alternateBounds" />
          </mxGeometry>
        </mxCell>
        <mxCell id="v09aj6478rrVFZpmlRXY-242" style="shape=tableRow;horizontal=0;startSize=0;swimlaneHead=0;swimlaneBody=0;strokeColor=inherit;top=0;left=0;bottom=0;right=0;collapsible=0;dropTarget=0;fillColor=none;points=[[0,0.5],[1,0.5]];portConstraint=eastwest;fontSize=16;" parent="v09aj6478rrVFZpmlRXY-226" vertex="1">
          <mxGeometry y="446" width="1069" height="90" as="geometry" />
        </mxCell>
        <mxCell id="v09aj6478rrVFZpmlRXY-243" value="fs_msgs/msg/GoSignal" style="shape=partialRectangle;html=1;whiteSpace=wrap;connectable=0;strokeColor=inherit;overflow=hidden;fillColor=none;top=0;left=0;bottom=0;right=0;pointerEvents=1;fontSize=16;" parent="v09aj6478rrVFZpmlRXY-242" vertex="1">
          <mxGeometry width="279" height="90" as="geometry">
            <mxRectangle width="279" height="90" as="alternateBounds" />
          </mxGeometry>
        </mxCell>
        <mxCell id="v09aj6478rrVFZpmlRXY-244" value="std_msgs/Header header&lt;br style=&quot;border-color: var(--border-color);&quot;&gt;&lt;br style=&quot;border-color: var(--border-color);&quot;&gt;string mission&lt;br style=&quot;border-color: var(--border-color);&quot;&gt;string track" style="shape=partialRectangle;html=1;whiteSpace=wrap;connectable=0;strokeColor=inherit;overflow=hidden;fillColor=none;top=0;left=0;bottom=0;right=0;pointerEvents=1;fontSize=16;" parent="v09aj6478rrVFZpmlRXY-242" vertex="1">
          <mxGeometry x="279" width="790" height="90" as="geometry">
            <mxRectangle width="790" height="90" as="alternateBounds" />
          </mxGeometry>
        </mxCell>
        <mxCell id="v09aj6478rrVFZpmlRXY-239" style="shape=tableRow;horizontal=0;startSize=0;swimlaneHead=0;swimlaneBody=0;strokeColor=inherit;top=0;left=0;bottom=0;right=0;collapsible=0;dropTarget=0;fillColor=none;points=[[0,0.5],[1,0.5]];portConstraint=eastwest;fontSize=16;" parent="v09aj6478rrVFZpmlRXY-226" vertex="1">
          <mxGeometry y="536" width="1069" height="120" as="geometry" />
        </mxCell>
        <mxCell id="v09aj6478rrVFZpmlRXY-240" value="fs_msgs/msg/ControlCommand" style="shape=partialRectangle;html=1;whiteSpace=wrap;connectable=0;strokeColor=inherit;overflow=hidden;fillColor=none;top=0;left=0;bottom=0;right=0;pointerEvents=1;fontSize=16;" parent="v09aj6478rrVFZpmlRXY-239" vertex="1">
          <mxGeometry width="279" height="120" as="geometry">
            <mxRectangle width="279" height="120" as="alternateBounds" />
          </mxGeometry>
        </mxCell>
        <mxCell id="v09aj6478rrVFZpmlRXY-241" value="std_msgs/Header header&lt;br style=&quot;border-color: var(--border-color);&quot;&gt;&lt;br style=&quot;border-color: var(--border-color);&quot;&gt;float64 throttle # range: (0, 1)&lt;br style=&quot;border-color: var(--border-color);&quot;&gt;float64 steering # range: (-1, 1)&lt;br&gt;float64 brake # range: (0, 1)" style="shape=partialRectangle;html=1;whiteSpace=wrap;connectable=0;strokeColor=inherit;overflow=hidden;fillColor=none;top=0;left=0;bottom=0;right=0;pointerEvents=1;fontSize=16;" parent="v09aj6478rrVFZpmlRXY-239" vertex="1">
          <mxGeometry x="279" width="790" height="120" as="geometry">
            <mxRectangle width="790" height="120" as="alternateBounds" />
          </mxGeometry>
        </mxCell>
        <mxCell id="v09aj6478rrVFZpmlRXY-254" style="shape=tableRow;horizontal=0;startSize=0;swimlaneHead=0;swimlaneBody=0;strokeColor=inherit;top=0;left=0;bottom=0;right=0;collapsible=0;dropTarget=0;fillColor=none;points=[[0,0.5],[1,0.5]];portConstraint=eastwest;fontSize=16;" parent="v09aj6478rrVFZpmlRXY-226" vertex="1">
          <mxGeometry y="656" width="1069" height="80" as="geometry" />
        </mxCell>
        <mxCell id="v09aj6478rrVFZpmlRXY-255" value="Track" style="shape=partialRectangle;html=1;whiteSpace=wrap;connectable=0;strokeColor=inherit;overflow=hidden;fillColor=none;top=0;left=0;bottom=0;right=0;pointerEvents=1;fontSize=16;" parent="v09aj6478rrVFZpmlRXY-254" vertex="1">
          <mxGeometry width="279" height="80" as="geometry">
            <mxRectangle width="279" height="80" as="alternateBounds" />
          </mxGeometry>
        </mxCell>
        <mxCell id="v09aj6478rrVFZpmlRXY-256" value="std_msgs/Header header&lt;br&gt;&lt;br&gt;TrackPoint[] track" style="shape=partialRectangle;html=1;whiteSpace=wrap;connectable=0;strokeColor=inherit;overflow=hidden;fillColor=none;top=0;left=0;bottom=0;right=0;pointerEvents=1;fontSize=16;" parent="v09aj6478rrVFZpmlRXY-254" vertex="1">
          <mxGeometry x="279" width="790" height="80" as="geometry">
            <mxRectangle width="790" height="80" as="alternateBounds" />
          </mxGeometry>
        </mxCell>
        <mxCell id="v09aj6478rrVFZpmlRXY-251" style="shape=tableRow;horizontal=0;startSize=0;swimlaneHead=0;swimlaneBody=0;strokeColor=inherit;top=0;left=0;bottom=0;right=0;collapsible=0;dropTarget=0;fillColor=none;points=[[0,0.5],[1,0.5]];portConstraint=eastwest;fontSize=16;" parent="v09aj6478rrVFZpmlRXY-226" vertex="1">
          <mxGeometry y="736" width="1069" height="80" as="geometry" />
        </mxCell>
        <mxCell id="v09aj6478rrVFZpmlRXY-252" value="TrackPoint" style="shape=partialRectangle;html=1;whiteSpace=wrap;connectable=0;strokeColor=inherit;overflow=hidden;fillColor=none;top=0;left=0;bottom=0;right=0;pointerEvents=1;fontSize=16;" parent="v09aj6478rrVFZpmlRXY-251" vertex="1">
          <mxGeometry width="279" height="80" as="geometry">
            <mxRectangle width="279" height="80" as="alternateBounds" />
          </mxGeometry>
        </mxCell>
        <mxCell id="v09aj6478rrVFZpmlRXY-253" value="float64 x&lt;br&gt;float64 y&lt;br&gt;float64 velocity" style="shape=partialRectangle;html=1;whiteSpace=wrap;connectable=0;strokeColor=inherit;overflow=hidden;fillColor=none;top=0;left=0;bottom=0;right=0;pointerEvents=1;fontSize=16;" parent="v09aj6478rrVFZpmlRXY-251" vertex="1">
          <mxGeometry x="279" width="790" height="80" as="geometry">
            <mxRectangle width="790" height="80" as="alternateBounds" />
          </mxGeometry>
        </mxCell>
        <mxCell id="v09aj6478rrVFZpmlRXY-248" style="shape=tableRow;horizontal=0;startSize=0;swimlaneHead=0;swimlaneBody=0;strokeColor=inherit;top=0;left=0;bottom=0;right=0;collapsible=0;dropTarget=0;fillColor=none;points=[[0,0.5],[1,0.5]];portConstraint=eastwest;fontSize=16;" parent="v09aj6478rrVFZpmlRXY-226" vertex="1">
          <mxGeometry y="816" width="1069" height="70" as="geometry" />
        </mxCell>
        <mxCell id="v09aj6478rrVFZpmlRXY-249" value="ConeArray" style="shape=partialRectangle;html=1;whiteSpace=wrap;connectable=0;strokeColor=inherit;overflow=hidden;fillColor=none;top=0;left=0;bottom=0;right=0;pointerEvents=1;fontSize=16;" parent="v09aj6478rrVFZpmlRXY-248" vertex="1">
          <mxGeometry width="279" height="70" as="geometry">
            <mxRectangle width="279" height="70" as="alternateBounds" />
          </mxGeometry>
        </mxCell>
        <mxCell id="v09aj6478rrVFZpmlRXY-250" value="std_msgs/Header header&lt;br&gt;&lt;br&gt;Cone[] cone_array" style="shape=partialRectangle;html=1;whiteSpace=wrap;connectable=0;strokeColor=inherit;overflow=hidden;fillColor=none;top=0;left=0;bottom=0;right=0;pointerEvents=1;fontSize=16;" parent="v09aj6478rrVFZpmlRXY-248" vertex="1">
          <mxGeometry x="279" width="790" height="70" as="geometry">
            <mxRectangle width="790" height="70" as="alternateBounds" />
          </mxGeometry>
        </mxCell>
        <mxCell id="v09aj6478rrVFZpmlRXY-257" style="shape=tableRow;horizontal=0;startSize=0;swimlaneHead=0;swimlaneBody=0;strokeColor=inherit;top=0;left=0;bottom=0;right=0;collapsible=0;dropTarget=0;fillColor=none;points=[[0,0.5],[1,0.5]];portConstraint=eastwest;fontSize=16;" parent="v09aj6478rrVFZpmlRXY-226" vertex="1">
          <mxGeometry y="886" width="1069" height="70" as="geometry" />
        </mxCell>
        <mxCell id="v09aj6478rrVFZpmlRXY-258" value="Cone" style="shape=partialRectangle;html=1;whiteSpace=wrap;connectable=0;strokeColor=inherit;overflow=hidden;fillColor=none;top=0;left=0;bottom=0;right=0;pointerEvents=1;fontSize=16;" parent="v09aj6478rrVFZpmlRXY-257" vertex="1">
          <mxGeometry width="279" height="70" as="geometry">
            <mxRectangle width="279" height="70" as="alternateBounds" />
          </mxGeometry>
        </mxCell>
        <mxCell id="v09aj6478rrVFZpmlRXY-259" value="float64 x&lt;br style=&quot;border-color: var(--border-color);&quot;&gt;float64 y&lt;br style=&quot;border-color: var(--border-color);&quot;&gt;string color" style="shape=partialRectangle;html=1;whiteSpace=wrap;connectable=0;strokeColor=inherit;overflow=hidden;fillColor=none;top=0;left=0;bottom=0;right=0;pointerEvents=1;fontSize=16;" parent="v09aj6478rrVFZpmlRXY-257" vertex="1">
          <mxGeometry x="279" width="790" height="70" as="geometry">
            <mxRectangle width="790" height="70" as="alternateBounds" />
          </mxGeometry>
        </mxCell>
      </root>
    </mxGraphModel>
  </diagram>
  <diagram id="nRgn66_sbJ_OVzP7yXsz" name="Control-flow">
    <mxGraphModel dx="1434" dy="843" grid="1" gridSize="10" guides="1" tooltips="1" connect="1" arrows="1" fold="1" page="1" pageScale="1" pageWidth="827" pageHeight="1169" math="0" shadow="0">
      <root>
        <mxCell id="0" />
        <mxCell id="1" parent="0" />
        <mxCell id="ohH58lDGtkPAuC90KkfT-1" value="Pre-Processing" style="swimlane;fillColor=#a20025;strokeColor=#6F0000;fontColor=#ffffff;" parent="1" vertex="1">
          <mxGeometry x="290" y="280" width="200" height="200" as="geometry" />
        </mxCell>
        <mxCell id="ohH58lDGtkPAuC90KkfT-2" style="edgeStyle=orthogonalEdgeStyle;rounded=0;orthogonalLoop=1;jettySize=auto;html=1;exitX=0.5;exitY=1;exitDx=0;exitDy=0;entryX=0.5;entryY=0;entryDx=0;entryDy=0;" parent="ohH58lDGtkPAuC90KkfT-1" edge="1">
          <mxGeometry relative="1" as="geometry">
            <mxPoint x="100" y="80" as="sourcePoint" />
          </mxGeometry>
        </mxCell>
        <mxCell id="ohH58lDGtkPAuC90KkfT-3" value="Cone Detection" style="swimlane;fillColor=#a20025;strokeColor=#6F0000;fontColor=#ffffff;" parent="1" vertex="1">
          <mxGeometry x="292" y="500" width="200" height="290" as="geometry" />
        </mxCell>
        <mxCell id="ohH58lDGtkPAuC90KkfT-4" style="edgeStyle=orthogonalEdgeStyle;rounded=0;orthogonalLoop=1;jettySize=auto;html=1;exitX=0.5;exitY=1;exitDx=0;exitDy=0;entryX=0.5;entryY=0;entryDx=0;entryDy=0;" parent="ohH58lDGtkPAuC90KkfT-3" edge="1">
          <mxGeometry relative="1" as="geometry">
            <mxPoint x="100" y="80" as="sourcePoint" />
          </mxGeometry>
        </mxCell>
        <mxCell id="ohH58lDGtkPAuC90KkfT-5" style="edgeStyle=orthogonalEdgeStyle;rounded=0;orthogonalLoop=1;jettySize=auto;html=1;exitX=0.5;exitY=1;exitDx=0;exitDy=0;entryX=0.5;entryY=0;entryDx=0;entryDy=0;" parent="ohH58lDGtkPAuC90KkfT-3" edge="1">
          <mxGeometry relative="1" as="geometry">
            <mxPoint x="100" y="140" as="sourcePoint" />
          </mxGeometry>
        </mxCell>
        <mxCell id="ohH58lDGtkPAuC90KkfT-6" value="&lt;font style=&quot;font-size: 14px;&quot;&gt;Clustering&lt;/font&gt;" style="rounded=1;whiteSpace=wrap;html=1;" parent="ohH58lDGtkPAuC90KkfT-3" vertex="1">
          <mxGeometry x="40" y="35" width="120" height="60" as="geometry" />
        </mxCell>
        <mxCell id="ohH58lDGtkPAuC90KkfT-7" value="&lt;font style=&quot;font-size: 14px;&quot;&gt;Cone Reconstruction&lt;/font&gt;" style="rounded=1;whiteSpace=wrap;html=1;" parent="ohH58lDGtkPAuC90KkfT-3" vertex="1">
          <mxGeometry x="40" y="125" width="120" height="60" as="geometry" />
        </mxCell>
        <mxCell id="ohH58lDGtkPAuC90KkfT-8" value="" style="endArrow=classic;html=1;rounded=0;entryX=0.5;entryY=0;entryDx=0;entryDy=0;exitX=0.5;exitY=1;exitDx=0;exitDy=0;" parent="ohH58lDGtkPAuC90KkfT-3" source="ohH58lDGtkPAuC90KkfT-6" target="ohH58lDGtkPAuC90KkfT-7" edge="1">
          <mxGeometry width="50" height="50" relative="1" as="geometry">
            <mxPoint x="89" y="50" as="sourcePoint" />
            <mxPoint x="139" as="targetPoint" />
          </mxGeometry>
        </mxCell>
        <mxCell id="ohH58lDGtkPAuC90KkfT-9" value="&lt;font style=&quot;font-size: 14px;&quot;&gt;Cone Validation&lt;/font&gt;" style="rounded=1;whiteSpace=wrap;html=1;" parent="ohH58lDGtkPAuC90KkfT-3" vertex="1">
          <mxGeometry x="40" y="210" width="120" height="60" as="geometry" />
        </mxCell>
        <mxCell id="ohH58lDGtkPAuC90KkfT-10" style="edgeStyle=orthogonalEdgeStyle;rounded=0;orthogonalLoop=1;jettySize=auto;html=1;entryX=0.5;entryY=0;entryDx=0;entryDy=0;" parent="ohH58lDGtkPAuC90KkfT-3" source="ohH58lDGtkPAuC90KkfT-7" target="ohH58lDGtkPAuC90KkfT-9" edge="1">
          <mxGeometry relative="1" as="geometry" />
        </mxCell>
        <mxCell id="ohH58lDGtkPAuC90KkfT-11" value="" style="endArrow=classic;html=1;rounded=0;exitX=0.5;exitY=1;exitDx=0;exitDy=0;" parent="1" source="ohH58lDGtkPAuC90KkfT-17" edge="1">
          <mxGeometry width="50" height="50" relative="1" as="geometry">
            <mxPoint x="390.5" y="240" as="sourcePoint" />
            <mxPoint x="390.5" y="320" as="targetPoint" />
            <Array as="points">
              <mxPoint x="391" y="290" />
            </Array>
          </mxGeometry>
        </mxCell>
        <mxCell id="ohH58lDGtkPAuC90KkfT-12" value="&lt;font style=&quot;font-size: 14px;&quot;&gt;Velocity Correction&lt;/font&gt;" style="rounded=1;whiteSpace=wrap;html=1;" parent="1" vertex="1">
          <mxGeometry x="331" y="320" width="120" height="60" as="geometry" />
        </mxCell>
        <mxCell id="ohH58lDGtkPAuC90KkfT-13" value="&lt;div style=&quot;font-size: 14px;&quot;&gt;Ground Removal&lt;/div&gt;" style="rounded=1;whiteSpace=wrap;html=1;" parent="1" vertex="1">
          <mxGeometry x="331" y="410" width="120" height="60" as="geometry" />
        </mxCell>
        <mxCell id="ohH58lDGtkPAuC90KkfT-14" value="" style="endArrow=classic;html=1;rounded=0;" parent="1" edge="1">
          <mxGeometry width="50" height="50" relative="1" as="geometry">
            <mxPoint x="390.5" y="380" as="sourcePoint" />
            <mxPoint x="391" y="410" as="targetPoint" />
          </mxGeometry>
        </mxCell>
        <mxCell id="ohH58lDGtkPAuC90KkfT-15" value="" style="endArrow=classic;html=1;rounded=0;exitX=0.5;exitY=1;exitDx=0;exitDy=0;entryX=0.5;entryY=0;entryDx=0;entryDy=0;" parent="1" source="ohH58lDGtkPAuC90KkfT-13" target="ohH58lDGtkPAuC90KkfT-6" edge="1">
          <mxGeometry width="50" height="50" relative="1" as="geometry">
            <mxPoint x="611" y="480" as="sourcePoint" />
            <mxPoint x="611" y="510" as="targetPoint" />
          </mxGeometry>
        </mxCell>
        <mxCell id="ohH58lDGtkPAuC90KkfT-17" value="&lt;font style=&quot;font-size: 14px;&quot;&gt;Get LiDAR Point Cloud&lt;/font&gt;" style="rounded=1;whiteSpace=wrap;html=1;" parent="1" vertex="1">
          <mxGeometry x="330" y="180" width="120" height="60" as="geometry" />
        </mxCell>
        <mxCell id="ohH58lDGtkPAuC90KkfT-18" value="" style="edgeStyle=orthogonalEdgeStyle;rounded=0;orthogonalLoop=1;jettySize=auto;html=1;" parent="1" source="ohH58lDGtkPAuC90KkfT-19" target="ohH58lDGtkPAuC90KkfT-17" edge="1">
          <mxGeometry relative="1" as="geometry" />
        </mxCell>
        <mxCell id="ohH58lDGtkPAuC90KkfT-19" value="" style="ellipse;whiteSpace=wrap;html=1;aspect=fixed;fillColor=#000000;" parent="1" vertex="1">
          <mxGeometry x="380" y="130" width="20" height="20" as="geometry" />
        </mxCell>
        <mxCell id="ohH58lDGtkPAuC90KkfT-20" style="edgeStyle=orthogonalEdgeStyle;rounded=0;orthogonalLoop=1;jettySize=auto;html=1;entryX=0.5;entryY=0;entryDx=0;entryDy=0;exitX=0.5;exitY=1;exitDx=0;exitDy=0;" parent="1" source="ohH58lDGtkPAuC90KkfT-9" target="ohH58lDGtkPAuC90KkfT-22" edge="1">
          <mxGeometry relative="1" as="geometry">
            <mxPoint x="390" y="840" as="sourcePoint" />
          </mxGeometry>
        </mxCell>
        <mxCell id="ohH58lDGtkPAuC90KkfT-21" style="edgeStyle=orthogonalEdgeStyle;rounded=0;orthogonalLoop=1;jettySize=auto;html=1;entryX=0.5;entryY=0;entryDx=0;entryDy=0;" parent="1" source="ohH58lDGtkPAuC90KkfT-22" target="ohH58lDGtkPAuC90KkfT-48" edge="1">
          <mxGeometry relative="1" as="geometry">
            <mxPoint x="392" y="970" as="targetPoint" />
          </mxGeometry>
        </mxCell>
        <mxCell id="ohH58lDGtkPAuC90KkfT-22" value="&lt;font style=&quot;font-size: 14px;&quot;&gt;Color Estimation&lt;br&gt;&lt;/font&gt;" style="rounded=1;whiteSpace=wrap;html=1;" parent="1" vertex="1">
          <mxGeometry x="332" y="860" width="120" height="60" as="geometry" />
        </mxCell>
        <mxCell id="ohH58lDGtkPAuC90KkfT-23" value="Feature Extraction" style="swimlane;fillColor=#a20025;strokeColor=#6F0000;fontColor=#ffffff;" parent="1" vertex="1">
          <mxGeometry x="292" y="820" width="200" height="110" as="geometry" />
        </mxCell>
        <mxCell id="ohH58lDGtkPAuC90KkfT-47" style="edgeStyle=orthogonalEdgeStyle;rounded=0;orthogonalLoop=1;jettySize=auto;html=1;entryX=0.5;entryY=0;entryDx=0;entryDy=0;" parent="1" source="ohH58lDGtkPAuC90KkfT-48" target="ohH58lDGtkPAuC90KkfT-54" edge="1">
          <mxGeometry relative="1" as="geometry" />
        </mxCell>
        <mxCell id="ohH58lDGtkPAuC90KkfT-48" value="Get Cone Coordinates" style="rounded=1;whiteSpace=wrap;html=1;fontSize=12;glass=0;strokeWidth=1;shadow=0;" parent="1" vertex="1">
          <mxGeometry x="140" y="1110" width="120" height="50" as="geometry" />
        </mxCell>
        <mxCell id="ohH58lDGtkPAuC90KkfT-49" style="edgeStyle=orthogonalEdgeStyle;rounded=0;orthogonalLoop=1;jettySize=auto;html=1;entryX=0.5;entryY=0;entryDx=0;entryDy=0;" parent="1" source="ohH58lDGtkPAuC90KkfT-50" target="ohH58lDGtkPAuC90KkfT-52" edge="1">
          <mxGeometry relative="1" as="geometry" />
        </mxCell>
        <mxCell id="ohH58lDGtkPAuC90KkfT-50" value="Get IMU/WSS Data" style="rounded=1;whiteSpace=wrap;html=1;fontSize=12;glass=0;strokeWidth=1;shadow=0;" parent="1" vertex="1">
          <mxGeometry x="450" y="1110" width="120" height="50" as="geometry" />
        </mxCell>
        <mxCell id="ohH58lDGtkPAuC90KkfT-51" style="edgeStyle=orthogonalEdgeStyle;rounded=0;orthogonalLoop=1;jettySize=auto;html=1;entryX=0.5;entryY=0;entryDx=0;entryDy=0;" parent="1" source="ohH58lDGtkPAuC90KkfT-52" target="ohH58lDGtkPAuC90KkfT-57" edge="1">
          <mxGeometry relative="1" as="geometry" />
        </mxCell>
        <mxCell id="ohH58lDGtkPAuC90KkfT-52" value="EKF executes Prediction Step" style="rounded=1;whiteSpace=wrap;html=1;fontSize=12;glass=0;strokeWidth=1;shadow=0;" parent="1" vertex="1">
          <mxGeometry x="450" y="1265" width="120" height="40" as="geometry" />
        </mxCell>
        <mxCell id="ohH58lDGtkPAuC90KkfT-53" style="edgeStyle=orthogonalEdgeStyle;rounded=0;orthogonalLoop=1;jettySize=auto;html=1;entryX=0.5;entryY=0;entryDx=0;entryDy=0;" parent="1" source="ohH58lDGtkPAuC90KkfT-54" target="ohH58lDGtkPAuC90KkfT-56" edge="1">
          <mxGeometry relative="1" as="geometry" />
        </mxCell>
        <mxCell id="ohH58lDGtkPAuC90KkfT-54" value="EKF performs data association" style="rounded=1;whiteSpace=wrap;html=1;fontSize=12;glass=0;strokeWidth=1;shadow=0;" parent="1" vertex="1">
          <mxGeometry x="140" y="1195" width="120" height="40" as="geometry" />
        </mxCell>
        <mxCell id="ohH58lDGtkPAuC90KkfT-55" style="edgeStyle=orthogonalEdgeStyle;rounded=0;orthogonalLoop=1;jettySize=auto;html=1;entryX=0.5;entryY=0;entryDx=0;entryDy=0;" parent="1" source="ohH58lDGtkPAuC90KkfT-56" target="ohH58lDGtkPAuC90KkfT-57" edge="1">
          <mxGeometry relative="1" as="geometry" />
        </mxCell>
        <mxCell id="ohH58lDGtkPAuC90KkfT-56" value="EKF performs correction step" style="rounded=1;whiteSpace=wrap;html=1;fontSize=12;glass=0;strokeWidth=1;shadow=0;" parent="1" vertex="1">
          <mxGeometry x="140" y="1265" width="120" height="40" as="geometry" />
        </mxCell>
        <mxCell id="ohH58lDGtkPAuC90KkfT-113" style="edgeStyle=orthogonalEdgeStyle;rounded=0;orthogonalLoop=1;jettySize=auto;html=1;entryX=0.5;entryY=0;entryDx=0;entryDy=0;" parent="1" source="ohH58lDGtkPAuC90KkfT-57" target="ohH58lDGtkPAuC90KkfT-87" edge="1">
          <mxGeometry relative="1" as="geometry">
            <Array as="points">
              <mxPoint x="750" y="1345" />
              <mxPoint x="750" y="110" />
              <mxPoint x="901" y="110" />
            </Array>
          </mxGeometry>
        </mxCell>
        <mxCell id="ohH58lDGtkPAuC90KkfT-57" value="EKF updates state (pose and map)" style="rounded=1;whiteSpace=wrap;html=1;fontSize=12;glass=0;strokeWidth=1;shadow=0;" parent="1" vertex="1">
          <mxGeometry x="290" y="1325" width="120" height="40" as="geometry" />
        </mxCell>
        <mxCell id="ohH58lDGtkPAuC90KkfT-58" style="edgeStyle=orthogonalEdgeStyle;rounded=0;orthogonalLoop=1;jettySize=auto;html=1;exitX=0.5;exitY=1;exitDx=0;exitDy=0;" parent="1" source="ohH58lDGtkPAuC90KkfT-52" target="ohH58lDGtkPAuC90KkfT-52" edge="1">
          <mxGeometry relative="1" as="geometry" />
        </mxCell>
        <mxCell id="ohH58lDGtkPAuC90KkfT-59" style="edgeStyle=orthogonalEdgeStyle;rounded=0;orthogonalLoop=1;jettySize=auto;html=1;entryX=1;entryY=0.5;entryDx=0;entryDy=0;exitX=0.5;exitY=1;exitDx=0;exitDy=0;" parent="1" source="ohH58lDGtkPAuC90KkfT-60" target="ohH58lDGtkPAuC90KkfT-52" edge="1">
          <mxGeometry relative="1" as="geometry" />
        </mxCell>
        <mxCell id="ohH58lDGtkPAuC90KkfT-60" value="Get KISS ICP Data" style="rounded=1;whiteSpace=wrap;html=1;fontSize=12;glass=0;strokeWidth=1;shadow=0;" parent="1" vertex="1">
          <mxGeometry x="610" y="1110" width="120" height="50" as="geometry" />
        </mxCell>
        <mxCell id="ohH58lDGtkPAuC90KkfT-63" style="edgeStyle=orthogonalEdgeStyle;rounded=0;orthogonalLoop=1;jettySize=auto;html=1;entryX=0.5;entryY=0;entryDx=0;entryDy=0;" parent="1" source="ohH58lDGtkPAuC90KkfT-64" target="ohH58lDGtkPAuC90KkfT-50" edge="1">
          <mxGeometry relative="1" as="geometry" />
        </mxCell>
        <mxCell id="ohH58lDGtkPAuC90KkfT-64" value="" style="ellipse;whiteSpace=wrap;html=1;aspect=fixed;fillColor=#000000;" parent="1" vertex="1">
          <mxGeometry x="500" y="1050" width="20" height="20" as="geometry" />
        </mxCell>
        <mxCell id="ohH58lDGtkPAuC90KkfT-65" style="edgeStyle=orthogonalEdgeStyle;rounded=0;orthogonalLoop=1;jettySize=auto;html=1;entryX=0.5;entryY=0;entryDx=0;entryDy=0;" parent="1" source="ohH58lDGtkPAuC90KkfT-66" target="ohH58lDGtkPAuC90KkfT-60" edge="1">
          <mxGeometry relative="1" as="geometry" />
        </mxCell>
        <mxCell id="ohH58lDGtkPAuC90KkfT-66" value="" style="ellipse;whiteSpace=wrap;html=1;aspect=fixed;fillColor=#000000;" parent="1" vertex="1">
          <mxGeometry x="660" y="1050" width="20" height="20" as="geometry" />
        </mxCell>
        <mxCell id="ohH58lDGtkPAuC90KkfT-67" value="&lt;font style=&quot;font-size: 14px;&quot;&gt;Calculate error&lt;/font&gt;" style="rounded=1;whiteSpace=wrap;html=1;" parent="1" vertex="1">
          <mxGeometry x="840" y="840" width="120" height="60" as="geometry" />
        </mxCell>
        <mxCell id="ohH58lDGtkPAuC90KkfT-68" value="&lt;font style=&quot;font-size: 14px;&quot;&gt;PID framework&lt;/font&gt;" style="rounded=1;whiteSpace=wrap;html=1;" parent="1" vertex="1">
          <mxGeometry x="840" y="930" width="120" height="60" as="geometry" />
        </mxCell>
        <mxCell id="ohH58lDGtkPAuC90KkfT-69" value="" style="endArrow=classic;html=1;rounded=0;entryX=0.5;entryY=0;entryDx=0;entryDy=0;exitX=0.5;exitY=1;exitDx=0;exitDy=0;" parent="1" source="ohH58lDGtkPAuC90KkfT-67" target="ohH58lDGtkPAuC90KkfT-68" edge="1">
          <mxGeometry width="50" height="50" relative="1" as="geometry">
            <mxPoint x="910" y="950" as="sourcePoint" />
            <mxPoint x="960" y="900" as="targetPoint" />
          </mxGeometry>
        </mxCell>
        <mxCell id="ohH58lDGtkPAuC90KkfT-70" value="" style="endArrow=classic;html=1;rounded=0;exitX=0.5;exitY=1;exitDx=0;exitDy=0;" parent="1" source="ohH58lDGtkPAuC90KkfT-68" edge="1">
          <mxGeometry width="50" height="50" relative="1" as="geometry">
            <mxPoint x="920" y="1130" as="sourcePoint" />
            <mxPoint x="900" y="1030" as="targetPoint" />
          </mxGeometry>
        </mxCell>
        <mxCell id="ohH58lDGtkPAuC90KkfT-71" value="" style="ellipse;html=1;shape=endState;fillColor=#000000;strokeColor=#ff0000;" parent="1" vertex="1">
          <mxGeometry x="885" y="1130" width="30" height="30" as="geometry" />
        </mxCell>
        <mxCell id="ohH58lDGtkPAuC90KkfT-73" value="&lt;font style=&quot;font-size: 14px;&quot;&gt;Get current and ideal velocity&lt;/font&gt;" style="rounded=1;whiteSpace=wrap;html=1;" parent="1" vertex="1">
          <mxGeometry x="840" y="740" width="120" height="60" as="geometry" />
        </mxCell>
        <mxCell id="ohH58lDGtkPAuC90KkfT-74" value="" style="endArrow=classic;html=1;rounded=0;entryX=0.5;entryY=0;entryDx=0;entryDy=0;exitX=0.5;exitY=1;exitDx=0;exitDy=0;" parent="1" source="ohH58lDGtkPAuC90KkfT-90" target="ohH58lDGtkPAuC90KkfT-73" edge="1">
          <mxGeometry width="50" height="50" relative="1" as="geometry">
            <mxPoint x="900" y="690" as="sourcePoint" />
            <mxPoint x="850" y="630" as="targetPoint" />
          </mxGeometry>
        </mxCell>
        <mxCell id="ohH58lDGtkPAuC90KkfT-75" value="" style="endArrow=classic;html=1;rounded=0;entryX=0.5;entryY=0;entryDx=0;entryDy=0;exitX=0.5;exitY=1;exitDx=0;exitDy=0;" parent="1" source="ohH58lDGtkPAuC90KkfT-73" target="ohH58lDGtkPAuC90KkfT-67" edge="1">
          <mxGeometry width="50" height="50" relative="1" as="geometry">
            <mxPoint x="760" y="870" as="sourcePoint" />
            <mxPoint x="810" y="820" as="targetPoint" />
          </mxGeometry>
        </mxCell>
        <mxCell id="ohH58lDGtkPAuC90KkfT-76" value="&lt;font style=&quot;font-size: 14px;&quot;&gt;Publish torque command&lt;/font&gt;" style="rounded=1;whiteSpace=wrap;html=1;" parent="1" vertex="1">
          <mxGeometry x="840" y="1030" width="120" height="60" as="geometry" />
        </mxCell>
        <mxCell id="ohH58lDGtkPAuC90KkfT-77" value="" style="endArrow=classic;html=1;rounded=0;entryX=0.5;entryY=0;entryDx=0;entryDy=0;exitX=0.5;exitY=1;exitDx=0;exitDy=0;" parent="1" source="ohH58lDGtkPAuC90KkfT-76" target="ohH58lDGtkPAuC90KkfT-71" edge="1">
          <mxGeometry width="50" height="50" relative="1" as="geometry">
            <mxPoint x="760" y="980" as="sourcePoint" />
            <mxPoint x="810" y="930" as="targetPoint" />
          </mxGeometry>
        </mxCell>
        <mxCell id="ohH58lDGtkPAuC90KkfT-78" value="" style="endArrow=classic;html=1;rounded=0;" parent="1" edge="1">
          <mxGeometry width="50" height="50" relative="1" as="geometry">
            <mxPoint x="900.5" y="140" as="sourcePoint" />
            <mxPoint x="900.5" y="220" as="targetPoint" />
          </mxGeometry>
        </mxCell>
        <mxCell id="ohH58lDGtkPAuC90KkfT-79" value="&lt;font style=&quot;font-size: 14px;&quot;&gt;Remove outliers using splines&lt;/font&gt;" style="rounded=1;whiteSpace=wrap;html=1;" parent="1" vertex="1">
          <mxGeometry x="841" y="220" width="120" height="60" as="geometry" />
        </mxCell>
        <mxCell id="ohH58lDGtkPAuC90KkfT-80" value="&lt;div style=&quot;font-size: 14px;&quot;&gt;&lt;font style=&quot;font-size: 14px;&quot;&gt;Delaunay&lt;/font&gt;&lt;/div&gt;&lt;div style=&quot;font-size: 14px;&quot;&gt;&lt;font style=&quot;font-size: 14px;&quot;&gt;triangulations&lt;/font&gt;&lt;/div&gt;" style="rounded=1;whiteSpace=wrap;html=1;" parent="1" vertex="1">
          <mxGeometry x="841" y="310" width="120" height="60" as="geometry" />
        </mxCell>
        <mxCell id="ohH58lDGtkPAuC90KkfT-81" value="" style="endArrow=classic;html=1;rounded=0;" parent="1" edge="1">
          <mxGeometry width="50" height="50" relative="1" as="geometry">
            <mxPoint x="900.5" y="280" as="sourcePoint" />
            <mxPoint x="901" y="310" as="targetPoint" />
          </mxGeometry>
        </mxCell>
        <mxCell id="ohH58lDGtkPAuC90KkfT-82" value="&lt;font style=&quot;font-size: 14px;&quot;&gt;Add points and smooth the path&lt;/font&gt;" style="rounded=1;whiteSpace=wrap;html=1;" parent="1" vertex="1">
          <mxGeometry x="841" y="400" width="120" height="60" as="geometry" />
        </mxCell>
        <mxCell id="ohH58lDGtkPAuC90KkfT-83" value="" style="endArrow=classic;html=1;rounded=0;exitX=0.5;exitY=1;exitDx=0;exitDy=0;entryX=0.5;entryY=0;entryDx=0;entryDy=0;" parent="1" source="ohH58lDGtkPAuC90KkfT-80" target="ohH58lDGtkPAuC90KkfT-82" edge="1">
          <mxGeometry width="50" height="50" relative="1" as="geometry">
            <mxPoint x="1121" y="380" as="sourcePoint" />
            <mxPoint x="1121" y="410" as="targetPoint" />
          </mxGeometry>
        </mxCell>
        <mxCell id="ohH58lDGtkPAuC90KkfT-84" value="&lt;font style=&quot;font-size: 14px;&quot;&gt;Associate each point with an ideal velocity&lt;/font&gt;" style="rounded=1;whiteSpace=wrap;html=1;" parent="1" vertex="1">
          <mxGeometry x="841" y="490" width="120" height="60" as="geometry" />
        </mxCell>
        <mxCell id="ohH58lDGtkPAuC90KkfT-85" value="" style="endArrow=classic;html=1;rounded=0;entryX=0.5;entryY=0;entryDx=0;entryDy=0;exitX=0.5;exitY=1;exitDx=0;exitDy=0;" parent="1" source="ohH58lDGtkPAuC90KkfT-82" target="ohH58lDGtkPAuC90KkfT-84" edge="1">
          <mxGeometry width="50" height="50" relative="1" as="geometry">
            <mxPoint x="891" y="450" as="sourcePoint" />
            <mxPoint x="941" y="400" as="targetPoint" />
          </mxGeometry>
        </mxCell>
        <mxCell id="ohH58lDGtkPAuC90KkfT-87" value="&lt;font style=&quot;font-size: 14px;&quot;&gt;Get array of cones&lt;/font&gt;" style="rounded=1;whiteSpace=wrap;html=1;" parent="1" vertex="1">
          <mxGeometry x="841" y="130" width="120" height="60" as="geometry" />
        </mxCell>
        <mxCell id="ohH58lDGtkPAuC90KkfT-132" style="edgeStyle=orthogonalEdgeStyle;rounded=0;orthogonalLoop=1;jettySize=auto;html=1;entryX=0.5;entryY=0;entryDx=0;entryDy=0;" parent="1" source="ohH58lDGtkPAuC90KkfT-90" target="ohH58lDGtkPAuC90KkfT-96" edge="1">
          <mxGeometry relative="1" as="geometry" />
        </mxCell>
        <mxCell id="ohH58lDGtkPAuC90KkfT-90" value="&lt;font style=&quot;font-size: 14px;&quot;&gt;Publish array of cones in the path&lt;/font&gt;" style="rounded=1;whiteSpace=wrap;html=1;" parent="1" vertex="1">
          <mxGeometry x="840" y="580" width="120" height="60" as="geometry" />
        </mxCell>
        <mxCell id="ohH58lDGtkPAuC90KkfT-91" value="" style="endArrow=classic;html=1;rounded=0;" parent="1" edge="1">
          <mxGeometry width="50" height="50" relative="1" as="geometry">
            <mxPoint x="901" y="550" as="sourcePoint" />
            <mxPoint x="901" y="580" as="targetPoint" />
          </mxGeometry>
        </mxCell>
        <mxCell id="ohH58lDGtkPAuC90KkfT-95" style="edgeStyle=orthogonalEdgeStyle;rounded=0;orthogonalLoop=1;jettySize=auto;html=1;exitX=0.5;exitY=1;exitDx=0;exitDy=0;" parent="1" source="ohH58lDGtkPAuC90KkfT-96" target="ohH58lDGtkPAuC90KkfT-99" edge="1">
          <mxGeometry relative="1" as="geometry" />
        </mxCell>
        <mxCell id="ohH58lDGtkPAuC90KkfT-96" value="Get Desired Path and Vehicle State" style="rounded=1;whiteSpace=wrap;html=1;" parent="1" vertex="1">
          <mxGeometry x="1154.5" y="740" width="111" height="40" as="geometry" />
        </mxCell>
        <mxCell id="ohH58lDGtkPAuC90KkfT-97" style="edgeStyle=orthogonalEdgeStyle;rounded=0;orthogonalLoop=1;jettySize=auto;html=1;exitX=0;exitY=0.5;exitDx=0;exitDy=0;entryX=0.5;entryY=0;entryDx=0;entryDy=0;" parent="1" source="ohH58lDGtkPAuC90KkfT-99" target="ohH58lDGtkPAuC90KkfT-101" edge="1">
          <mxGeometry relative="1" as="geometry" />
        </mxCell>
        <mxCell id="ohH58lDGtkPAuC90KkfT-98" style="edgeStyle=orthogonalEdgeStyle;rounded=0;orthogonalLoop=1;jettySize=auto;html=1;exitX=1;exitY=0.5;exitDx=0;exitDy=0;entryX=0.5;entryY=0;entryDx=0;entryDy=0;" parent="1" source="ohH58lDGtkPAuC90KkfT-99" target="ohH58lDGtkPAuC90KkfT-103" edge="1">
          <mxGeometry relative="1" as="geometry" />
        </mxCell>
        <mxCell id="ohH58lDGtkPAuC90KkfT-99" value="Mission" style="rhombus;whiteSpace=wrap;html=1;" parent="1" vertex="1">
          <mxGeometry x="1149.5" y="820" width="121" height="60" as="geometry" />
        </mxCell>
        <mxCell id="ohH58lDGtkPAuC90KkfT-100" style="edgeStyle=orthogonalEdgeStyle;rounded=0;orthogonalLoop=1;jettySize=auto;html=1;exitX=0.5;exitY=1;exitDx=0;exitDy=0;entryX=0.5;entryY=0;entryDx=0;entryDy=0;" parent="1" source="ohH58lDGtkPAuC90KkfT-101" target="ohH58lDGtkPAuC90KkfT-107" edge="1">
          <mxGeometry relative="1" as="geometry" />
        </mxCell>
        <mxCell id="ohH58lDGtkPAuC90KkfT-101" value="Calculate heading&amp;nbsp; cross-track error" style="rounded=1;whiteSpace=wrap;html=1;" parent="1" vertex="1">
          <mxGeometry x="1020" y="900" width="111" height="40" as="geometry" />
        </mxCell>
        <mxCell id="ohH58lDGtkPAuC90KkfT-102" style="edgeStyle=orthogonalEdgeStyle;rounded=0;orthogonalLoop=1;jettySize=auto;html=1;exitX=0.5;exitY=1;exitDx=0;exitDy=0;" parent="1" source="ohH58lDGtkPAuC90KkfT-103" target="ohH58lDGtkPAuC90KkfT-105" edge="1">
          <mxGeometry relative="1" as="geometry" />
        </mxCell>
        <mxCell id="ohH58lDGtkPAuC90KkfT-103" value="Get Look-ahead distance" style="rounded=1;whiteSpace=wrap;html=1;" parent="1" vertex="1">
          <mxGeometry x="1290" y="900" width="111" height="40" as="geometry" />
        </mxCell>
        <mxCell id="ohH58lDGtkPAuC90KkfT-104" style="edgeStyle=orthogonalEdgeStyle;rounded=0;orthogonalLoop=1;jettySize=auto;html=1;exitX=0.5;exitY=1;exitDx=0;exitDy=0;entryX=1;entryY=0.5;entryDx=0;entryDy=0;" parent="1" source="ohH58lDGtkPAuC90KkfT-105" target="ohH58lDGtkPAuC90KkfT-109" edge="1">
          <mxGeometry relative="1" as="geometry" />
        </mxCell>
        <mxCell id="ohH58lDGtkPAuC90KkfT-105" value="Pure Pursuit control Law" style="rounded=1;whiteSpace=wrap;html=1;" parent="1" vertex="1">
          <mxGeometry x="1290" y="980" width="111" height="40" as="geometry" />
        </mxCell>
        <mxCell id="ohH58lDGtkPAuC90KkfT-106" style="edgeStyle=orthogonalEdgeStyle;rounded=0;orthogonalLoop=1;jettySize=auto;html=1;exitX=0.5;exitY=1;exitDx=0;exitDy=0;entryX=0;entryY=0.5;entryDx=0;entryDy=0;" parent="1" source="ohH58lDGtkPAuC90KkfT-107" target="ohH58lDGtkPAuC90KkfT-109" edge="1">
          <mxGeometry relative="1" as="geometry" />
        </mxCell>
        <mxCell id="ohH58lDGtkPAuC90KkfT-107" value="Stanley control Law" style="rounded=1;whiteSpace=wrap;html=1;" parent="1" vertex="1">
          <mxGeometry x="1020" y="980" width="111" height="40" as="geometry" />
        </mxCell>
        <mxCell id="ohH58lDGtkPAuC90KkfT-108" style="edgeStyle=orthogonalEdgeStyle;rounded=0;orthogonalLoop=1;jettySize=auto;html=1;exitX=0.5;exitY=1;exitDx=0;exitDy=0;entryX=0.5;entryY=0;entryDx=0;entryDy=0;" parent="1" source="ohH58lDGtkPAuC90KkfT-109" target="ohH58lDGtkPAuC90KkfT-110" edge="1">
          <mxGeometry relative="1" as="geometry">
            <mxPoint x="1210" y="1140" as="targetPoint" />
          </mxGeometry>
        </mxCell>
        <mxCell id="ohH58lDGtkPAuC90KkfT-109" value="Publish Steering Command" style="rounded=1;whiteSpace=wrap;html=1;" parent="1" vertex="1">
          <mxGeometry x="1154.5" y="1060" width="111" height="40" as="geometry" />
        </mxCell>
        <mxCell id="ohH58lDGtkPAuC90KkfT-110" value="" style="ellipse;html=1;shape=endState;fillColor=#000000;strokeColor=#ff0000;" parent="1" vertex="1">
          <mxGeometry x="1195" y="1135" width="30" height="30" as="geometry" />
        </mxCell>
        <mxCell id="ohH58lDGtkPAuC90KkfT-111" value="Acceleration" style="text;html=1;align=center;verticalAlign=middle;resizable=0;points=[];autosize=1;strokeColor=none;fillColor=none;" parent="1" vertex="1">
          <mxGeometry x="1064.5" y="850" width="90" height="30" as="geometry" />
        </mxCell>
        <mxCell id="ohH58lDGtkPAuC90KkfT-112" value="Other than &lt;br&gt;acceleration" style="text;html=1;align=center;verticalAlign=middle;resizable=0;points=[];autosize=1;strokeColor=none;fillColor=none;" parent="1" vertex="1">
          <mxGeometry x="1265.5" y="850" width="90" height="40" as="geometry" />
        </mxCell>
        <mxCell id="ohH58lDGtkPAuC90KkfT-122" value="Perception" style="swimlane;fillColor=#a20025;strokeColor=#6F0000;fontColor=#ffffff;" parent="1" vertex="1">
          <mxGeometry x="240" y="100" width="310" height="850" as="geometry" />
        </mxCell>
        <mxCell id="ohH58lDGtkPAuC90KkfT-123" style="edgeStyle=orthogonalEdgeStyle;rounded=0;orthogonalLoop=1;jettySize=auto;html=1;exitX=0.5;exitY=1;exitDx=0;exitDy=0;entryX=0.5;entryY=0;entryDx=0;entryDy=0;" parent="ohH58lDGtkPAuC90KkfT-122" edge="1">
          <mxGeometry relative="1" as="geometry">
            <mxPoint x="100" y="80" as="sourcePoint" />
          </mxGeometry>
        </mxCell>
        <mxCell id="ohH58lDGtkPAuC90KkfT-124" style="edgeStyle=orthogonalEdgeStyle;rounded=0;orthogonalLoop=1;jettySize=auto;html=1;exitX=0.5;exitY=1;exitDx=0;exitDy=0;entryX=0.5;entryY=0;entryDx=0;entryDy=0;" parent="ohH58lDGtkPAuC90KkfT-122" edge="1">
          <mxGeometry relative="1" as="geometry">
            <mxPoint x="100" y="140" as="sourcePoint" />
          </mxGeometry>
        </mxCell>
        <mxCell id="ohH58lDGtkPAuC90KkfT-129" style="edgeStyle=orthogonalEdgeStyle;rounded=0;orthogonalLoop=1;jettySize=auto;html=1;entryX=0.5;entryY=0;entryDx=0;entryDy=0;" parent="ohH58lDGtkPAuC90KkfT-122" edge="1">
          <mxGeometry relative="1" as="geometry">
            <mxPoint x="100" y="210" as="targetPoint" />
          </mxGeometry>
        </mxCell>
        <mxCell id="ohH58lDGtkPAuC90KkfT-139" value="EKF SLAM" style="swimlane;fillColor=#a20025;strokeColor=#6F0000;fontColor=#ffffff;" parent="1" vertex="1">
          <mxGeometry x="100" y="980" width="640" height="410" as="geometry" />
        </mxCell>
        <mxCell id="ohH58lDGtkPAuC90KkfT-140" style="edgeStyle=orthogonalEdgeStyle;rounded=0;orthogonalLoop=1;jettySize=auto;html=1;exitX=0.5;exitY=1;exitDx=0;exitDy=0;entryX=0.5;entryY=0;entryDx=0;entryDy=0;" parent="ohH58lDGtkPAuC90KkfT-139" edge="1">
          <mxGeometry relative="1" as="geometry">
            <mxPoint x="100" y="80" as="sourcePoint" />
          </mxGeometry>
        </mxCell>
        <mxCell id="ohH58lDGtkPAuC90KkfT-141" style="edgeStyle=orthogonalEdgeStyle;rounded=0;orthogonalLoop=1;jettySize=auto;html=1;exitX=0.5;exitY=1;exitDx=0;exitDy=0;entryX=0.5;entryY=0;entryDx=0;entryDy=0;" parent="ohH58lDGtkPAuC90KkfT-139" edge="1">
          <mxGeometry relative="1" as="geometry">
            <mxPoint x="100" y="140" as="sourcePoint" />
          </mxGeometry>
        </mxCell>
        <mxCell id="ohH58lDGtkPAuC90KkfT-142" style="edgeStyle=orthogonalEdgeStyle;rounded=0;orthogonalLoop=1;jettySize=auto;html=1;entryX=0.5;entryY=0;entryDx=0;entryDy=0;" parent="ohH58lDGtkPAuC90KkfT-139" edge="1">
          <mxGeometry relative="1" as="geometry">
            <mxPoint x="100" y="210" as="targetPoint" />
          </mxGeometry>
        </mxCell>
        <mxCell id="ohH58lDGtkPAuC90KkfT-143" value="Planning" style="swimlane;fillColor=#a20025;strokeColor=#6F0000;fontColor=#ffffff;" parent="1" vertex="1">
          <mxGeometry x="800" y="70" width="190" height="590" as="geometry" />
        </mxCell>
        <mxCell id="ohH58lDGtkPAuC90KkfT-144" style="edgeStyle=orthogonalEdgeStyle;rounded=0;orthogonalLoop=1;jettySize=auto;html=1;exitX=0.5;exitY=1;exitDx=0;exitDy=0;entryX=0.5;entryY=0;entryDx=0;entryDy=0;" parent="ohH58lDGtkPAuC90KkfT-143" edge="1">
          <mxGeometry relative="1" as="geometry">
            <mxPoint x="100" y="80" as="sourcePoint" />
          </mxGeometry>
        </mxCell>
        <mxCell id="ohH58lDGtkPAuC90KkfT-145" style="edgeStyle=orthogonalEdgeStyle;rounded=0;orthogonalLoop=1;jettySize=auto;html=1;exitX=0.5;exitY=1;exitDx=0;exitDy=0;entryX=0.5;entryY=0;entryDx=0;entryDy=0;" parent="ohH58lDGtkPAuC90KkfT-143" edge="1">
          <mxGeometry relative="1" as="geometry">
            <mxPoint x="100" y="140" as="sourcePoint" />
          </mxGeometry>
        </mxCell>
        <mxCell id="ohH58lDGtkPAuC90KkfT-146" style="edgeStyle=orthogonalEdgeStyle;rounded=0;orthogonalLoop=1;jettySize=auto;html=1;entryX=0.5;entryY=0;entryDx=0;entryDy=0;" parent="ohH58lDGtkPAuC90KkfT-143" edge="1">
          <mxGeometry relative="1" as="geometry">
            <mxPoint x="100" y="210" as="targetPoint" />
          </mxGeometry>
        </mxCell>
        <mxCell id="ohH58lDGtkPAuC90KkfT-147" value="Lateral Control" style="swimlane;fillColor=#a20025;strokeColor=#6F0000;fontColor=#ffffff;" parent="1" vertex="1">
          <mxGeometry x="1010" y="680" width="410" height="500" as="geometry" />
        </mxCell>
        <mxCell id="ohH58lDGtkPAuC90KkfT-148" style="edgeStyle=orthogonalEdgeStyle;rounded=0;orthogonalLoop=1;jettySize=auto;html=1;exitX=0.5;exitY=1;exitDx=0;exitDy=0;entryX=0.5;entryY=0;entryDx=0;entryDy=0;" parent="ohH58lDGtkPAuC90KkfT-147" edge="1">
          <mxGeometry relative="1" as="geometry">
            <mxPoint x="100" y="80" as="sourcePoint" />
          </mxGeometry>
        </mxCell>
        <mxCell id="ohH58lDGtkPAuC90KkfT-149" style="edgeStyle=orthogonalEdgeStyle;rounded=0;orthogonalLoop=1;jettySize=auto;html=1;exitX=0.5;exitY=1;exitDx=0;exitDy=0;entryX=0.5;entryY=0;entryDx=0;entryDy=0;" parent="ohH58lDGtkPAuC90KkfT-147" edge="1">
          <mxGeometry relative="1" as="geometry">
            <mxPoint x="100" y="140" as="sourcePoint" />
          </mxGeometry>
        </mxCell>
        <mxCell id="ohH58lDGtkPAuC90KkfT-150" style="edgeStyle=orthogonalEdgeStyle;rounded=0;orthogonalLoop=1;jettySize=auto;html=1;entryX=0.5;entryY=0;entryDx=0;entryDy=0;" parent="ohH58lDGtkPAuC90KkfT-147" edge="1">
          <mxGeometry relative="1" as="geometry">
            <mxPoint x="100" y="210" as="targetPoint" />
          </mxGeometry>
        </mxCell>
        <mxCell id="ohH58lDGtkPAuC90KkfT-133" value="Longitudinal Control" style="swimlane;fillColor=#a20025;strokeColor=#6F0000;fontColor=#ffffff;" parent="1" vertex="1">
          <mxGeometry x="800" y="680" width="190" height="500" as="geometry" />
        </mxCell>
        <mxCell id="ohH58lDGtkPAuC90KkfT-134" style="edgeStyle=orthogonalEdgeStyle;rounded=0;orthogonalLoop=1;jettySize=auto;html=1;exitX=0.5;exitY=1;exitDx=0;exitDy=0;entryX=0.5;entryY=0;entryDx=0;entryDy=0;" parent="ohH58lDGtkPAuC90KkfT-133" edge="1">
          <mxGeometry relative="1" as="geometry">
            <mxPoint x="100" y="80" as="sourcePoint" />
          </mxGeometry>
        </mxCell>
        <mxCell id="ohH58lDGtkPAuC90KkfT-135" style="edgeStyle=orthogonalEdgeStyle;rounded=0;orthogonalLoop=1;jettySize=auto;html=1;exitX=0.5;exitY=1;exitDx=0;exitDy=0;entryX=0.5;entryY=0;entryDx=0;entryDy=0;" parent="ohH58lDGtkPAuC90KkfT-133" edge="1">
          <mxGeometry relative="1" as="geometry">
            <mxPoint x="100" y="140" as="sourcePoint" />
          </mxGeometry>
        </mxCell>
        <mxCell id="ohH58lDGtkPAuC90KkfT-137" style="edgeStyle=orthogonalEdgeStyle;rounded=0;orthogonalLoop=1;jettySize=auto;html=1;entryX=0.5;entryY=0;entryDx=0;entryDy=0;" parent="ohH58lDGtkPAuC90KkfT-133" edge="1">
          <mxGeometry relative="1" as="geometry">
            <mxPoint x="100" y="210" as="targetPoint" />
          </mxGeometry>
        </mxCell>
      </root>
    </mxGraphModel>
  </diagram>
  <diagram id="35U2tsVHWDkaxaZ4Ipsn" name="FULL FULL">
    <mxGraphModel grid="1" page="1" gridSize="10" guides="1" tooltips="1" connect="1" arrows="1" fold="1" pageScale="1" pageWidth="850" pageHeight="1100" math="0" shadow="0">
      <root>
        <mxCell id="0" />
        <mxCell id="1" parent="0" />
        <mxCell id="qac7rIhTm3O5_2_K3VaP-21" value="&lt;b&gt;AS CU&lt;/b&gt;" style="verticalAlign=top;align=left;spacingTop=8;spacingLeft=2;spacingRight=12;shape=cube;size=10;direction=south;fontStyle=4;html=1;whiteSpace=wrap;" vertex="1" parent="1">
          <mxGeometry x="420" y="20" width="400" height="780" as="geometry" />
        </mxCell>
        <mxCell id="qac7rIhTm3O5_2_K3VaP-25" style="edgeStyle=orthogonalEdgeStyle;rounded=0;orthogonalLoop=1;jettySize=auto;html=1;entryX=0;entryY=0.5;entryDx=0;entryDy=0;strokeColor=#E08093;" edge="1" parent="1" source="yj_8FsxdMn1lCZBzfEJP-1" target="yj_8FsxdMn1lCZBzfEJP-8">
          <mxGeometry relative="1" as="geometry">
            <Array as="points">
              <mxPoint x="720" y="380" />
              <mxPoint x="620" y="380" />
              <mxPoint x="620" y="490" />
            </Array>
          </mxGeometry>
        </mxCell>
        <mxCell id="qac7rIhTm3O5_2_K3VaP-66" style="edgeStyle=orthogonalEdgeStyle;rounded=0;orthogonalLoop=1;jettySize=auto;html=1;entryX=1;entryY=0.5;entryDx=0;entryDy=0;exitX=0.5;exitY=1;exitDx=0;exitDy=0;strokeColor=#E08093;" edge="1" parent="1" source="yj_8FsxdMn1lCZBzfEJP-1" target="yj_8FsxdMn1lCZBzfEJP-3">
          <mxGeometry relative="1" as="geometry">
            <Array as="points">
              <mxPoint x="720" y="380" />
              <mxPoint x="620" y="380" />
              <mxPoint x="620" y="650" />
            </Array>
          </mxGeometry>
        </mxCell>
        <mxCell id="qac7rIhTm3O5_2_K3VaP-67" value="Pose &amp;amp; Map" style="edgeLabel;html=1;align=center;verticalAlign=middle;resizable=0;points=[];" vertex="1" connectable="0" parent="qac7rIhTm3O5_2_K3VaP-66">
          <mxGeometry x="-0.5076" relative="1" as="geometry">
            <mxPoint x="21" as="offset" />
          </mxGeometry>
        </mxCell>
        <mxCell id="yj_8FsxdMn1lCZBzfEJP-1" value="EKF SLAM" style="rounded=1;whiteSpace=wrap;html=1;" vertex="1" parent="1">
          <mxGeometry x="660" y="280" width="120" height="60" as="geometry" />
        </mxCell>
        <mxCell id="qac7rIhTm3O5_2_K3VaP-23" style="edgeStyle=orthogonalEdgeStyle;rounded=0;orthogonalLoop=1;jettySize=auto;html=1;entryX=0;entryY=0.5;entryDx=0;entryDy=0;" edge="1" parent="1" source="yj_8FsxdMn1lCZBzfEJP-2" target="yj_8FsxdMn1lCZBzfEJP-5">
          <mxGeometry relative="1" as="geometry" />
        </mxCell>
        <mxCell id="yj_8FsxdMn1lCZBzfEJP-2" value="RANSAC" style="rounded=1;whiteSpace=wrap;html=1;" vertex="1" parent="1">
          <mxGeometry x="490" y="110" width="120" height="60" as="geometry" />
        </mxCell>
        <mxCell id="qac7rIhTm3O5_2_K3VaP-63" style="edgeStyle=orthogonalEdgeStyle;rounded=0;orthogonalLoop=1;jettySize=auto;html=1;exitX=0;exitY=0.5;exitDx=0;exitDy=0;strokeColor=#A680B8;" edge="1" parent="1" source="yj_8FsxdMn1lCZBzfEJP-3">
          <mxGeometry relative="1" as="geometry">
            <mxPoint x="350" y="760" as="targetPoint" />
            <mxPoint x="450" y="650" as="sourcePoint" />
            <Array as="points">
              <mxPoint x="390" y="650" />
              <mxPoint x="390" y="760" />
            </Array>
          </mxGeometry>
        </mxCell>
        <mxCell id="qac7rIhTm3O5_2_K3VaP-69" value="Steering&lt;br&gt;Command" style="edgeLabel;html=1;align=center;verticalAlign=middle;resizable=0;points=[];labelBorderColor=none;" vertex="1" connectable="0" parent="qac7rIhTm3O5_2_K3VaP-63">
          <mxGeometry x="0.2461" relative="1" as="geometry">
            <mxPoint y="-7" as="offset" />
          </mxGeometry>
        </mxCell>
        <mxCell id="yj_8FsxdMn1lCZBzfEJP-3" value="Pure Pursuit" style="rounded=1;whiteSpace=wrap;html=1;" vertex="1" parent="1">
          <mxGeometry x="460" y="620" width="120" height="60" as="geometry" />
        </mxCell>
        <mxCell id="qac7rIhTm3O5_2_K3VaP-56" style="edgeStyle=orthogonalEdgeStyle;rounded=0;orthogonalLoop=1;jettySize=auto;html=1;entryX=0.5;entryY=0;entryDx=0;entryDy=0;strokeColor=#A680B8;" edge="1" parent="1" source="yj_8FsxdMn1lCZBzfEJP-4" target="qac7rIhTm3O5_2_K3VaP-6">
          <mxGeometry relative="1" as="geometry">
            <Array as="points">
              <mxPoint x="530" y="840" />
              <mxPoint x="690" y="840" />
            </Array>
          </mxGeometry>
        </mxCell>
        <mxCell id="qac7rIhTm3O5_2_K3VaP-62" value="Throttle Command" style="edgeLabel;html=1;align=center;verticalAlign=middle;resizable=0;points=[];" vertex="1" connectable="0" parent="qac7rIhTm3O5_2_K3VaP-56">
          <mxGeometry x="-0.6686" y="-1" relative="1" as="geometry">
            <mxPoint x="-1" y="-1" as="offset" />
          </mxGeometry>
        </mxCell>
        <mxCell id="yj_8FsxdMn1lCZBzfEJP-4" value="PI-D" style="rounded=1;whiteSpace=wrap;html=1;" vertex="1" parent="1">
          <mxGeometry x="460" y="700" width="120" height="60" as="geometry" />
        </mxCell>
        <mxCell id="qac7rIhTm3O5_2_K3VaP-24" style="edgeStyle=orthogonalEdgeStyle;rounded=0;orthogonalLoop=1;jettySize=auto;html=1;entryX=0;entryY=0.5;entryDx=0;entryDy=0;strokeColor=#E08093;" edge="1" parent="1" source="yj_8FsxdMn1lCZBzfEJP-5" target="yj_8FsxdMn1lCZBzfEJP-1">
          <mxGeometry relative="1" as="geometry">
            <Array as="points">
              <mxPoint x="720" y="210" />
              <mxPoint x="560" y="210" />
              <mxPoint x="560" y="310" />
            </Array>
          </mxGeometry>
        </mxCell>
        <mxCell id="qac7rIhTm3O5_2_K3VaP-51" value="Cones" style="edgeLabel;html=1;align=center;verticalAlign=middle;resizable=0;points=[];" vertex="1" connectable="0" parent="qac7rIhTm3O5_2_K3VaP-24">
          <mxGeometry x="-0.3863" y="2" relative="1" as="geometry">
            <mxPoint x="-77" y="28" as="offset" />
          </mxGeometry>
        </mxCell>
        <mxCell id="yj_8FsxdMn1lCZBzfEJP-5" value="DBSCAN" style="rounded=1;whiteSpace=wrap;html=1;" vertex="1" parent="1">
          <mxGeometry x="630" y="110" width="120" height="60" as="geometry" />
        </mxCell>
        <mxCell id="qac7rIhTm3O5_2_K3VaP-27" style="edgeStyle=orthogonalEdgeStyle;rounded=0;orthogonalLoop=1;jettySize=auto;html=1;entryX=0.5;entryY=0;entryDx=0;entryDy=0;" edge="1" parent="1" source="yj_8FsxdMn1lCZBzfEJP-6" target="yj_8FsxdMn1lCZBzfEJP-7">
          <mxGeometry relative="1" as="geometry" />
        </mxCell>
        <mxCell id="yj_8FsxdMn1lCZBzfEJP-6" value="Delaunay Triangulations" style="rounded=1;whiteSpace=wrap;html=1;" vertex="1" parent="1">
          <mxGeometry x="660" y="540" width="120" height="60" as="geometry" />
        </mxCell>
        <mxCell id="qac7rIhTm3O5_2_K3VaP-28" style="edgeStyle=orthogonalEdgeStyle;rounded=0;orthogonalLoop=1;jettySize=auto;html=1;entryX=0.5;entryY=0;entryDx=0;entryDy=0;" edge="1" parent="1" source="yj_8FsxdMn1lCZBzfEJP-7" target="yj_8FsxdMn1lCZBzfEJP-9">
          <mxGeometry relative="1" as="geometry" />
        </mxCell>
        <mxCell id="yj_8FsxdMn1lCZBzfEJP-7" value="B-Spline Path Smoothing" style="rounded=1;whiteSpace=wrap;html=1;" vertex="1" parent="1">
          <mxGeometry x="660" y="620" width="120" height="60" as="geometry" />
        </mxCell>
        <mxCell id="qac7rIhTm3O5_2_K3VaP-26" style="edgeStyle=orthogonalEdgeStyle;rounded=0;orthogonalLoop=1;jettySize=auto;html=1;entryX=0.5;entryY=0;entryDx=0;entryDy=0;" edge="1" parent="1" source="yj_8FsxdMn1lCZBzfEJP-8" target="yj_8FsxdMn1lCZBzfEJP-6">
          <mxGeometry relative="1" as="geometry" />
        </mxCell>
        <mxCell id="yj_8FsxdMn1lCZBzfEJP-8" value="B-Spline Map Smoothing" style="rounded=1;whiteSpace=wrap;html=1;" vertex="1" parent="1">
          <mxGeometry x="660" y="460" width="120" height="60" as="geometry" />
        </mxCell>
        <mxCell id="qac7rIhTm3O5_2_K3VaP-64" style="edgeStyle=orthogonalEdgeStyle;rounded=0;orthogonalLoop=1;jettySize=auto;html=1;entryX=1;entryY=0.5;entryDx=0;entryDy=0;strokeColor=#E08093;" edge="1" parent="1" source="yj_8FsxdMn1lCZBzfEJP-9" target="yj_8FsxdMn1lCZBzfEJP-3">
          <mxGeometry relative="1" as="geometry">
            <Array as="points">
              <mxPoint x="620" y="730" />
              <mxPoint x="620" y="650" />
            </Array>
          </mxGeometry>
        </mxCell>
        <mxCell id="qac7rIhTm3O5_2_K3VaP-76" value="Path&lt;br&gt;Plan" style="edgeLabel;html=1;align=center;verticalAlign=middle;resizable=0;points=[];" vertex="1" connectable="0" parent="qac7rIhTm3O5_2_K3VaP-64">
          <mxGeometry x="0.045" y="1" relative="1" as="geometry">
            <mxPoint as="offset" />
          </mxGeometry>
        </mxCell>
        <mxCell id="qac7rIhTm3O5_2_K3VaP-65" style="edgeStyle=orthogonalEdgeStyle;rounded=0;orthogonalLoop=1;jettySize=auto;html=1;entryX=1;entryY=0.5;entryDx=0;entryDy=0;strokeColor=#E08093;" edge="1" parent="1" source="yj_8FsxdMn1lCZBzfEJP-9" target="yj_8FsxdMn1lCZBzfEJP-4">
          <mxGeometry relative="1" as="geometry" />
        </mxCell>
        <mxCell id="yj_8FsxdMn1lCZBzfEJP-9" value="Velocity Planning" style="rounded=1;whiteSpace=wrap;html=1;" vertex="1" parent="1">
          <mxGeometry x="660" y="700" width="120" height="60" as="geometry" />
        </mxCell>
        <mxCell id="qac7rIhTm3O5_2_K3VaP-22" style="edgeStyle=orthogonalEdgeStyle;rounded=0;orthogonalLoop=1;jettySize=auto;html=1;entryX=0;entryY=0.5;entryDx=0;entryDy=0;strokeColor=#66FF66;" edge="1" parent="1" source="QoUgRfZSFzxjQEd9M27d-1" target="yj_8FsxdMn1lCZBzfEJP-2">
          <mxGeometry relative="1" as="geometry" />
        </mxCell>
        <mxCell id="qac7rIhTm3O5_2_K3VaP-87" value="Pointcloud" style="edgeLabel;html=1;align=center;verticalAlign=middle;resizable=0;points=[];" vertex="1" connectable="0" parent="qac7rIhTm3O5_2_K3VaP-22">
          <mxGeometry x="-0.2101" relative="1" as="geometry">
            <mxPoint x="-27" as="offset" />
          </mxGeometry>
        </mxCell>
        <mxCell id="QoUgRfZSFzxjQEd9M27d-1" value="LiDAR" style="rounded=1;whiteSpace=wrap;html=1;" vertex="1" parent="1">
          <mxGeometry x="130" y="80" width="120" height="60" as="geometry" />
        </mxCell>
        <mxCell id="qac7rIhTm3O5_2_K3VaP-33" style="edgeStyle=orthogonalEdgeStyle;rounded=0;orthogonalLoop=1;jettySize=auto;html=1;entryX=0;entryY=0.5;entryDx=0;entryDy=0;strokeColor=#A680B8;" edge="1" parent="1" source="QoUgRfZSFzxjQEd9M27d-2" target="yj_8FsxdMn1lCZBzfEJP-1">
          <mxGeometry relative="1" as="geometry" />
        </mxCell>
        <mxCell id="qac7rIhTm3O5_2_K3VaP-89" value="3-Axis&lt;br&gt;IMU" style="edgeLabel;html=1;align=center;verticalAlign=middle;resizable=0;points=[];" vertex="1" connectable="0" parent="qac7rIhTm3O5_2_K3VaP-33">
          <mxGeometry x="-0.4806" y="2" relative="1" as="geometry">
            <mxPoint as="offset" />
          </mxGeometry>
        </mxCell>
        <mxCell id="QoUgRfZSFzxjQEd9M27d-2" value="IMU" style="rounded=1;whiteSpace=wrap;html=1;" vertex="1" parent="1">
          <mxGeometry x="130" y="160" width="120" height="60" as="geometry" />
        </mxCell>
        <mxCell id="qac7rIhTm3O5_2_K3VaP-1" value="&lt;b&gt;Planning&amp;nbsp;&lt;/b&gt;" style="shape=umlFrame;whiteSpace=wrap;html=1;pointerEvents=0;width=80;height=30;" vertex="1" parent="1">
          <mxGeometry x="640" y="410" width="160" height="370" as="geometry" />
        </mxCell>
        <mxCell id="qac7rIhTm3O5_2_K3VaP-2" value="&lt;b&gt;Sensors&lt;/b&gt;" style="shape=umlFrame;whiteSpace=wrap;html=1;pointerEvents=0;width=70;height=30;" vertex="1" parent="1">
          <mxGeometry x="110" y="30" width="160" height="370" as="geometry" />
        </mxCell>
        <mxCell id="qac7rIhTm3O5_2_K3VaP-117" style="edgeStyle=orthogonalEdgeStyle;rounded=0;orthogonalLoop=1;jettySize=auto;html=1;exitX=0.25;exitY=0;exitDx=0;exitDy=0;strokeColor=#A680B8;" edge="1" parent="1" source="qac7rIhTm3O5_2_K3VaP-3">
          <mxGeometry relative="1" as="geometry">
            <mxPoint x="519.8" y="860" as="targetPoint" />
            <mxPoint x="519.8" y="960" as="sourcePoint" />
          </mxGeometry>
        </mxCell>
        <mxCell id="qac7rIhTm3O5_2_K3VaP-119" value="Steering&lt;br&gt;Angle" style="edgeLabel;html=1;align=center;verticalAlign=middle;resizable=0;points=[];" vertex="1" connectable="0" parent="qac7rIhTm3O5_2_K3VaP-117">
          <mxGeometry x="0.4633" relative="1" as="geometry">
            <mxPoint as="offset" />
          </mxGeometry>
        </mxCell>
        <mxCell id="qac7rIhTm3O5_2_K3VaP-3" value="Steering Actuator" style="rounded=1;whiteSpace=wrap;html=1;" vertex="1" parent="1">
          <mxGeometry x="490" y="970" width="120" height="60" as="geometry" />
        </mxCell>
        <mxCell id="qac7rIhTm3O5_2_K3VaP-4" value="EBS" style="rounded=1;whiteSpace=wrap;html=1;" vertex="1" parent="1">
          <mxGeometry x="350" y="970" width="120" height="60" as="geometry" />
        </mxCell>
        <mxCell id="qac7rIhTm3O5_2_K3VaP-5" value="&lt;b&gt;Actuators&lt;/b&gt;" style="shape=umlFrame;whiteSpace=wrap;html=1;pointerEvents=0;width=70;height=30;" vertex="1" parent="1">
          <mxGeometry x="330" y="920" width="430" height="130" as="geometry" />
        </mxCell>
        <mxCell id="qac7rIhTm3O5_2_K3VaP-6" value="Motor Controller" style="rounded=1;whiteSpace=wrap;html=1;" vertex="1" parent="1">
          <mxGeometry x="630" y="970" width="120" height="60" as="geometry" />
        </mxCell>
        <mxCell id="qac7rIhTm3O5_2_K3VaP-40" style="edgeStyle=orthogonalEdgeStyle;rounded=0;orthogonalLoop=1;jettySize=auto;html=1;entryX=0.5;entryY=0;entryDx=0;entryDy=0;strokeColor=#FF6666;" edge="1" parent="1" source="qac7rIhTm3O5_2_K3VaP-8" target="qac7rIhTm3O5_2_K3VaP-39">
          <mxGeometry relative="1" as="geometry" />
        </mxCell>
        <mxCell id="qac7rIhTm3O5_2_K3VaP-74" style="edgeStyle=orthogonalEdgeStyle;rounded=0;orthogonalLoop=1;jettySize=auto;html=1;entryX=0;entryY=0.5;entryDx=0;entryDy=0;strokeColor=#A680B8;" edge="1" parent="1" target="yj_8FsxdMn1lCZBzfEJP-1">
          <mxGeometry relative="1" as="geometry">
            <mxPoint x="650" y="309.8011111111111" as="targetPoint" />
            <mxPoint x="350" y="310" as="sourcePoint" />
          </mxGeometry>
        </mxCell>
        <mxCell id="qac7rIhTm3O5_2_K3VaP-75" value="Steering&lt;br&gt;Angle" style="edgeLabel;html=1;align=center;verticalAlign=middle;resizable=0;points=[];" vertex="1" connectable="0" parent="qac7rIhTm3O5_2_K3VaP-74">
          <mxGeometry x="-0.7839" relative="1" as="geometry">
            <mxPoint as="offset" />
          </mxGeometry>
        </mxCell>
        <mxCell id="qac7rIhTm3O5_2_K3VaP-8" value="WSS" style="rounded=1;whiteSpace=wrap;html=1;" vertex="1" parent="1">
          <mxGeometry x="130" y="320" width="120" height="60" as="geometry" />
        </mxCell>
        <mxCell id="qac7rIhTm3O5_2_K3VaP-9" value="&lt;b&gt;State Estimation&lt;/b&gt;" style="shape=umlFrame;whiteSpace=wrap;html=1;pointerEvents=0;width=120;height=30;" vertex="1" parent="1">
          <mxGeometry x="640" y="230" width="160" height="130" as="geometry" />
        </mxCell>
        <mxCell id="qac7rIhTm3O5_2_K3VaP-10" value="&lt;b&gt;Perception&lt;/b&gt;" style="shape=umlFrame;whiteSpace=wrap;html=1;pointerEvents=0;width=120;height=30;" vertex="1" parent="1">
          <mxGeometry x="470" y="60" width="300" height="130" as="geometry" />
        </mxCell>
        <mxCell id="qac7rIhTm3O5_2_K3VaP-15" value="&lt;b&gt;Master&lt;/b&gt;" style="shape=umlFrame;whiteSpace=wrap;html=1;pointerEvents=0;width=70;height=30;" vertex="1" parent="1">
          <mxGeometry x="110" y="440" width="160" height="290" as="geometry" />
        </mxCell>
        <mxCell id="qac7rIhTm3O5_2_K3VaP-17" value="&lt;b&gt;Control&lt;/b&gt;" style="shape=umlFrame;whiteSpace=wrap;html=1;pointerEvents=0;width=70;height=30;" vertex="1" parent="1">
          <mxGeometry x="440" y="580" width="160" height="200" as="geometry" />
        </mxCell>
        <mxCell id="qac7rIhTm3O5_2_K3VaP-102" style="edgeStyle=orthogonalEdgeStyle;rounded=0;orthogonalLoop=1;jettySize=auto;html=1;entryX=0;entryY=0.5;entryDx=0;entryDy=0;strokeColor=#FF6666;" edge="1" parent="1" source="qac7rIhTm3O5_2_K3VaP-38" target="qac7rIhTm3O5_2_K3VaP-91">
          <mxGeometry relative="1" as="geometry">
            <Array as="points">
              <mxPoint x="190" y="750" />
              <mxPoint x="90" y="750" />
              <mxPoint x="90" y="850" />
            </Array>
          </mxGeometry>
        </mxCell>
        <mxCell id="qac7rIhTm3O5_2_K3VaP-103" style="edgeStyle=orthogonalEdgeStyle;rounded=0;orthogonalLoop=1;jettySize=auto;html=1;entryX=0;entryY=0.5;entryDx=0;entryDy=0;exitX=0.5;exitY=1;exitDx=0;exitDy=0;strokeColor=#FF6666;" edge="1" parent="1" source="qac7rIhTm3O5_2_K3VaP-38" target="qac7rIhTm3O5_2_K3VaP-4">
          <mxGeometry relative="1" as="geometry">
            <Array as="points">
              <mxPoint x="190" y="750" />
              <mxPoint x="300" y="750" />
              <mxPoint x="300" y="1000" />
            </Array>
          </mxGeometry>
        </mxCell>
        <mxCell id="qac7rIhTm3O5_2_K3VaP-113" value="EBS&amp;nbsp;Activate" style="edgeLabel;html=1;align=center;verticalAlign=middle;resizable=0;points=[];" vertex="1" connectable="0" parent="qac7rIhTm3O5_2_K3VaP-103">
          <mxGeometry x="0.0226" y="-1" relative="1" as="geometry">
            <mxPoint x="-59" y="-80" as="offset" />
          </mxGeometry>
        </mxCell>
        <mxCell id="qac7rIhTm3O5_2_K3VaP-104" style="edgeStyle=orthogonalEdgeStyle;rounded=0;orthogonalLoop=1;jettySize=auto;html=1;entryX=0;entryY=0.5;entryDx=0;entryDy=0;strokeColor=#A680B8;" edge="1" parent="1" source="qac7rIhTm3O5_2_K3VaP-38" target="qac7rIhTm3O5_2_K3VaP-43">
          <mxGeometry relative="1" as="geometry">
            <Array as="points">
              <mxPoint x="380" y="680" />
              <mxPoint x="380" y="400" />
            </Array>
          </mxGeometry>
        </mxCell>
        <mxCell id="qac7rIhTm3O5_2_K3VaP-38" value="ASS State Machine" style="rounded=1;whiteSpace=wrap;html=1;" vertex="1" parent="1">
          <mxGeometry x="130" y="650" width="120" height="60" as="geometry" />
        </mxCell>
        <mxCell id="qac7rIhTm3O5_2_K3VaP-106" style="edgeStyle=orthogonalEdgeStyle;rounded=0;orthogonalLoop=1;jettySize=auto;html=1;entryX=0;entryY=0.5;entryDx=0;entryDy=0;strokeColor=#A680B8;" edge="1" parent="1" source="qac7rIhTm3O5_2_K3VaP-39" target="qac7rIhTm3O5_2_K3VaP-47">
          <mxGeometry relative="1" as="geometry">
            <Array as="points">
              <mxPoint x="380" y="520" />
              <mxPoint x="380" y="480" />
            </Array>
          </mxGeometry>
        </mxCell>
        <mxCell id="qac7rIhTm3O5_2_K3VaP-116" value="Wheel&lt;br&gt;RPM" style="edgeLabel;html=1;align=center;verticalAlign=middle;resizable=0;points=[];" vertex="1" connectable="0" parent="qac7rIhTm3O5_2_K3VaP-106">
          <mxGeometry x="0.5051" relative="1" as="geometry">
            <mxPoint as="offset" />
          </mxGeometry>
        </mxCell>
        <mxCell id="qac7rIhTm3O5_2_K3VaP-107" style="edgeStyle=orthogonalEdgeStyle;rounded=0;orthogonalLoop=1;jettySize=auto;html=1;entryX=0;entryY=0.5;entryDx=0;entryDy=0;strokeColor=#A680B8;" edge="1" parent="1" source="qac7rIhTm3O5_2_K3VaP-39" target="qac7rIhTm3O5_2_K3VaP-43">
          <mxGeometry relative="1" as="geometry">
            <Array as="points">
              <mxPoint x="380" y="520" />
              <mxPoint x="380" y="400" />
            </Array>
          </mxGeometry>
        </mxCell>
        <mxCell id="qac7rIhTm3O5_2_K3VaP-115" value="ASS,&lt;br&gt;Mission" style="edgeLabel;html=1;align=center;verticalAlign=middle;resizable=0;points=[];" vertex="1" connectable="0" parent="qac7rIhTm3O5_2_K3VaP-107">
          <mxGeometry x="0.3034" y="2" relative="1" as="geometry">
            <mxPoint as="offset" />
          </mxGeometry>
        </mxCell>
        <mxCell id="qac7rIhTm3O5_2_K3VaP-39" value="Translator" style="rounded=1;whiteSpace=wrap;html=1;" vertex="1" parent="1">
          <mxGeometry x="130" y="490" width="120" height="60" as="geometry" />
        </mxCell>
        <mxCell id="qac7rIhTm3O5_2_K3VaP-43" value="Mission Control" style="rounded=1;whiteSpace=wrap;html=1;" vertex="1" parent="1">
          <mxGeometry x="460" y="370" width="120" height="60" as="geometry" />
        </mxCell>
        <mxCell id="qac7rIhTm3O5_2_K3VaP-45" value="&lt;b&gt;ROS-CAN&lt;/b&gt;" style="shape=umlFrame;whiteSpace=wrap;html=1;pointerEvents=0;width=80;height=30;" vertex="1" parent="1">
          <mxGeometry x="440" y="320" width="160" height="220" as="geometry" />
        </mxCell>
        <mxCell id="qac7rIhTm3O5_2_K3VaP-47" value="Translator" style="rounded=1;whiteSpace=wrap;html=1;" vertex="1" parent="1">
          <mxGeometry x="460" y="450" width="120" height="60" as="geometry" />
        </mxCell>
        <mxCell id="qac7rIhTm3O5_2_K3VaP-49" value="" style="html=1;points=[[0,0,0,0,5],[0,1,0,0,-5],[1,0,0,0,5],[1,1,0,0,-5]];perimeter=orthogonalPerimeter;outlineConnect=0;targetShapes=umlLifeline;portConstraint=eastwest;newEdgeStyle={&quot;curved&quot;:0,&quot;rounded&quot;:0};strokeColor=#A680B8;" vertex="1" parent="1">
          <mxGeometry x="340" y="180" width="10" height="680" as="geometry" />
        </mxCell>
        <mxCell id="qac7rIhTm3O5_2_K3VaP-70" value="" style="html=1;points=[[0,0,0,0,5],[0,1,0,0,-5],[1,0,0,0,5],[1,1,0,0,-5]];perimeter=orthogonalPerimeter;outlineConnect=0;targetShapes=umlLifeline;portConstraint=eastwest;newEdgeStyle={&quot;curved&quot;:0,&quot;rounded&quot;:0};strokeColor=#A680B8;rotation=-90;" vertex="1" parent="1">
          <mxGeometry x="518.13" y="671.88" width="10" height="366.25" as="geometry" />
        </mxCell>
        <mxCell id="qac7rIhTm3O5_2_K3VaP-90" value="&lt;b&gt;SDC Logic&lt;/b&gt;" style="shape=umlFrame;whiteSpace=wrap;html=1;pointerEvents=0;width=80;height=30;" vertex="1" parent="1">
          <mxGeometry x="110" y="770" width="160" height="130" as="geometry" />
        </mxCell>
        <mxCell id="qac7rIhTm3O5_2_K3VaP-91" value="Supervisor&lt;sup&gt;2&lt;/sup&gt;" style="rounded=1;whiteSpace=wrap;html=1;" vertex="1" parent="1">
          <mxGeometry x="130" y="820" width="120" height="60" as="geometry" />
        </mxCell>
        <mxCell id="qac7rIhTm3O5_2_K3VaP-101" style="edgeStyle=orthogonalEdgeStyle;rounded=0;orthogonalLoop=1;jettySize=auto;html=1;entryX=0.5;entryY=0;entryDx=0;entryDy=0;" edge="1" parent="1" source="qac7rIhTm3O5_2_K3VaP-98" target="qac7rIhTm3O5_2_K3VaP-38">
          <mxGeometry relative="1" as="geometry" />
        </mxCell>
        <mxCell id="qac7rIhTm3O5_2_K3VaP-98" value="Supervisor" style="rounded=1;whiteSpace=wrap;html=1;" vertex="1" parent="1">
          <mxGeometry x="130" y="570" width="120" height="60" as="geometry" />
        </mxCell>
        <mxCell id="qac7rIhTm3O5_2_K3VaP-100" style="edgeStyle=orthogonalEdgeStyle;rounded=0;orthogonalLoop=1;jettySize=auto;html=1;entryX=0;entryY=0.5;entryDx=0;entryDy=0;exitX=0;exitY=0.5;exitDx=0;exitDy=0;strokeColor=#FF6666;" edge="1" parent="1" source="qac7rIhTm3O5_2_K3VaP-99" target="qac7rIhTm3O5_2_K3VaP-98">
          <mxGeometry relative="1" as="geometry">
            <Array as="points">
              <mxPoint x="80" y="270" />
              <mxPoint x="80" y="600" />
            </Array>
          </mxGeometry>
        </mxCell>
        <mxCell id="qac7rIhTm3O5_2_K3VaP-114" value="EBS&lt;br&gt;State" style="edgeLabel;html=1;align=center;verticalAlign=middle;resizable=0;points=[];" vertex="1" connectable="0" parent="qac7rIhTm3O5_2_K3VaP-100">
          <mxGeometry x="0.0128" y="1" relative="1" as="geometry">
            <mxPoint as="offset" />
          </mxGeometry>
        </mxCell>
        <mxCell id="qac7rIhTm3O5_2_K3VaP-99" value="Brake Sensors" style="rounded=1;whiteSpace=wrap;html=1;" vertex="1" parent="1">
          <mxGeometry x="130" y="240" width="120" height="60" as="geometry" />
        </mxCell>
        <mxCell id="qac7rIhTm3O5_2_K3VaP-108" value="&lt;b&gt;AMI&lt;/b&gt;" style="shape=umlFrame;whiteSpace=wrap;html=1;pointerEvents=0;width=80;height=30;" vertex="1" parent="1">
          <mxGeometry x="110" y="920" width="160" height="130" as="geometry" />
        </mxCell>
        <mxCell id="qac7rIhTm3O5_2_K3VaP-110" style="edgeStyle=orthogonalEdgeStyle;rounded=0;orthogonalLoop=1;jettySize=auto;html=1;entryX=0;entryY=0.5;entryDx=0;entryDy=0;exitX=0;exitY=0.5;exitDx=0;exitDy=0;strokeColor=#FF6666;" edge="1" parent="1" source="qac7rIhTm3O5_2_K3VaP-109" target="qac7rIhTm3O5_2_K3VaP-39">
          <mxGeometry relative="1" as="geometry">
            <Array as="points">
              <mxPoint x="60" y="990" />
              <mxPoint x="60" y="520" />
            </Array>
          </mxGeometry>
        </mxCell>
        <mxCell id="qac7rIhTm3O5_2_K3VaP-111" value="Mission" style="edgeLabel;html=1;align=center;verticalAlign=middle;resizable=0;points=[];" vertex="1" connectable="0" parent="qac7rIhTm3O5_2_K3VaP-110">
          <mxGeometry x="-0.6485" y="2" relative="1" as="geometry">
            <mxPoint x="2" y="-253" as="offset" />
          </mxGeometry>
        </mxCell>
        <mxCell id="qac7rIhTm3O5_2_K3VaP-109" value="Mission" style="rounded=1;whiteSpace=wrap;html=1;" vertex="1" parent="1">
          <mxGeometry x="130" y="960" width="120" height="60" as="geometry" />
        </mxCell>
        <mxCell id="qac7rIhTm3O5_2_K3VaP-112" value="Close SDC" style="edgeLabel;html=1;align=center;verticalAlign=middle;resizable=0;points=[];" vertex="1" connectable="0" parent="1">
          <mxGeometry x="130" y="749.9976190476191" as="geometry" />
        </mxCell>
        <mxCell id="qac7rIhTm3O5_2_K3VaP-118" style="edgeStyle=orthogonalEdgeStyle;rounded=0;orthogonalLoop=1;jettySize=auto;html=1;exitX=0.75;exitY=0;exitDx=0;exitDy=0;startArrow=classic;startFill=1;endArrow=none;endFill=0;strokeColor=#A680B8;" edge="1" parent="1" source="qac7rIhTm3O5_2_K3VaP-3">
          <mxGeometry relative="1" as="geometry">
            <mxPoint x="579.6" y="860" as="targetPoint" />
            <mxPoint x="579.6" y="960" as="sourcePoint" />
          </mxGeometry>
        </mxCell>
        <mxCell id="qac7rIhTm3O5_2_K3VaP-120" value="Steering&lt;br&gt;Command" style="edgeLabel;html=1;align=center;verticalAlign=middle;resizable=0;points=[];" vertex="1" connectable="0" parent="qac7rIhTm3O5_2_K3VaP-118">
          <mxGeometry x="0.4604" y="1" relative="1" as="geometry">
            <mxPoint as="offset" />
          </mxGeometry>
        </mxCell>
        <mxCell id="qac7rIhTm3O5_2_K3VaP-121" value="" style="rounded=0;whiteSpace=wrap;html=1;" vertex="1" parent="1">
          <mxGeometry x="-80" y="910" width="120" height="140" as="geometry" />
        </mxCell>
        <mxCell id="qac7rIhTm3O5_2_K3VaP-122" value="&lt;b style=&quot;&quot;&gt;&lt;font style=&quot;vertical-align: inherit;&quot;&gt;&lt;font style=&quot;vertical-align: inherit;&quot;&gt;&lt;font style=&quot;vertical-align: inherit;&quot;&gt;&lt;font style=&quot;vertical-align: inherit;&quot;&gt;&lt;font style=&quot;vertical-align: inherit;&quot;&gt;&lt;font style=&quot;vertical-align: inherit;&quot;&gt;&lt;font style=&quot;font-size: 12px;&quot;&gt;Label:&lt;/font&gt;&lt;br&gt;&lt;/font&gt;&lt;/font&gt;&lt;/font&gt;&lt;/font&gt;&lt;/font&gt;&lt;/font&gt;&lt;/b&gt;" style="text;html=1;strokeColor=none;fillColor=none;align=center;verticalAlign=middle;whiteSpace=wrap;rounded=0;" vertex="1" parent="1">
          <mxGeometry x="-75" y="910" width="110" height="30" as="geometry" />
        </mxCell>
        <mxCell id="qac7rIhTm3O5_2_K3VaP-123" value="" style="endArrow=classic;html=1;rounded=0;strokeWidth=2;" edge="1" parent="1">
          <mxGeometry relative="1" as="geometry">
            <mxPoint x="-75" y="950" as="sourcePoint" />
            <mxPoint x="-45" y="950" as="targetPoint" />
          </mxGeometry>
        </mxCell>
        <mxCell id="qac7rIhTm3O5_2_K3VaP-124" value="" style="endArrow=classic;html=1;rounded=0;strokeWidth=2;fillColor=#fff2cc;strokeColor=#FF6666;" edge="1" parent="1">
          <mxGeometry relative="1" as="geometry">
            <mxPoint x="-75" y="970" as="sourcePoint" />
            <mxPoint x="-45" y="970" as="targetPoint" />
          </mxGeometry>
        </mxCell>
        <mxCell id="qac7rIhTm3O5_2_K3VaP-125" value="&lt;font style=&quot;font-size: 12px;&quot;&gt;Internal&lt;/font&gt;" style="text;html=1;strokeColor=none;fillColor=none;align=left;verticalAlign=middle;whiteSpace=wrap;rounded=0;" vertex="1" parent="1">
          <mxGeometry x="-40" y="940" width="65" height="20" as="geometry" />
        </mxCell>
        <mxCell id="qac7rIhTm3O5_2_K3VaP-126" value="&lt;font color=&quot;#ff6666&quot;&gt;No Protocol&lt;/font&gt;" style="text;html=1;strokeColor=none;fillColor=none;align=left;verticalAlign=middle;whiteSpace=wrap;rounded=0;" vertex="1" parent="1">
          <mxGeometry x="-40" y="960" width="70" height="20" as="geometry" />
        </mxCell>
        <mxCell id="qac7rIhTm3O5_2_K3VaP-127" value="" style="endArrow=classic;html=1;rounded=0;strokeWidth=2;fillColor=#e1d5e7;strokeColor=#9673a6;" edge="1" parent="1">
          <mxGeometry relative="1" as="geometry">
            <mxPoint x="-75" y="990" as="sourcePoint" />
            <mxPoint x="-45" y="990" as="targetPoint" />
          </mxGeometry>
        </mxCell>
        <mxCell id="qac7rIhTm3O5_2_K3VaP-128" value="&lt;font color=&quot;#a680b8&quot; style=&quot;font-size: 12px;&quot;&gt;CAN&lt;/font&gt;" style="text;html=1;strokeColor=none;fillColor=none;align=left;verticalAlign=middle;whiteSpace=wrap;rounded=0;" vertex="1" parent="1">
          <mxGeometry x="-40" y="980" width="55" height="20" as="geometry" />
        </mxCell>
        <mxCell id="qac7rIhTm3O5_2_K3VaP-129" value="&lt;font color=&quot;#66ff66&quot; style=&quot;font-size: 12px;&quot;&gt;Ethernet&lt;/font&gt;" style="text;html=1;strokeColor=none;fillColor=none;align=left;verticalAlign=middle;whiteSpace=wrap;rounded=0;" vertex="1" parent="1">
          <mxGeometry x="-40" y="1000" width="65" height="20" as="geometry" />
        </mxCell>
        <mxCell id="qac7rIhTm3O5_2_K3VaP-130" value="" style="endArrow=classic;html=1;rounded=0;strokeWidth=2;fillColor=#e1d5e7;strokeColor=#66FF66;" edge="1" parent="1">
          <mxGeometry relative="1" as="geometry">
            <mxPoint x="-75" y="1009.89" as="sourcePoint" />
            <mxPoint x="-45" y="1009.89" as="targetPoint" />
          </mxGeometry>
        </mxCell>
        <mxCell id="qac7rIhTm3O5_2_K3VaP-138" value="&lt;font color=&quot;#7ea6e0&quot; style=&quot;font-size: 12px;&quot;&gt;ROS2&lt;/font&gt;" style="text;html=1;strokeColor=none;fillColor=none;align=left;verticalAlign=middle;whiteSpace=wrap;rounded=0;" vertex="1" parent="1">
          <mxGeometry x="-40" y="1020" width="65" height="20" as="geometry" />
        </mxCell>
        <mxCell id="qac7rIhTm3O5_2_K3VaP-139" value="" style="endArrow=classic;html=1;rounded=0;strokeWidth=2;fillColor=#e1d5e7;strokeColor=#E08093;" edge="1" parent="1">
          <mxGeometry relative="1" as="geometry">
            <mxPoint x="-75" y="1029.8899999999999" as="sourcePoint" />
            <mxPoint x="-45" y="1029.8899999999999" as="targetPoint" />
          </mxGeometry>
        </mxCell>
      </root>
    </mxGraphModel>
  </diagram>
</mxfile>
